SplineFontDB: 3.2
FontName: voicenotosans
FullName: voicenotosans
FamilyName: voicenotosans
Weight: Regular
Copyright: Copyright 2022 The Noto Project Authors (https://github.com/notofonts/latin-greek-cyrillic)
Version: 2.013
ItalicAngle: 0
UnderlinePosition: -125
UnderlineWidth: 50
Ascent: 800
Descent: 200
InvalidEm: 0
sfntRevision: 0x00020354
LayerCount: 2
Layer: 0 1 "Back" 1
Layer: 1 1 "Fore" 0
XUID: [1021 426 849761687 13685114]
StyleMap: 0x0040
FSType: 0
OS2Version: 4
OS2_WeightWidthSlopeOnly: 0
OS2_UseTypoMetrics: 1
CreationTime: 1633362791
ModificationTime: 1717142421
PfmFamily: 17
TTFWeight: 400
TTFWidth: 5
LineGap: 0
VLineGap: 0
Panose: 2 11 5 2 4 5 4 2 2 4
OS2TypoAscent: 1069
OS2TypoAOffset: 0
OS2TypoDescent: -293
OS2TypoDOffset: 0
OS2TypoLinegap: 0
OS2WinAscent: 1124
OS2WinAOffset: 0
OS2WinDescent: 395
OS2WinDOffset: 0
HheadAscent: 1069
HheadAOffset: 0
HheadDescent: -293
HheadDOffset: 0
OS2SubXSize: 650
OS2SubYSize: 600
OS2SubXOff: 0
OS2SubYOff: 75
OS2SupXSize: 650
OS2SupYSize: 600
OS2SupXOff: 0
OS2SupYOff: 350
OS2StrikeYSize: 50
OS2StrikeYPos: 322
OS2CapHeight: 714
OS2XHeight: 536
OS2Vendor: 'GOOG'
OS2CodePages: 0000019f.00000000
OS2UnicodeRanges: e00002ff.4000201f.08000029.00100000
Lookup: 1 0 0 "'aalt' Access All Alternates lookup 0" { "'aalt' Access All Alternates lookup 0 subtable"  } ['aalt' ('DFLT' <'dflt' > 'cyrl' <'MKD ' 'SRB ' 'dflt' > 'dev2' <'MAR ' 'NEP ' 'dflt' > 'grek' <'APPH' 'IPPH' 'dflt' > 'latn' <'APPH' 'CAT ' 'IPPH' 'MAH ' 'MOL ' 'NAV ' 'ROM ' 'dflt' > ) ]
Lookup: 3 0 0 "'aalt' Access All Alternates lookup 1" { "'aalt' Access All Alternates lookup 1 subtable"  } ['aalt' ('DFLT' <'dflt' > 'cyrl' <'MKD ' 'SRB ' 'dflt' > 'dev2' <'MAR ' 'NEP ' 'dflt' > 'grek' <'APPH' 'IPPH' 'dflt' > 'latn' <'APPH' 'CAT ' 'IPPH' 'MAH ' 'MOL ' 'NAV ' 'ROM ' 'dflt' > ) ]

StartChar: exclam
Encoding: 33 33 3
Width: 269
Flags: W
LayerCount: 2
Fore
SplineSet
163 201 m 1,0,-1
 106 201 l 1,1,-1
 81 714 l 1,2,-1
 188 714 l 1,3,-1
 163 201 l 1,0,-1
72 54 m 0,4,5
 72 91 72 91 90 106 c 128,-1,6
 108 121 108 121 134 121 c 0,7,8
 159 121 159 121 177.5 106 c 128,-1,9
 196 91 196 91 196 54 c 0,10,11
 196 18 196 18 177.5 2 c 128,-1,12
 159 -14 159 -14 134 -14 c 0,13,14
 108 -14 108 -14 90 2 c 128,-1,15
 72 18 72 18 72 54 c 0,4,5
EndSplineSet
Substitution2: "'smcp' Lowercase to Small Capitals lookup 39 subtable" exclam.sc
Substitution2: "'c2sc' Capitals to Small Capitals lookup 38 subtable" exclam.sc
Substitution2: "'aalt' Access All Alternates lookup 0 subtable" exclam.sc
EndChar

StartChar: quotedbl
Encoding: 34 34 4
Width: 408
Flags: W
LayerCount: 2
Fore
SplineSet
160 714 m 1,0,-1
 140 456 l 1,1,-1
 85 456 l 1,2,-1
 65 714 l 1,3,-1
 160 714 l 1,0,-1
343 714 m 1,4,-1
 323 456 l 1,5,-1
 268 456 l 1,6,-1
 248 714 l 1,7,-1
 343 714 l 1,4,-1
EndSplineSet
EndChar

StartChar: numbersign
Encoding: 35 35 5
Width: 646
Flags: W
LayerCount: 2
Fore
SplineSet
480 436 m 1,0,-1
 449 276 l 1,1,-1
 586 276 l 1,2,-1
 586 209 l 1,3,-1
 436 209 l 1,4,-1
 395 0 l 1,5,-1
 324 0 l 1,6,-1
 365 209 l 1,7,-1
 222 209 l 1,8,-1
 183 0 l 1,9,-1
 113 0 l 1,10,-1
 151 209 l 1,11,-1
 25 209 l 1,12,-1
 25 276 l 1,13,-1
 164 276 l 1,14,-1
 196 436 l 1,15,-1
 62 436 l 1,16,-1
 62 502 l 1,17,-1
 208 502 l 1,18,-1
 248 714 l 1,19,-1
 320 714 l 1,20,-1
 280 502 l 1,21,-1
 424 502 l 1,22,-1
 464 714 l 1,23,-1
 533 714 l 1,24,-1
 493 502 l 1,25,-1
 620 502 l 1,26,-1
 620 436 l 1,27,-1
 480 436 l 1,0,-1
235 276 m 1,28,-1
 378 276 l 1,29,-1
 409 436 l 1,30,-1
 266 436 l 1,31,-1
 235 276 l 1,28,-1
EndSplineSet
EndChar

StartChar: dollar
Encoding: 36 36 6
Width: 572
Flags: W
LayerCount: 2
Fore
SplineSet
253 49 m 1,0,1
 198 50 198 50 146 58.5 c 128,-1,2
 94 67 94 67 62 82 c 1,3,-1
 62 167 l 1,4,5
 96 151 96 151 149 139 c 128,-1,6
 202 127 202 127 253 126 c 1,7,-1
 253 328 l 1,8,9
 187 346 187 346 145 369.5 c 128,-1,10
 103 393 103 393 82.5 427 c 128,-1,11
 62 461 62 461 62 508 c 0,12,13
 62 557 62 557 85.5 592 c 128,-1,14
 109 627 109 627 152 647.5 c 128,-1,15
 195 668 195 668 253 671 c 1,16,-1
 253 759 l 1,17,-1
 317 759 l 1,18,-1
 317 672 l 1,19,20
 370 671 370 671 413.5 660.5 c 128,-1,21
 457 650 457 650 493 635 c 1,22,-1
 466 561 l 1,23,24
 434 574 434 574 395.5 583.5 c 128,-1,25
 357 593 357 593 317 596 c 1,26,-1
 317 395 l 1,27,28
 383 376 383 376 427 354.5 c 128,-1,29
 471 333 471 333 493.5 301.5 c 128,-1,30
 516 270 516 270 516 220 c 0,31,32
 516 150 516 150 464 106.5 c 128,-1,33
 412 63 412 63 317 53 c 1,34,-1
 317 -58 l 1,35,-1
 253 -58 l 1,36,-1
 253 49 l 1,0,1
317 131 m 1,37,38
 376 137 376 137 403 158.5 c 128,-1,39
 430 180 430 180 430 214 c 0,40,41
 430 239 430 239 420 255.5 c 128,-1,42
 410 272 410 272 385.5 284 c 128,-1,43
 361 296 361 296 317 307 c 1,44,-1
 317 131 l 1,37,38
253 594 m 1,45,46
 217 592 217 592 194 581.5 c 128,-1,47
 171 571 171 571 159.5 554 c 128,-1,48
 148 537 148 537 148 515 c 0,49,50
 148 489 148 489 157.5 470.5 c 128,-1,51
 167 452 167 452 190 439.5 c 128,-1,52
 213 427 213 427 253 417 c 1,53,-1
 253 594 l 1,45,46
EndSplineSet
EndChar

StartChar: percent
Encoding: 37 37 7
Width: 831
Flags: W
LayerCount: 2
Fore
SplineSet
195 724 m 0,0,1
 269 724 269 724 307 665.5 c 128,-1,2
 345 607 345 607 345 501 c 256,3,4
 345 395 345 395 308.5 335.5 c 128,-1,5
 272 276 272 276 195 276 c 0,6,7
 124 276 124 276 86.5 335.5 c 128,-1,8
 49 395 49 395 49 501 c 256,9,10
 49 607 49 607 84 665.5 c 128,-1,11
 119 724 119 724 195 724 c 0,0,1
195 662 m 0,12,13
 157 662 157 662 139.5 621.5 c 128,-1,14
 122 581 122 581 122 501 c 256,15,16
 122 421 122 421 139.5 380 c 128,-1,17
 157 339 157 339 195 339 c 0,18,19
 234 339 234 339 253 379.5 c 128,-1,20
 272 420 272 420 272 501 c 0,21,22
 272 581 272 581 253 621.5 c 128,-1,23
 234 662 234 662 195 662 c 0,12,13
652 714 m 1,24,-1
 256 0 l 1,25,-1
 179 0 l 1,26,-1
 575 714 l 1,27,-1
 652 714 l 1,24,-1
632 438 m 0,28,29
 705 438 705 438 743.5 379.5 c 128,-1,30
 782 321 782 321 782 215 c 256,31,32
 782 109 782 109 745.5 49.5 c 128,-1,33
 709 -10 709 -10 632 -10 c 0,34,35
 561 -10 561 -10 523.5 49.5 c 128,-1,36
 486 109 486 109 486 215 c 256,37,38
 486 321 486 321 521 379.5 c 128,-1,39
 556 438 556 438 632 438 c 0,28,29
632 375 m 0,40,41
 594 375 594 375 576.5 335 c 128,-1,42
 559 295 559 295 559 215 c 0,43,44
 559 134 559 134 576.5 93.5 c 128,-1,45
 594 53 594 53 632 53 c 0,46,47
 671 53 671 53 690 93 c 128,-1,48
 709 133 709 133 709 215 c 0,49,50
 709 295 709 295 690 335 c 128,-1,51
 671 375 671 375 632 375 c 0,40,41
EndSplineSet
EndChar

StartChar: ampersand
Encoding: 38 38 8
Width: 732
Flags: W
LayerCount: 2
Fore
SplineSet
304 725 m 0,0,1
 358 725 358 725 396.5 706.5 c 128,-1,2
 435 688 435 688 456 654 c 128,-1,3
 477 620 477 620 477 571 c 0,4,5
 477 508 477 508 436.5 464 c 128,-1,6
 396 420 396 420 334 384 c 1,7,-1
 527 198 l 1,8,9
 553 229 553 229 569.5 269.5 c 128,-1,10
 586 310 586 310 597 357 c 1,11,-1
 686 357 l 1,12,13
 670 293 670 293 646 238 c 128,-1,14
 622 183 622 183 584 142 c 1,15,-1
 730 0 l 1,16,-1
 611 0 l 1,17,-1
 524 84 l 1,18,19
 493 56 493 56 457 35 c 128,-1,20
 421 14 421 14 377.5 2 c 128,-1,21
 334 -10 334 -10 278 -10 c 0,22,23
 209 -10 209 -10 158.5 12.5 c 128,-1,24
 108 35 108 35 80.5 79 c 128,-1,25
 53 123 53 123 53 186 c 0,26,27
 53 237 53 237 71.5 274 c 128,-1,28
 90 311 90 311 125 340 c 128,-1,29
 160 369 160 369 207 396 c 1,30,31
 186 420 186 420 166 446 c 128,-1,32
 146 472 146 472 133 502.5 c 128,-1,33
 120 533 120 533 120 569 c 0,34,35
 120 618 120 618 142 653 c 128,-1,36
 164 688 164 688 205.5 706.5 c 128,-1,37
 247 725 247 725 304 725 c 0,0,1
260 341 m 1,38,39
 224 320 224 320 198.5 298.5 c 128,-1,40
 173 277 173 277 159 251 c 128,-1,41
 145 225 145 225 145 189 c 0,42,43
 145 134 145 134 182 101 c 128,-1,44
 219 68 219 68 281 68 c 0,45,46
 345 68 345 68 391 89 c 128,-1,47
 437 110 437 110 468 139 c 1,48,-1
 260 341 l 1,38,39
301 653 m 0,49,50
 259 653 259 653 232.5 631 c 128,-1,51
 206 609 206 609 206 570 c 0,52,53
 206 534 206 534 225 503.5 c 128,-1,54
 244 473 244 473 280 436 c 1,55,56
 339 470 339 470 364.5 500.5 c 128,-1,57
 390 531 390 531 390 571 c 0,58,59
 390 607 390 607 366 630 c 128,-1,60
 342 653 342 653 301 653 c 0,49,50
EndSplineSet
Substitution2: "'smcp' Lowercase to Small Capitals lookup 39 subtable" ampersand.sc
Substitution2: "'c2sc' Capitals to Small Capitals lookup 38 subtable" ampersand.sc
Substitution2: "'aalt' Access All Alternates lookup 0 subtable" ampersand.sc
EndChar

StartChar: quotesingle
Encoding: 39 39 9
Width: 225
Flags: W
LayerCount: 2
Fore
SplineSet
160 714 m 1,0,-1
 140 456 l 1,1,-1
 85 456 l 1,2,-1
 65 714 l 1,3,-1
 160 714 l 1,0,-1
EndSplineSet
EndChar

StartChar: parenleft
Encoding: 40 40 10
Width: 300
Flags: W
LayerCount: 2
Fore
SplineSet
40 274 m 0,0,1
 40 356 40 356 55.5 434 c 128,-1,2
 71 512 71 512 104 583 c 128,-1,3
 137 654 137 654 187 714 c 1,4,-1
 270 714 l 1,5,6
 200 620 200 620 164.5 507 c 128,-1,7
 129 394 129 394 129 275 c 0,8,9
 129 198 129 198 145 122 c 128,-1,10
 161 46 161 46 192 -24.5 c 128,-1,11
 223 -95 223 -95 269 -158 c 1,12,-1
 187 -158 l 1,13,14
 137 -99 137 -99 104 -29.5 c 128,-1,15
 71 40 71 40 55.5 117 c 128,-1,16
 40 194 40 194 40 274 c 0,0,1
EndSplineSet
Substitution2: "'smcp' Lowercase to Small Capitals lookup 39 subtable" parenleft.sc
Substitution2: "'c2sc' Capitals to Small Capitals lookup 38 subtable" parenleft.sc
Substitution2: "'sups' Superscript lookup 25 subtable" uni207D
Substitution2: "'sinf' Scientific Inferiors lookup 24 subtable" uni208D
Substitution2: "'subs' Subscript lookup 23 subtable" uni208D
AlternateSubs2: "'aalt' Access All Alternates lookup 1 subtable" uni208D uni207D parenleft.sc
EndChar

StartChar: parenright
Encoding: 41 41 11
Width: 300
Flags: W
LayerCount: 2
Fore
SplineSet
260 274 m 0,0,1
 260 194 260 194 244.5 117 c 128,-1,2
 229 40 229 40 196.5 -29.5 c 128,-1,3
 164 -99 164 -99 113 -158 c 1,4,-1
 31 -158 l 1,5,6
 77 -95 77 -95 108 -24.5 c 128,-1,7
 139 46 139 46 155 122 c 128,-1,8
 171 198 171 198 171 275 c 0,9,10
 171 354 171 354 155 431 c 128,-1,11
 139 508 139 508 108 580 c 128,-1,12
 77 652 77 652 30 714 c 1,13,-1
 113 714 l 1,14,15
 164 654 164 654 196.5 583 c 128,-1,16
 229 512 229 512 244.5 434 c 128,-1,17
 260 356 260 356 260 274 c 0,0,1
EndSplineSet
Substitution2: "'smcp' Lowercase to Small Capitals lookup 39 subtable" parenright.sc
Substitution2: "'c2sc' Capitals to Small Capitals lookup 38 subtable" parenright.sc
Substitution2: "'sups' Superscript lookup 25 subtable" uni207E
Substitution2: "'sinf' Scientific Inferiors lookup 24 subtable" uni208E
Substitution2: "'subs' Subscript lookup 23 subtable" uni208E
AlternateSubs2: "'aalt' Access All Alternates lookup 1 subtable" uni208E uni207E parenright.sc
EndChar

StartChar: asterisk
Encoding: 42 42 12
Width: 551
Flags: W
LayerCount: 2
Fore
SplineSet
322 760 m 1,0,-1
 302 568 l 1,1,-1
 494 622 l 1,2,-1
 508 530 l 1,3,-1
 324 515 l 1,4,-1
 443 357 l 1,5,-1
 357 310 l 1,6,-1
 272 485 l 1,7,-1
 195 310 l 1,8,-1
 106 357 l 1,9,-1
 223 515 l 1,10,-1
 41 530 l 1,11,-1
 55 622 l 1,12,-1
 245 568 l 1,13,-1
 224 760 l 1,14,-1
 322 760 l 1,0,-1
EndSplineSet
EndChar

StartChar: plus
Encoding: 43 43 13
Width: 572
Flags: W
LayerCount: 2
Fore
SplineSet
321 388 m 1,0,-1
 520 388 l 1,1,-1
 520 317 l 1,2,-1
 321 317 l 1,3,-1
 321 111 l 1,4,-1
 249 111 l 1,5,-1
 249 317 l 1,6,-1
 50 317 l 1,7,-1
 50 388 l 1,8,-1
 249 388 l 1,9,-1
 249 595 l 1,10,-1
 321 595 l 1,11,-1
 321 388 l 1,0,-1
EndSplineSet
Substitution2: "'sups' Superscript lookup 25 subtable" uni207A
Substitution2: "'sinf' Scientific Inferiors lookup 24 subtable" uni208A
Substitution2: "'subs' Subscript lookup 23 subtable" uni208A
AlternateSubs2: "'aalt' Access All Alternates lookup 1 subtable" uni208A uni207A
EndChar

StartChar: comma
Encoding: 44 44 14
Width: 268
Flags: W
LayerCount: 2
Fore
SplineSet
192 105 m 1,0,1
 183 70 183 70 169 29 c 128,-1,2
 155 -12 155 -12 138.5 -52.5 c 128,-1,3
 122 -93 122 -93 106 -129 c 1,4,-1
 41 -129 l 1,5,6
 51 -91 51 -91 60.5 -47.5 c 128,-1,7
 70 -4 70 -4 78 38.5 c 128,-1,8
 86 81 86 81 91 116 c 1,9,-1
 185 116 l 1,10,-1
 192 105 l 1,0,1
EndSplineSet
EndChar

StartChar: hyphen
Encoding: 45 45 15
Width: 322
Flags: W
LayerCount: 2
Fore
SplineSet
40 229 m 1,0,-1
 40 307 l 1,1,-1
 282 307 l 1,2,-1
 282 229 l 1,3,-1
 40 229 l 1,0,-1
EndSplineSet
EndChar

StartChar: period
Encoding: 46 46 16
Width: 268
Flags: W
LayerCount: 2
Fore
SplineSet
72 54 m 0,0,1
 72 91 72 91 90 106 c 128,-1,2
 108 121 108 121 133 121 c 0,3,4
 159 121 159 121 177.5 106 c 128,-1,5
 196 91 196 91 196 54 c 0,6,7
 196 18 196 18 177.5 2 c 128,-1,8
 159 -14 159 -14 133 -14 c 0,9,10
 108 -14 108 -14 90 2 c 128,-1,11
 72 18 72 18 72 54 c 0,0,1
EndSplineSet
EndChar

StartChar: slash
Encoding: 47 47 17
Width: 372
Flags: W
LayerCount: 2
Fore
SplineSet
362 714 m 1,0,-1
 96 0 l 1,1,-1
 10 0 l 1,2,-1
 276 714 l 1,3,-1
 362 714 l 1,0,-1
EndSplineSet
Substitution2: "'frac' Diagonal Fractions lookup 28 subtable" fraction
Substitution2: "'aalt' Access All Alternates lookup 0 subtable" fraction
EndChar

StartChar: zero
Encoding: 48 48 18
Width: 572
Flags: W
LayerCount: 2
Fore
SplineSet
523 358 m 0,0,1
 523 271 523 271 510 203 c 128,-1,2
 497 135 497 135 468.5 87.5 c 128,-1,3
 440 40 440 40 394.5 15 c 128,-1,4
 349 -10 349 -10 285 -10 c 0,5,6
 205 -10 205 -10 152.5 34 c 128,-1,7
 100 78 100 78 74.5 160.5 c 128,-1,8
 49 243 49 243 49 358 c 0,9,10
 49 474 49 474 72.5 556 c 128,-1,11
 96 638 96 638 148 681.5 c 128,-1,12
 200 725 200 725 285 725 c 0,13,14
 365 725 365 725 418 681.5 c 128,-1,15
 471 638 471 638 497 556 c 128,-1,16
 523 474 523 474 523 358 c 0,0,1
137 358 m 256,17,18
 137 260 137 260 151.5 195 c 128,-1,19
 166 130 166 130 198.5 97.5 c 128,-1,20
 231 65 231 65 285 65 c 256,21,22
 339 65 339 65 371.5 97 c 128,-1,23
 404 129 404 129 419 194.5 c 128,-1,24
 434 260 434 260 434 358 c 256,25,26
 434 456 434 456 419 520.5 c 128,-1,27
 404 585 404 585 371.5 617.5 c 128,-1,28
 339 650 339 650 285 650 c 256,29,30
 231 650 231 650 198.5 617.5 c 128,-1,31
 166 585 166 585 151.5 520.5 c 128,-1,32
 137 456 137 456 137 358 c 256,17,18
EndSplineSet
Substitution2: "'zero' Slashed Zero lookup 43 subtable" zero.slash
Substitution2: "'case' Case-Sensitive Forms lookup 40 subtable" zero.lf
Substitution2: "'onum' Oldstyle Figures lookup 37 subtable" zero.tosf
Substitution2: "'pnum' Proportional Numbers lookup 35 subtable" zero.lf
Substitution2: "'frac' Diagonal Fractions lookup 29 subtable" zero.numr
Substitution2: "'dnom' Denominators lookup 27 subtable" zero.dnom
Substitution2: "'numr' Numerators lookup 26 subtable" zero.numr
Substitution2: "'sups' Superscript lookup 25 subtable" uni2070
Substitution2: "'sinf' Scientific Inferiors lookup 24 subtable" uni2080
Substitution2: "'subs' Subscript lookup 23 subtable" uni2080
AlternateSubs2: "'aalt' Access All Alternates lookup 1 subtable" uni2070 zero.tosf zero.lf zero.slash uni2080 zero.dnom zero.numr
EndChar

StartChar: one
Encoding: 49 49 19
Width: 572
Flags: W
LayerCount: 2
Fore
SplineSet
355 0 m 1,0,-1
 269 0 l 1,1,-1
 269 499 l 2,2,3
 269 528 269 528 269.5 548 c 128,-1,4
 270 568 270 568 271 585.5 c 128,-1,5
 272 603 272 603 273 622 c 1,6,7
 257 606 257 606 244 595 c 128,-1,8
 231 584 231 584 211 567 c 2,9,-1
 135 505 l 1,10,-1
 89 564 l 1,11,-1
 282 714 l 1,12,-1
 355 714 l 1,13,-1
 355 0 l 1,0,-1
EndSplineSet
Substitution2: "'case' Case-Sensitive Forms lookup 40 subtable" one.lf
Substitution2: "'onum' Oldstyle Figures lookup 37 subtable" one.tosf
Substitution2: "'pnum' Proportional Numbers lookup 35 subtable" one.lf
Substitution2: "'frac' Diagonal Fractions lookup 29 subtable" one.numr
Substitution2: "'dnom' Denominators lookup 27 subtable" one.dnom
Substitution2: "'numr' Numerators lookup 26 subtable" one.numr
Substitution2: "'sups' Superscript lookup 25 subtable" uni00B9
Substitution2: "'sinf' Scientific Inferiors lookup 24 subtable" uni2081
Substitution2: "'subs' Subscript lookup 23 subtable" uni2081
AlternateSubs2: "'aalt' Access All Alternates lookup 1 subtable" uni00B9 one.tosf one.lf uni2081 one.dnom one.numr
EndChar

StartChar: two
Encoding: 50 50 20
Width: 572
Flags: W
LayerCount: 2
Fore
SplineSet
520 0 m 1,0,-1
 48 0 l 1,1,-1
 48 73 l 1,2,-1
 235 262 l 2,3,4
 289 316 289 316 326 358 c 128,-1,5
 363 400 363 400 382 440.5 c 128,-1,6
 401 481 401 481 401 529 c 0,7,8
 401 588 401 588 366 618.5 c 128,-1,9
 331 649 331 649 275 649 c 0,10,11
 223 649 223 649 183.5 631 c 128,-1,12
 144 613 144 613 103 581 c 1,13,-1
 56 640 l 1,14,15
 84 664 84 664 117.5 683 c 128,-1,16
 151 702 151 702 190.5 713 c 128,-1,17
 230 724 230 724 275 724 c 0,18,19
 342 724 342 724 390 701 c 128,-1,20
 438 678 438 678 464.5 635.5 c 128,-1,21
 491 593 491 593 491 534 c 0,22,23
 491 478 491 478 468 429 c 128,-1,24
 445 380 445 380 404 332.5 c 128,-1,25
 363 285 363 285 308 231 c 2,26,-1
 159 84 l 1,27,-1
 159 80 l 1,28,-1
 520 80 l 1,29,-1
 520 0 l 1,0,-1
EndSplineSet
Substitution2: "'case' Case-Sensitive Forms lookup 40 subtable" two.lf
Substitution2: "'onum' Oldstyle Figures lookup 37 subtable" two.tosf
Substitution2: "'pnum' Proportional Numbers lookup 35 subtable" two.lf
Substitution2: "'frac' Diagonal Fractions lookup 29 subtable" two.numr
Substitution2: "'dnom' Denominators lookup 27 subtable" two.dnom
Substitution2: "'numr' Numerators lookup 26 subtable" two.numr
Substitution2: "'sups' Superscript lookup 25 subtable" uni00B2
Substitution2: "'sinf' Scientific Inferiors lookup 24 subtable" uni2082
Substitution2: "'subs' Subscript lookup 23 subtable" uni2082
AlternateSubs2: "'aalt' Access All Alternates lookup 1 subtable" uni00B2 two.tosf two.lf uni2082 two.dnom two.numr
EndChar

StartChar: three
Encoding: 51 51 21
Width: 572
Flags: W
LayerCount: 2
Fore
SplineSet
493 547 m 0,0,1
 493 499 493 499 475 464 c 128,-1,2
 457 429 457 429 423.5 407 c 128,-1,3
 390 385 390 385 345 376 c 1,4,-1
 345 372 l 1,5,6
 431 362 431 362 473 318 c 128,-1,7
 515 274 515 274 515 203 c 0,8,9
 515 141 515 141 486 92.5 c 128,-1,10
 457 44 457 44 396.5 17 c 128,-1,11
 336 -10 336 -10 241 -10 c 0,12,13
 185 -10 185 -10 137 -1.5 c 128,-1,14
 89 7 89 7 45 29 c 1,15,-1
 45 111 l 1,16,17
 90 89 90 89 142 76.5 c 128,-1,18
 194 64 194 64 242 64 c 0,19,20
 338 64 338 64 380.5 101.5 c 128,-1,21
 423 139 423 139 423 205 c 0,22,23
 423 250 423 250 399.5 277.5 c 128,-1,24
 376 305 376 305 331 318 c 128,-1,25
 286 331 286 331 223 331 c 2,26,-1
 154 331 l 1,27,-1
 154 406 l 1,28,-1
 224 406 l 2,29,30
 283 406 283 406 322.5 423 c 128,-1,31
 362 440 362 440 382.5 470.5 c 128,-1,32
 403 501 403 501 403 541 c 0,33,34
 403 593 403 593 368 621.5 c 128,-1,35
 333 650 333 650 273 650 c 0,36,37
 235 650 235 650 204 642.5 c 128,-1,38
 173 635 173 635 146.5 621.5 c 128,-1,39
 120 608 120 608 93 590 c 1,40,-1
 49 650 l 1,41,42
 87 680 87 680 143.5 702 c 128,-1,43
 200 724 200 724 272 724 c 0,44,45
 384 724 384 724 438.5 674 c 128,-1,46
 493 624 493 624 493 547 c 0,0,1
EndSplineSet
Substitution2: "'case' Case-Sensitive Forms lookup 40 subtable" three.lf
Substitution2: "'onum' Oldstyle Figures lookup 37 subtable" three.tosf
Substitution2: "'pnum' Proportional Numbers lookup 35 subtable" three.lf
Substitution2: "'frac' Diagonal Fractions lookup 29 subtable" three.numr
Substitution2: "'dnom' Denominators lookup 27 subtable" three.dnom
Substitution2: "'numr' Numerators lookup 26 subtable" three.numr
Substitution2: "'sups' Superscript lookup 25 subtable" uni00B3
Substitution2: "'sinf' Scientific Inferiors lookup 24 subtable" uni2083
Substitution2: "'subs' Subscript lookup 23 subtable" uni2083
AlternateSubs2: "'aalt' Access All Alternates lookup 1 subtable" uni00B3 three.tosf three.lf uni2083 three.dnom three.numr
EndChar

StartChar: four
Encoding: 52 52 22
Width: 572
Flags: W
LayerCount: 2
Fore
SplineSet
552 162 m 1,0,-1
 448 162 l 1,1,-1
 448 0 l 1,2,-1
 363 0 l 1,3,-1
 363 162 l 1,4,-1
 21 162 l 1,5,-1
 21 237 l 1,6,-1
 357 718 l 1,7,-1
 448 718 l 1,8,-1
 448 241 l 1,9,-1
 552 241 l 1,10,-1
 552 162 l 1,0,-1
363 466 m 2,11,12
 363 492 363 492 363.5 513.5 c 128,-1,13
 364 535 364 535 365 554 c 128,-1,14
 366 573 366 573 366.5 590.5 c 128,-1,15
 367 608 367 608 368 624 c 1,16,-1
 364 624 l 1,17,18
 356 605 356 605 344 583 c 128,-1,19
 332 561 332 561 321 546 c 2,20,-1
 107 241 l 1,21,-1
 363 241 l 1,22,-1
 363 466 l 2,11,12
EndSplineSet
Substitution2: "'case' Case-Sensitive Forms lookup 40 subtable" four.lf
Substitution2: "'onum' Oldstyle Figures lookup 37 subtable" four.tosf
Substitution2: "'pnum' Proportional Numbers lookup 35 subtable" four.lf
Substitution2: "'frac' Diagonal Fractions lookup 29 subtable" four.numr
Substitution2: "'dnom' Denominators lookup 27 subtable" four.dnom
Substitution2: "'numr' Numerators lookup 26 subtable" four.numr
Substitution2: "'sups' Superscript lookup 25 subtable" uni2074
Substitution2: "'sinf' Scientific Inferiors lookup 24 subtable" uni2084
Substitution2: "'subs' Subscript lookup 23 subtable" uni2084
AlternateSubs2: "'aalt' Access All Alternates lookup 1 subtable" uni2074 four.tosf four.lf uni2084 four.dnom four.numr
EndChar

StartChar: five
Encoding: 53 53 23
Width: 572
Flags: W
LayerCount: 2
Fore
SplineSet
275 438 m 0,0,1
 348 438 348 438 402 413 c 128,-1,2
 456 388 456 388 485.5 341.5 c 128,-1,3
 515 295 515 295 515 228 c 0,4,5
 515 154 515 154 483 100.5 c 128,-1,6
 451 47 451 47 391.5 18.5 c 128,-1,7
 332 -10 332 -10 248 -10 c 0,8,9
 193 -10 193 -10 144.5 0 c 128,-1,10
 96 10 96 10 63 29 c 1,11,-1
 63 112 l 1,12,13
 99 90 99 90 150.5 77.5 c 128,-1,14
 202 65 202 65 249 65 c 0,15,16
 302 65 302 65 341.5 81.5 c 128,-1,17
 381 98 381 98 403 132.5 c 128,-1,18
 425 167 425 167 425 219 c 0,19,20
 425 289 425 289 382 326.5 c 128,-1,21
 339 364 339 364 246 364 c 0,22,23
 218 364 218 364 182 359 c 128,-1,24
 146 354 146 354 124 349 c 1,25,-1
 80 377 l 1,26,-1
 107 714 l 1,27,-1
 465 714 l 1,28,-1
 465 634 l 1,29,-1
 182 634 l 1,30,-1
 165 427 l 1,31,32
 182 430 182 430 211 434 c 128,-1,33
 240 438 240 438 275 438 c 0,0,1
EndSplineSet
Substitution2: "'case' Case-Sensitive Forms lookup 40 subtable" five.lf
Substitution2: "'onum' Oldstyle Figures lookup 37 subtable" five.tosf
Substitution2: "'pnum' Proportional Numbers lookup 35 subtable" five.lf
Substitution2: "'frac' Diagonal Fractions lookup 29 subtable" five.numr
Substitution2: "'dnom' Denominators lookup 27 subtable" five.dnom
Substitution2: "'numr' Numerators lookup 26 subtable" five.numr
Substitution2: "'sups' Superscript lookup 25 subtable" uni2075
Substitution2: "'sinf' Scientific Inferiors lookup 24 subtable" uni2085
Substitution2: "'subs' Subscript lookup 23 subtable" uni2085
AlternateSubs2: "'aalt' Access All Alternates lookup 1 subtable" uni2075 five.tosf five.lf uni2085 five.dnom five.numr
EndChar

StartChar: six
Encoding: 54 54 24
Width: 572
Flags: W
LayerCount: 2
Fore
SplineSet
55 305 m 0,0,1
 55 367 55 367 63.5 427 c 128,-1,2
 72 487 72 487 93 540.5 c 128,-1,3
 114 594 114 594 151 635.5 c 128,-1,4
 188 677 188 677 244.5 700.5 c 128,-1,5
 301 724 301 724 382 724 c 0,6,7
 403 724 403 724 428.5 722 c 128,-1,8
 454 720 454 720 470 715 c 1,9,-1
 470 640 l 1,10,11
 452 646 452 646 429.5 649 c 128,-1,12
 407 652 407 652 384 652 c 0,13,14
 315 652 315 652 269 629 c 128,-1,15
 223 606 223 606 196.5 566 c 128,-1,16
 170 526 170 526 158 474 c 128,-1,17
 146 422 146 422 143 363 c 1,18,-1
 149 363 l 1,19,20
 164 387 164 387 187 406 c 128,-1,21
 210 425 210 425 242.5 436 c 128,-1,22
 275 447 275 447 318 447 c 0,23,24
 380 447 380 447 426.5 421.5 c 128,-1,25
 473 396 473 396 499 347.5 c 128,-1,26
 525 299 525 299 525 230 c 0,27,28
 525 156 525 156 497 102 c 128,-1,29
 469 48 469 48 418.5 19 c 128,-1,30
 368 -10 368 -10 298 -10 c 0,31,32
 247 -10 247 -10 203 9 c 128,-1,33
 159 28 159 28 125.5 67 c 128,-1,34
 92 106 92 106 73.5 165.5 c 128,-1,35
 55 225 55 225 55 305 c 0,0,1
297 64 m 0,36,37
 360 64 360 64 399 104.5 c 128,-1,38
 438 145 438 145 438 230 c 0,39,40
 438 298 438 298 403.5 338 c 128,-1,41
 369 378 369 378 300 378 c 0,42,43
 253 378 253 378 218 358.5 c 128,-1,44
 183 339 183 339 163.5 309 c 128,-1,45
 144 279 144 279 144 247 c 0,46,47
 144 214 144 214 153.5 182 c 128,-1,48
 163 150 163 150 182.5 123 c 128,-1,49
 202 96 202 96 230.5 80 c 128,-1,50
 259 64 259 64 297 64 c 0,36,37
EndSplineSet
Substitution2: "'case' Case-Sensitive Forms lookup 40 subtable" six.lf
Substitution2: "'onum' Oldstyle Figures lookup 37 subtable" six.tosf
Substitution2: "'pnum' Proportional Numbers lookup 35 subtable" six.lf
Substitution2: "'frac' Diagonal Fractions lookup 29 subtable" six.numr
Substitution2: "'dnom' Denominators lookup 27 subtable" six.dnom
Substitution2: "'numr' Numerators lookup 26 subtable" six.numr
Substitution2: "'sups' Superscript lookup 25 subtable" uni2076
Substitution2: "'sinf' Scientific Inferiors lookup 24 subtable" uni2086
Substitution2: "'subs' Subscript lookup 23 subtable" uni2086
AlternateSubs2: "'aalt' Access All Alternates lookup 1 subtable" uni2076 six.tosf six.lf uni2086 six.dnom six.numr
EndChar

StartChar: seven
Encoding: 55 55 25
Width: 572
Flags: W
LayerCount: 2
Fore
SplineSet
136 0 m 1,0,-1
 429 634 l 1,1,-1
 44 634 l 1,2,-1
 44 714 l 1,3,-1
 523 714 l 1,4,-1
 523 646 l 1,5,-1
 233 0 l 1,6,-1
 136 0 l 1,0,-1
EndSplineSet
Substitution2: "'case' Case-Sensitive Forms lookup 40 subtable" seven.lf
Substitution2: "'onum' Oldstyle Figures lookup 37 subtable" seven.tosf
Substitution2: "'pnum' Proportional Numbers lookup 35 subtable" seven.lf
Substitution2: "'frac' Diagonal Fractions lookup 29 subtable" seven.numr
Substitution2: "'dnom' Denominators lookup 27 subtable" seven.dnom
Substitution2: "'numr' Numerators lookup 26 subtable" seven.numr
Substitution2: "'sups' Superscript lookup 25 subtable" uni2077
Substitution2: "'sinf' Scientific Inferiors lookup 24 subtable" uni2087
Substitution2: "'subs' Subscript lookup 23 subtable" uni2087
AlternateSubs2: "'aalt' Access All Alternates lookup 1 subtable" uni2077 seven.tosf seven.lf uni2087 seven.dnom seven.numr
EndChar

StartChar: eight
Encoding: 56 56 26
Width: 572
Flags: W
LayerCount: 2
Fore
SplineSet
285 724 m 0,0,1
 348 724 348 724 396 704.5 c 128,-1,2
 444 685 444 685 471.5 647 c 128,-1,3
 499 609 499 609 499 553 c 0,4,5
 499 510 499 510 480.5 478 c 128,-1,6
 462 446 462 446 431 421.5 c 128,-1,7
 400 397 400 397 363 378 c 1,8,9
 407 357 407 357 443 330.5 c 128,-1,10
 479 304 479 304 500.5 269 c 128,-1,11
 522 234 522 234 522 185 c 0,12,13
 522 125 522 125 493 81.5 c 128,-1,14
 464 38 464 38 411.5 14 c 128,-1,15
 359 -10 359 -10 288 -10 c 0,16,17
 211 -10 211 -10 157.5 13 c 128,-1,18
 104 36 104 36 76.5 78.5 c 128,-1,19
 49 121 49 121 49 182 c 0,20,21
 49 231 49 231 69.5 267 c 128,-1,22
 90 303 90 303 124 329 c 128,-1,23
 158 355 158 355 197 373 c 1,24,25
 162 393 162 393 133.5 418.5 c 128,-1,26
 105 444 105 444 88.5 477 c 128,-1,27
 72 510 72 510 72 554 c 0,28,29
 72 609 72 609 100 646.5 c 128,-1,30
 128 684 128 684 176 704 c 128,-1,31
 224 724 224 724 285 724 c 0,0,1
135 181 m 0,32,33
 135 129 135 129 172 94.5 c 128,-1,34
 209 60 209 60 286 60 c 0,35,36
 359 60 359 60 397.5 94.5 c 128,-1,37
 436 129 436 129 436 184 c 0,38,39
 436 219 436 219 417.5 245.5 c 128,-1,40
 399 272 399 272 365.5 293 c 128,-1,41
 332 314 332 314 286 331 c 2,42,-1
 270 337 l 1,43,44
 226 318 226 318 196 296 c 128,-1,45
 166 274 166 274 150.5 246 c 128,-1,46
 135 218 135 218 135 181 c 0,32,33
284 653 m 0,47,48
 229 653 229 653 193.5 626.5 c 128,-1,49
 158 600 158 600 158 550 c 0,50,51
 158 513 158 513 175.5 488 c 128,-1,52
 193 463 193 463 223 445.5 c 128,-1,53
 253 428 253 428 289 412 c 1,54,55
 324 427 324 427 351.5 445 c 128,-1,56
 379 463 379 463 395.5 488.5 c 128,-1,57
 412 514 412 514 412 550 c 0,58,59
 412 600 412 600 377 626.5 c 128,-1,60
 342 653 342 653 284 653 c 0,47,48
EndSplineSet
Substitution2: "'case' Case-Sensitive Forms lookup 40 subtable" eight.lf
Substitution2: "'onum' Oldstyle Figures lookup 37 subtable" eight.tosf
Substitution2: "'pnum' Proportional Numbers lookup 35 subtable" eight.lf
Substitution2: "'frac' Diagonal Fractions lookup 29 subtable" eight.numr
Substitution2: "'dnom' Denominators lookup 27 subtable" eight.dnom
Substitution2: "'numr' Numerators lookup 26 subtable" eight.numr
Substitution2: "'sups' Superscript lookup 25 subtable" uni2078
Substitution2: "'sinf' Scientific Inferiors lookup 24 subtable" uni2088
Substitution2: "'subs' Subscript lookup 23 subtable" uni2088
AlternateSubs2: "'aalt' Access All Alternates lookup 1 subtable" uni2078 eight.tosf eight.lf uni2088 eight.dnom eight.numr
EndChar

StartChar: nine
Encoding: 57 57 27
Width: 572
Flags: W
LayerCount: 2
Fore
SplineSet
520 409 m 0,0,1
 520 348 520 348 511.5 287.5 c 128,-1,2
 503 227 503 227 482 173.5 c 128,-1,3
 461 120 461 120 424 78.5 c 128,-1,4
 387 37 387 37 330 13.5 c 128,-1,5
 273 -10 273 -10 192 -10 c 0,6,7
 172 -10 172 -10 145.5 -7.5 c 128,-1,8
 119 -5 119 -5 102 0 c 1,9,-1
 102 75 l 1,10,11
 120 69 120 69 144 65.5 c 128,-1,12
 168 62 168 62 190 62 c 0,13,14
 260 62 260 62 305.5 85 c 128,-1,15
 351 108 351 108 378 147.5 c 128,-1,16
 405 187 405 187 417 239.5 c 128,-1,17
 429 292 429 292 431 350 c 1,18,-1
 425 350 l 1,19,20
 410 327 410 327 387 308 c 128,-1,21
 364 289 364 289 331.5 278 c 128,-1,22
 299 267 299 267 255 267 c 0,23,24
 194 267 194 267 147.5 292.5 c 128,-1,25
 101 318 101 318 75.5 366 c 128,-1,26
 50 414 50 414 50 483 c 0,27,28
 50 558 50 558 78.5 612 c 128,-1,29
 107 666 107 666 158 695 c 128,-1,30
 209 724 209 724 278 724 c 0,31,32
 329 724 329 724 373 704.5 c 128,-1,33
 417 685 417 685 450 646 c 128,-1,34
 483 607 483 607 501.5 548 c 128,-1,35
 520 489 520 489 520 409 c 0,0,1
278 650 m 0,36,37
 216 650 216 650 176.5 609 c 128,-1,38
 137 568 137 568 137 484 c 0,39,40
 137 415 137 415 170.5 375.5 c 128,-1,41
 204 336 204 336 274 336 c 0,42,43
 322 336 322 336 357 355.5 c 128,-1,44
 392 375 392 375 411.5 405 c 128,-1,45
 431 435 431 435 431 467 c 256,46,47
 431 499 431 499 421.5 531.5 c 128,-1,48
 412 564 412 564 393 591 c 128,-1,49
 374 618 374 618 345 634 c 128,-1,50
 316 650 316 650 278 650 c 0,36,37
EndSplineSet
Substitution2: "'case' Case-Sensitive Forms lookup 40 subtable" nine.lf
Substitution2: "'onum' Oldstyle Figures lookup 37 subtable" nine.tosf
Substitution2: "'pnum' Proportional Numbers lookup 35 subtable" nine.lf
Substitution2: "'frac' Diagonal Fractions lookup 29 subtable" nine.numr
Substitution2: "'dnom' Denominators lookup 27 subtable" nine.dnom
Substitution2: "'numr' Numerators lookup 26 subtable" nine.numr
Substitution2: "'sups' Superscript lookup 25 subtable" uni2079
Substitution2: "'sinf' Scientific Inferiors lookup 24 subtable" uni2089
Substitution2: "'subs' Subscript lookup 23 subtable" uni2089
AlternateSubs2: "'aalt' Access All Alternates lookup 1 subtable" uni2079 nine.tosf nine.lf uni2089 nine.dnom nine.numr
EndChar

StartChar: colon
Encoding: 58 58 28
Width: 268
Flags: W
LayerCount: 2
Fore
SplineSet
72 54 m 0,0,1
 72 91 72 91 90 106 c 128,-1,2
 108 121 108 121 133 121 c 0,3,4
 159 121 159 121 177.5 106 c 128,-1,5
 196 91 196 91 196 54 c 0,6,7
 196 18 196 18 177.5 2 c 128,-1,8
 159 -14 159 -14 133 -14 c 0,9,10
 108 -14 108 -14 90 2 c 128,-1,11
 72 18 72 18 72 54 c 0,0,1
72 482 m 0,12,13
 72 520 72 520 90 535 c 128,-1,14
 108 550 108 550 133 550 c 0,15,16
 159 550 159 550 177.5 535 c 128,-1,17
 196 520 196 520 196 482 c 0,18,19
 196 446 196 446 177.5 430 c 128,-1,20
 159 414 159 414 133 414 c 0,21,22
 108 414 108 414 90 430 c 128,-1,23
 72 446 72 446 72 482 c 0,12,13
EndSplineSet
EndChar

StartChar: semicolon
Encoding: 59 59 29
Width: 268
Flags: W
LayerCount: 2
Fore
SplineSet
183 105 m 1,0,1
 174 70 174 70 160 29 c 128,-1,2
 146 -12 146 -12 129.5 -52.5 c 128,-1,3
 113 -93 113 -93 97 -129 c 1,4,-1
 31 -129 l 1,5,6
 38 -101 38 -101 45.5 -69 c 128,-1,7
 53 -37 53 -37 60 -4.5 c 128,-1,8
 67 28 67 28 72.5 59 c 128,-1,9
 78 90 78 90 82 116 c 1,10,-1
 176 116 l 1,11,-1
 183 105 l 1,0,1
70 482 m 0,12,13
 70 520 70 520 88 535 c 128,-1,14
 106 550 106 550 131 550 c 0,15,16
 157 550 157 550 175.5 535 c 128,-1,17
 194 520 194 520 194 482 c 0,18,19
 194 446 194 446 175.5 430 c 128,-1,20
 157 414 157 414 131 414 c 0,21,22
 106 414 106 414 88 430 c 128,-1,23
 70 446 70 446 70 482 c 0,12,13
EndSplineSet
EndChar

StartChar: less
Encoding: 60 60 30
Width: 572
Flags: W
LayerCount: 2
Fore
SplineSet
521 116 m 1,0,-1
 50 323 l 1,1,-1
 50 373 l 1,2,-1
 521 608 l 1,3,-1
 521 530 l 1,4,-1
 144 352 l 1,5,-1
 521 194 l 1,6,-1
 521 116 l 1,0,-1
EndSplineSet
EndChar

StartChar: equal
Encoding: 61 61 31
Width: 572
Flags: W
LayerCount: 2
Fore
SplineSet
56 416 m 1,0,-1
 56 487 l 1,1,-1
 514 487 l 1,2,-1
 514 416 l 1,3,-1
 56 416 l 1,0,-1
56 217 m 1,4,-1
 56 288 l 1,5,-1
 514 288 l 1,6,-1
 514 217 l 1,7,-1
 56 217 l 1,4,-1
EndSplineSet
Substitution2: "'sups' Superscript lookup 25 subtable" uni207C
Substitution2: "'sinf' Scientific Inferiors lookup 24 subtable" uni208C
Substitution2: "'subs' Subscript lookup 23 subtable" uni208C
AlternateSubs2: "'aalt' Access All Alternates lookup 1 subtable" uni208C uni207C
EndChar

StartChar: greater
Encoding: 62 62 32
Width: 572
Flags: W
LayerCount: 2
Fore
SplineSet
50 194 m 1,0,-1
 427 351 l 1,1,-1
 50 530 l 1,2,-1
 50 608 l 1,3,-1
 521 373 l 1,4,-1
 521 323 l 1,5,-1
 50 116 l 1,6,-1
 50 194 l 1,0,-1
EndSplineSet
EndChar

StartChar: question
Encoding: 63 63 33
Width: 434
Flags: W
LayerCount: 2
Fore
SplineSet
140 228 m 2,0,1
 140 266 140 266 147.5 293.5 c 128,-1,2
 155 321 155 321 173.5 346 c 128,-1,3
 192 371 192 371 224 398 c 0,4,5
 263 431 263 431 284.5 453 c 128,-1,6
 306 475 306 475 315 496 c 128,-1,7
 324 517 324 517 324 547 c 0,8,9
 324 595 324 595 293 621 c 128,-1,10
 262 647 262 647 203 647 c 0,11,12
 154 647 154 647 116 634.5 c 128,-1,13
 78 622 78 622 43 605 c 1,14,-1
 12 675 l 1,15,16
 52 696 52 696 100.5 710 c 128,-1,17
 149 724 149 724 209 724 c 0,18,19
 304 724 304 724 356 677 c 128,-1,20
 408 630 408 630 408 549 c 0,21,22
 408 504 408 504 393.5 472.5 c 128,-1,23
 379 441 379 441 352.5 414.5 c 128,-1,24
 326 388 326 388 290 358 c 0,25,26
 257 330 257 330 239.5 309 c 128,-1,27
 222 288 222 288 216 267.5 c 128,-1,28
 210 247 210 247 210 218 c 2,29,-1
 210 201 l 1,30,-1
 140 201 l 1,31,-1
 140 228 l 2,0,1
117 54 m 0,32,33
 117 91 117 91 134.5 106 c 128,-1,34
 152 121 152 121 179 121 c 0,35,36
 204 121 204 121 222 106 c 128,-1,37
 240 91 240 91 240 54 c 0,38,39
 240 18 240 18 222 2 c 128,-1,40
 204 -14 204 -14 179 -14 c 0,41,42
 152 -14 152 -14 134.5 2 c 128,-1,43
 117 18 117 18 117 54 c 0,32,33
EndSplineSet
Substitution2: "'smcp' Lowercase to Small Capitals lookup 39 subtable" question.sc
Substitution2: "'c2sc' Capitals to Small Capitals lookup 38 subtable" question.sc
Substitution2: "'aalt' Access All Alternates lookup 0 subtable" question.sc
EndChar

StartChar: at
Encoding: 64 64 34
Width: 899
Flags: W
LayerCount: 2
Fore
SplineSet
841 357 m 0,0,1
 841 311 841 311 830.5 267 c 128,-1,2
 820 223 820 223 798 187.5 c 128,-1,3
 776 152 776 152 744 130.5 c 128,-1,4
 712 109 712 109 668 109 c 0,5,6
 622 109 622 109 595.5 135.5 c 128,-1,7
 569 162 569 162 563 196 c 1,8,-1
 558 196 l 1,9,10
 540 159 540 159 505 134 c 128,-1,11
 470 109 470 109 417 109 c 0,12,13
 341 109 341 109 299.5 160 c 128,-1,14
 258 211 258 211 258 295 c 0,15,16
 258 361 258 361 284 411.5 c 128,-1,17
 310 462 310 462 357.5 491 c 128,-1,18
 405 520 405 520 470 520 c 0,19,20
 514 520 514 520 556.5 512.5 c 128,-1,21
 599 505 599 505 623 496 c 1,22,-1
 613 293 l 2,23,24
 612 275 612 275 612 267.5 c 128,-1,25
 612 260 612 260 612 257 c 0,26,27
 612 205 612 205 630.5 188 c 128,-1,28
 649 171 649 171 674 171 c 0,29,30
 705 171 705 171 726.5 196.5 c 128,-1,31
 748 222 748 222 759.5 264.5 c 128,-1,32
 771 307 771 307 771 358 c 0,33,34
 771 451 771 451 733.5 515.5 c 128,-1,35
 696 580 696 580 630.5 614 c 128,-1,36
 565 648 565 648 482 648 c 0,37,38
 397 648 397 648 331 621 c 128,-1,39
 265 594 265 594 220.5 545 c 128,-1,40
 176 496 176 496 153 429.5 c 128,-1,41
 130 363 130 363 130 283 c 0,42,43
 130 185 130 185 165 116.5 c 128,-1,44
 200 48 200 48 267.5 12.5 c 128,-1,45
 335 -23 335 -23 433 -23 c 0,46,47
 494 -23 494 -23 549.5 -9.5 c 128,-1,48
 605 4 605 4 648 20 c 1,49,-1
 648 -48 l 1,50,51
 605 -66 605 -66 551.5 -77.5 c 128,-1,52
 498 -89 498 -89 433 -89 c 0,53,54
 315 -89 315 -89 231 -45 c 128,-1,55
 147 -1 147 -1 102.5 81.5 c 128,-1,56
 58 164 58 164 58 280 c 0,57,58
 58 373 58 373 87 452.5 c 128,-1,59
 116 532 116 532 171 590.5 c 128,-1,60
 226 649 226 649 304.5 681.5 c 128,-1,61
 383 714 383 714 482 714 c 0,62,63
 560 714 560 714 625.5 689.5 c 128,-1,64
 691 665 691 665 739.5 618.5 c 128,-1,65
 788 572 788 572 814.5 506 c 128,-1,66
 841 440 841 440 841 357 c 0,0,1
336 293 m 0,67,68
 336 229 336 229 361.5 200 c 128,-1,69
 387 171 387 171 430 171 c 0,70,71
 486 171 486 171 510.5 213 c 128,-1,72
 535 255 535 255 539 322 c 2,73,-1
 545 447 l 1,74,75
 532 451 532 451 512 454 c 128,-1,76
 492 457 492 457 471 457 c 0,77,78
 422 457 422 457 392 433 c 128,-1,79
 362 409 362 409 349 371.5 c 128,-1,80
 336 334 336 334 336 293 c 0,67,68
EndSplineSet
EndChar

StartChar: B
Encoding: 66 66 36
Width: 525
GlyphClass: 2
Flags: W
AnchorPoint: "Anchor-7" 277 286 basechar 0
AnchorPoint: "Anchor-6" 505 572 basechar 0
AnchorPoint: "Anchor-5" 263 0 basechar 0
AnchorPoint: "Anchor-4" 263 572 basechar 0
LayerCount: 2
Fore
SplineSet
250 572 m 2,0,1
 327 572 327 572 375 555.5 c 128,-1,2
 423 539 423 539 446 507 c 128,-1,3
 469 475 469 475 469 427 c 0,4,5
 469 393 469 393 455.5 367 c 128,-1,6
 442 341 442 341 417.5 324.5 c 128,-1,7
 393 308 393 308 360 302 c 1,8,-1
 360 299 l 1,9,10
 397 293 397 293 424 277.5 c 128,-1,11
 451 262 451 262 466 234.5 c 128,-1,12
 481 207 481 207 481 165 c 0,13,14
 481 83 481 83 423.5 41.5 c 128,-1,15
 366 0 366 0 271 0 c 2,16,-1
 74 0 l 1,17,-1
 74 572 l 1,18,-1
 250 572 l 2,0,1
258 328 m 2,19,20
 323 328 323 328 351 350.5 c 128,-1,21
 379 373 379 373 379 417 c 256,22,23
 379 461 379 461 347 482 c 128,-1,24
 315 503 315 503 250 503 c 2,25,-1
 161 503 l 1,26,-1
 161 328 l 1,27,-1
 258 328 l 2,19,20
267 69 m 2,28,29
 331 69 331 69 361.5 95 c 128,-1,30
 392 121 392 121 392 170 c 0,31,32
 392 214 392 214 360 239 c 128,-1,33
 328 264 328 264 260 264 c 2,34,-1
 161 264 l 1,35,-1
 161 69 l 1,36,-1
 267 69 l 2,28,29
EndSplineSet
Substitution2: "'c2sc' Capitals to Small Capitals lookup 38 subtable" b.sc
Substitution2: "'aalt' Access All Alternates lookup 0 subtable" b.sc
EndChar

StartChar: C
Encoding: 67 67 37
Width: 490
GlyphClass: 2
Flags: W
AnchorPoint: "Anchor-7" 251 268 basechar 0
AnchorPoint: "Anchor-6" 460 536 basechar 0
AnchorPoint: "Anchor-5" 281 0 basechar 0
AnchorPoint: "Anchor-4" 284 737 basechar 0
LayerCount: 2
Fore
SplineSet
285 737 m 0,0,1
 305 737 305 737 320.5 723.5 c 128,-1,2
 336 710 336 710 336 681 c 0,3,4
 336 653 336 653 320.5 639 c 128,-1,5
 305 625 305 625 285 625 c 0,6,7
 263 625 263 625 248 639 c 128,-1,8
 233 653 233 653 233 681 c 0,9,10
 233 710 233 710 248 723.5 c 128,-1,11
 263 737 263 737 285 737 c 0,0,1
301 -10 m 0,12,13
 183 -10 183 -10 118 57 c 128,-1,14
 53 124 53 124 53 245 c 0,15,16
 53 325 53 325 82 380.5 c 128,-1,17
 111 436 111 436 165 465 c 1,18,-1
 32 465 l 1,19,-1
 32 537 l 1,20,-1
 458 537 l 1,21,-1
 458 465 l 1,22,-1
 345 465 l 2,23,24
 251 465 251 465 197.5 411.5 c 128,-1,25
 144 358 144 358 144 252 c 0,26,27
 144 165 144 165 187 114.5 c 128,-1,28
 230 64 230 64 310 64 c 0,29,30
 347 64 347 64 381 73.5 c 128,-1,31
 415 83 415 83 447 99 c 1,32,-1
 447 21 l 1,33,34
 418 5 418 5 383 -2.5 c 128,-1,35
 348 -10 348 -10 301 -10 c 0,12,13
EndSplineSet
Substitution2: "'c2sc' Capitals to Small Capitals lookup 38 subtable" c.sc
Substitution2: "'aalt' Access All Alternates lookup 0 subtable" c.sc
EndChar

StartChar: D
Encoding: 68 68 38
Width: 582
GlyphClass: 2
Flags: W
AnchorPoint: "Anchor-7" 291 286 basechar 0
AnchorPoint: "Anchor-6" 562 572 basechar 0
AnchorPoint: "Anchor-5" 291 0 basechar 0
AnchorPoint: "Anchor-4" 291 572 basechar 0
LayerCount: 2
Fore
SplineSet
535 293 m 0,0,1
 535 196 535 196 499.5 131 c 128,-1,2
 464 66 464 66 396.5 33 c 128,-1,3
 329 0 329 0 233 0 c 2,4,-1
 74 0 l 1,5,-1
 74 572 l 1,6,-1
 248 572 l 2,7,8
 388 572 388 572 461.5 500.5 c 128,-1,9
 535 429 535 429 535 293 c 0,0,1
444 290 m 0,10,11
 444 394 444 394 393 446.5 c 128,-1,12
 342 499 342 499 244 499 c 2,13,-1
 161 499 l 1,14,-1
 161 73 l 1,15,-1
 233 73 l 2,16,17
 340 73 340 73 392 127 c 128,-1,18
 444 181 444 181 444 290 c 0,10,11
EndSplineSet
Substitution2: "'c2sc' Capitals to Small Capitals lookup 38 subtable" d.sc
Substitution2: "'aalt' Access All Alternates lookup 0 subtable" d.sc
EndChar

StartChar: E
Encoding: 69 69 39
Width: 447
GlyphClass: 2
Flags: W
AnchorPoint: "Anchor-7" 238 286 basechar 0
AnchorPoint: "Anchor-6" 427 572 basechar 0
AnchorPoint: "Anchor-5" 246 0 basechar 0
AnchorPoint: "Anchor-4" 241 572 basechar 0
LayerCount: 2
Fore
SplineSet
74 572 m 1,0,-1
 402 572 l 1,1,-1
 402 501 l 1,2,-1
 161 501 l 1,3,-1
 161 332 l 1,4,-1
 387 332 l 1,5,-1
 387 262 l 1,6,-1
 161 262 l 1,7,-1
 161 71 l 1,8,-1
 402 71 l 1,9,-1
 402 0 l 1,10,-1
 74 0 l 1,11,-1
 74 572 l 1,0,-1
EndSplineSet
Substitution2: "'c2sc' Capitals to Small Capitals lookup 38 subtable" e.sc
Substitution2: "'aalt' Access All Alternates lookup 0 subtable" e.sc
EndChar

StartChar: F
Encoding: 70 70 40
Width: 420
GlyphClass: 2
Flags: W
AnchorPoint: "Anchor-7" 237 286 basechar 0
AnchorPoint: "Anchor-6" 400 572 basechar 0
AnchorPoint: "Anchor-5" 210 0 basechar 0
AnchorPoint: "Anchor-4" 236 572 basechar 0
LayerCount: 2
Fore
SplineSet
74 572 m 1,0,-1
 401 572 l 1,1,-1
 401 501 l 1,2,-1
 161 501 l 1,3,-1
 161 309 l 1,4,-1
 386 309 l 1,5,-1
 386 238 l 1,6,-1
 161 238 l 1,7,-1
 161 0 l 1,8,-1
 74 0 l 1,9,-1
 74 572 l 1,0,-1
EndSplineSet
Substitution2: "'c2sc' Capitals to Small Capitals lookup 38 subtable" f.sc
Substitution2: "'aalt' Access All Alternates lookup 0 subtable" f.sc
EndChar

StartChar: G
Encoding: 71 71 41
Width: 592
GlyphClass: 2
Flags: W
AnchorPoint: "Anchor-7" 289 285 basechar 0
AnchorPoint: "Anchor-6" 572 572 basechar 0
AnchorPoint: "Anchor-5" 327 0 basechar 0
AnchorPoint: "Anchor-4" 321 572 basechar 0
LayerCount: 2
Fore
SplineSet
532 27 m 1,0,1
 489 11 489 11 437.5 1.5 c 128,-1,2
 386 -8 386 -8 329 -8 c 0,3,4
 240 -8 240 -8 177 25.5 c 128,-1,5
 114 59 114 59 80.5 124.5 c 128,-1,6
 47 190 47 190 47 285 c 0,7,8
 47 371 47 371 81 437 c 128,-1,9
 115 503 115 503 182 541 c 128,-1,10
 249 579 249 579 346 579 c 0,11,12
 396 579 396 579 441 570 c 128,-1,13
 486 561 486 561 523 544 c 1,14,-1
 493 473 l 1,15,16
 458 490 458 490 421.5 498 c 128,-1,17
 385 506 385 506 345 506 c 0,18,19
 278 506 278 506 231.5 478 c 128,-1,20
 185 450 185 450 161.5 400.5 c 128,-1,21
 138 351 138 351 138 286 c 0,22,23
 138 177 138 177 190 121 c 128,-1,24
 242 65 242 65 342 65 c 0,25,26
 371 65 371 65 399 69.5 c 128,-1,27
 427 74 427 74 448 81 c 1,28,-1
 448 235 l 1,29,-1
 304 235 l 1,30,-1
 304 306 l 1,31,-1
 532 306 l 1,32,-1
 532 27 l 1,0,1
EndSplineSet
Substitution2: "'c2sc' Capitals to Small Capitals lookup 38 subtable" g.sc
Substitution2: "'aalt' Access All Alternates lookup 0 subtable" g.sc
EndChar

StartChar: H
Encoding: 72 72 42
Width: 599
GlyphClass: 2
Flags: W
AnchorPoint: "Anchor-7" 300 286 basechar 0
AnchorPoint: "Anchor-6" 579 572 basechar 0
AnchorPoint: "Anchor-5" 300 0 basechar 0
AnchorPoint: "Anchor-4" 300 572 basechar 0
LayerCount: 2
Fore
SplineSet
524 572 m 1,0,-1
 524 0 l 1,1,-1
 437 0 l 1,2,-1
 437 261 l 1,3,-1
 161 261 l 1,4,-1
 161 0 l 1,5,-1
 74 0 l 1,6,-1
 74 572 l 5,7,-1
 161 572 l 1,8,-1
 161 334 l 1,9,-1
 437 334 l 1,10,-1
 437 572 l 1,11,-1
 524 572 l 1,0,-1
EndSplineSet
Substitution2: "'c2sc' Capitals to Small Capitals lookup 38 subtable" h.sc
Substitution2: "'aalt' Access All Alternates lookup 0 subtable" h.sc
EndChar

StartChar: I
Encoding: 73 73 43
Width: 291
GlyphClass: 2
Flags: W
AnchorPoint: "Anchor-7" 146 286 basechar 0
AnchorPoint: "Anchor-6" 271 572 basechar 0
AnchorPoint: "Anchor-5" 146 0 basechar 0
AnchorPoint: "Anchor-4" 146 572 basechar 0
LayerCount: 2
Fore
SplineSet
37 0 m 1,0,-1
 37 50 l 1,1,-1
 102 66 l 1,2,-1
 102 505 l 1,3,-1
 37 520 l 1,4,-1
 37 572 l 1,5,-1
 255 572 l 1,6,-1
 255 520 l 1,7,-1
 190 505 l 1,8,-1
 190 66 l 1,9,-1
 255 50 l 1,10,-1
 255 0 l 1,11,-1
 37 0 l 1,0,-1
EndSplineSet
Substitution2: "'ss04' Style Set 4 lookup 45 subtable" I.salt
Substitution2: "'c2sc' Capitals to Small Capitals lookup 38 subtable" i.sc
AlternateSubs2: "'aalt' Access All Alternates lookup 1 subtable" I.salt i.sc
EndChar

StartChar: J
Encoding: 74 74 44
Width: 413
GlyphClass: 2
Flags: W
AnchorPoint: "Anchor-7" 175 351 basechar 0
AnchorPoint: "Anchor-6" 393 714 basechar 0
AnchorPoint: "Anchor-5" 176 0 basechar 0
AnchorPoint: "Anchor-4" 277 714 basechar 0
LayerCount: 2
Fore
SplineSet
136 -11 m 0,0,1
 101 -11 101 -11 74.5 -4 c 128,-1,2
 48 3 48 3 28 14 c 1,3,-1
 28 90 l 1,4,5
 51 80 51 80 77.5 74 c 128,-1,6
 104 68 104 68 134 68 c 0,7,8
 159 68 159 68 181.5 78 c 128,-1,9
 204 88 204 88 218 113 c 128,-1,10
 232 138 232 138 232 183 c 2,11,-1
 232 572 l 5,12,-1
 322 572 l 5,13,-1
 322 190 l 2,14,15
 322 121 322 121 299 76.5 c 128,-1,16
 276 32 276 32 234 10.5 c 128,-1,17
 192 -11 192 -11 136 -11 c 0,0,1
EndSplineSet
Substitution2: "'ss04' Style Set 4 lookup 45 subtable" J.salt
Substitution2: "'c2sc' Capitals to Small Capitals lookup 38 subtable" j.sc
AlternateSubs2: "'aalt' Access All Alternates lookup 1 subtable" J.salt j.sc
EndChar

StartChar: K
Encoding: 75 75 45
Width: 531
GlyphClass: 2
Flags: W
AnchorPoint: "Anchor-7" 365 274 basechar 0
AnchorPoint: "Anchor-5" 265 0 basechar 0
AnchorPoint: "Anchor-4" 279 536 basechar 0
LayerCount: 2
Fore
SplineSet
458 299 m 1,0,-1
 262 493 l 1,1,-1
 306 536 l 1,2,-1
 500 343 l 1,3,-1
 458 299 l 1,0,-1
423 0 m 1,4,-1
 240 269 l 1,5,-1
 239 277 l 1,6,-1
 418 536 l 1,7,-1
 510 536 l 1,8,-1
 313 252 l 1,9,-1
 309 314 l 1,10,-1
 523 0 l 1,11,-1
 423 0 l 1,4,-1
85 0 m 1,12,-1
 85 536 l 1,13,-1
 173 536 l 1,14,-1
 173 0 l 1,15,-1
 85 0 l 1,12,-1
167 237 m 1,16,-1
 167 311 l 1,17,-1
 271 311 l 1,18,-1
 271 237 l 1,19,-1
 167 237 l 1,16,-1
EndSplineSet
Substitution2: "'c2sc' Capitals to Small Capitals lookup 38 subtable" k.sc
Substitution2: "'aalt' Access All Alternates lookup 0 subtable" k.sc
EndChar

StartChar: L
Encoding: 76 76 46
Width: 439
GlyphClass: 2
Flags: W
AnchorPoint: "Anchor-7" 220 286 basechar 0
AnchorPoint: "Anchor-6" 235 572 basechar 0
AnchorPoint: "Anchor-5" 243 0 basechar 0
AnchorPoint: "Anchor-4" 118 572 basechar 0
LayerCount: 2
Fore
SplineSet
161 572 m 1,0,-1
 161 73 l 1,1,-1
 416 73 l 1,2,-1
 416 0 l 1,3,-1
 74 0 l 1,4,-1
 74 572 l 1,5,-1
 161 572 l 1,0,-1
EndSplineSet
Substitution2: "'c2sc' Capitals to Small Capitals lookup 38 subtable" l.sc
Substitution2: "'aalt' Access All Alternates lookup 0 subtable" l.sc
EndChar

StartChar: M
Encoding: 77 77 47
Width: 736
GlyphClass: 2
Flags: W
AnchorPoint: "Anchor-7" 367 286 basechar 0
AnchorPoint: "Anchor-6" 716 572 basechar 0
AnchorPoint: "Anchor-5" 368 0 basechar 0
AnchorPoint: "Anchor-4" 368 572 basechar 0
LayerCount: 2
Fore
SplineSet
661 572 m 1,0,-1
 661 0 l 1,1,-1
 579 0 l 1,2,-1
 579 359 l 2,3,4
 579 379 579 379 579.5 403.5 c 128,-1,5
 580 428 580 428 581 449 c 128,-1,6
 582 470 582 470 583 480 c 1,7,-1
 580 480 l 1,8,-1
 404 0 l 1,9,-1
 328 0 l 1,10,-1
 152 481 l 1,11,-1
 149 481 l 1,12,13
 149 471 149 471 150 449.5 c 128,-1,14
 151 428 151 428 152 403 c 128,-1,15
 153 378 153 378 153 355 c 2,16,-1
 153 0 l 1,17,-1
 74 0 l 1,18,-1
 74 572 l 1,19,-1
 195 572 l 1,20,-1
 367 108 l 1,21,-1
 369 108 l 1,22,-1
 540 572 l 1,23,-1
 661 572 l 1,0,-1
EndSplineSet
Substitution2: "'c2sc' Capitals to Small Capitals lookup 38 subtable" m.sc
Substitution2: "'aalt' Access All Alternates lookup 0 subtable" m.sc
EndChar

StartChar: N
Encoding: 78 78 48
Width: 618
GlyphClass: 2
Flags: W
AnchorPoint: "Anchor-7" 311 273 basechar 0
AnchorPoint: "Anchor-6" 562 536 basechar 0
AnchorPoint: "Anchor-5" 309 0 basechar 0
AnchorPoint: "Anchor-4" 309 536 basechar 0
LayerCount: 2
Fore
SplineSet
285 737 m 0,0,1
 305 737 305 737 320.5 723.5 c 0,2,3
 336 710 336 710 336 681 c 0,4,5
 336 653 336 653 320.5 639 c 0,6,7
 305 625 305 625 285 625 c 0,8,9
 263 625 263 625 248 639 c 0,10,11
 233 653 233 653 233 681 c 0,12,13
 233 710 233 710 248 723.5 c 0,14,15
 263 737 263 737 285 737 c 0,0,1
343 546 m 0,16,17
 439 546 439 546 488 499.5 c 0,18,19
 537 453 537 453 537 349 c 2,20,-1
 537 0 l 1,21,-1
 450 0 l 1,22,-1
 450 343 l 2,23,24
 450 408 450 408 421 440 c 0,25,26
 392 472 392 472 330 472 c 0,27,28
 241 472 241 472 207 422 c 0,29,30
 173 372 173 372 173 278 c 2,31,-1
 173 0 l 1,32,-1
 85 0 l 1,33,-1
 85 536 l 1,34,-1
 156 536 l 1,35,-1
 169 463 l 1,36,-1
 174 463 l 1,37,38
 192 491 192 491 218.5 509.5 c 0,39,40
 245 528 245 528 277 537 c 0,41,42
 309 546 309 546 343 546 c 0,16,17
EndSplineSet
Substitution2: "'c2sc' Capitals to Small Capitals lookup 38 subtable" n.sc
Substitution2: "'aalt' Access All Alternates lookup 0 subtable" n.sc
EndChar

StartChar: O
Encoding: 79 79 49
Width: 632
GlyphClass: 2
Flags: W
AnchorPoint: "Anchor-7" 316 286 basechar 0
AnchorPoint: "Anchor-6" 612 572 basechar 0
AnchorPoint: "Anchor-5" 316 0 basechar 0
AnchorPoint: "Anchor-4" 316 572 basechar 0
LayerCount: 2
Fore
SplineSet
584 287 m 0,0,1
 584 199 584 199 555 132.5 c 128,-1,2
 526 66 526 66 467 29 c 128,-1,3
 408 -8 408 -8 317 -8 c 0,4,5
 227 -8 227 -8 167 29 c 128,-1,6
 107 66 107 66 77.5 133 c 128,-1,7
 48 200 48 200 48 288 c 0,8,9
 48 375 48 375 77.5 441 c 128,-1,10
 107 507 107 507 167 544 c 128,-1,11
 227 581 227 581 317 581 c 0,12,13
 408 581 408 581 467 544 c 128,-1,14
 526 507 526 507 555 440.5 c 128,-1,15
 584 374 584 374 584 287 c 0,0,1
140 287 m 0,16,17
 140 221 140 221 158.5 171.5 c 128,-1,18
 177 122 177 122 216 94.5 c 128,-1,19
 255 67 255 67 316 67 c 0,20,21
 378 67 378 67 416.5 94 c 128,-1,22
 455 121 455 121 473.5 170.5 c 128,-1,23
 492 220 492 220 492 287 c 0,24,25
 492 391 492 391 448 448.5 c 128,-1,26
 404 506 404 506 316 506 c 0,27,28
 256 506 256 506 217 479 c 128,-1,29
 178 452 178 452 159 403 c 128,-1,30
 140 354 140 354 140 287 c 0,16,17
EndSplineSet
Substitution2: "'c2sc' Capitals to Small Capitals lookup 38 subtable" o.sc
Substitution2: "Single Substitution lookup 33 subtable" ordmasculine
AlternateSubs2: "'aalt' Access All Alternates lookup 1 subtable" ordmasculine o.sc
EndChar

StartChar: P
Encoding: 80 80 50
Width: 491
GlyphClass: 2
Flags: W
AnchorPoint: "Anchor-7" 263 286 basechar 0
AnchorPoint: "Anchor-6" 471 572 basechar 0
AnchorPoint: "Anchor-5" 246 0 basechar 0
AnchorPoint: "Anchor-4" 246 572 basechar 0
LayerCount: 2
Fore
SplineSet
239 572 m 2,0,1
 346 572 346 572 399 528 c 128,-1,2
 452 484 452 484 452 400 c 0,3,4
 452 358 452 358 438 324 c 128,-1,5
 424 290 424 290 396 266 c 128,-1,6
 368 242 368 242 327 229.5 c 128,-1,7
 286 217 286 217 232 217 c 2,8,-1
 161 217 l 1,9,-1
 161 0 l 1,10,-1
 74 0 l 1,11,-1
 74 572 l 1,12,-1
 239 572 l 2,0,1
223 288 m 2,13,14
 288 288 288 288 325.5 311 c 128,-1,15
 363 334 363 334 363 395 c 0,16,17
 363 448 363 448 332 474.5 c 128,-1,18
 301 501 301 501 236 501 c 2,19,-1
 161 501 l 1,20,-1
 161 288 l 1,21,-1
 223 288 l 2,13,14
EndSplineSet
Substitution2: "'c2sc' Capitals to Small Capitals lookup 38 subtable" p.sc
Substitution2: "'aalt' Access All Alternates lookup 0 subtable" p.sc
EndChar

StartChar: Q
Encoding: 81 81 51
Width: 781
GlyphClass: 2
Flags: W
AnchorPoint: "Anchor-7" 390 277 basechar 0
AnchorPoint: "Anchor-6" 761 714 basechar 0
AnchorPoint: "Anchor-5" 391 -170 basechar 0
AnchorPoint: "Anchor-4" 391 714 basechar 0
LayerCount: 2
Fore
SplineSet
720 358 m 0,0,1
 720 271 720 271 696.5 200 c 128,-1,2
 673 129 673 129 627 80 c 128,-1,3
 581 31 581 31 512 8 c 1,4,-1
 683 -170 l 1,5,-1
 554 -170 l 1,6,-1
 416 -9 l 1,7,8
 410 -9 410 -9 403.5 -9.5 c 128,-1,9
 397 -10 397 -10 391 -10 c 0,10,11
 307 -10 307 -10 245 16.5 c 128,-1,12
 183 43 183 43 142 91.5 c 128,-1,13
 101 140 101 140 81 208 c 128,-1,14
 61 276 61 276 61 359 c 0,15,16
 61 469 61 469 97 551 c 128,-1,17
 133 633 133 633 206.5 679 c 128,-1,18
 280 725 280 725 392 725 c 0,19,20
 499 725 499 725 572 679.5 c 128,-1,21
 645 634 645 634 682.5 551.5 c 128,-1,22
 720 469 720 469 720 358 c 0,0,1
156 358 m 256,23,24
 156 268 156 268 181 203 c 128,-1,25
 206 138 206 138 258.5 103 c 128,-1,26
 311 68 311 68 391 68 c 0,27,28
 472 68 472 68 523.5 103 c 128,-1,29
 575 138 575 138 600 203 c 128,-1,30
 625 268 625 268 625 358 c 0,31,32
 625 493 625 493 569 569.5 c 128,-1,33
 513 646 513 646 392 646 c 0,34,35
 311 646 311 646 258.5 611.5 c 128,-1,36
 206 577 206 577 181 512.5 c 128,-1,37
 156 448 156 448 156 358 c 256,23,24
EndSplineSet
Substitution2: "'c2sc' Capitals to Small Capitals lookup 38 subtable" q.sc
Substitution2: "'aalt' Access All Alternates lookup 0 subtable" q.sc
EndChar

StartChar: R
Encoding: 82 82 52
Width: 413
GlyphClass: 2
Flags: W
AnchorPoint: "Anchor-7" 241 273 basechar 0
AnchorPoint: "Anchor-6" 393 536 basechar 0
AnchorPoint: "Anchor-5" 126 0 basechar 0
AnchorPoint: "Anchor-4" 240 766 basechar 0
LayerCount: 2
Fore
SplineSet
388 756 m 1,0,1
 379 742 379 742 362 722 c 128,-1,2
 345 702 345 702 324.5 680.5 c 128,-1,3
 304 659 304 659 283.5 639.5 c 128,-1,4
 263 620 263 620 245 606 c 1,5,-1
 187 606 l 1,6,-1
 187 618 l 1,7,8
 202 637 202 637 219.5 663 c 128,-1,9
 237 689 237 689 254 716.5 c 128,-1,10
 271 744 271 744 282 766 c 1,11,-1
 388 766 l 1,12,-1
 388 756 l 1,0,1
335 546 m 0,13,14
 350 546 350 546 367.5 544.5 c 128,-1,15
 385 543 385 543 398 540 c 1,16,-1
 387 459 l 1,17,18
 374 462 374 462 358.5 464 c 128,-1,19
 343 466 343 466 329 466 c 0,20,21
 298 466 298 466 270 453 c 128,-1,22
 242 440 242 440 220 416.5 c 128,-1,23
 198 393 198 393 185.5 360 c 128,-1,24
 173 327 173 327 173 286 c 2,25,-1
 173 0 l 1,26,-1
 85 0 l 1,27,-1
 85 536 l 1,28,-1
 157 536 l 1,29,-1
 167 438 l 1,30,-1
 171 438 l 1,31,32
 188 468 188 468 212 492.5 c 128,-1,33
 236 517 236 517 267 531.5 c 128,-1,34
 298 546 298 546 335 546 c 0,13,14
EndSplineSet
Substitution2: "'c2sc' Capitals to Small Capitals lookup 38 subtable" r.sc
Substitution2: "'aalt' Access All Alternates lookup 0 subtable" r.sc
EndChar

StartChar: S
Encoding: 83 83 53
Width: 479
GlyphClass: 2
Flags: W
AnchorPoint: "Anchor-7" 242 268 basechar 0
AnchorPoint: "Anchor-6" 439 536 basechar 0
AnchorPoint: "Anchor-5" 240 0 basechar 0
AnchorPoint: "Anchor-4" 240 766 basechar 0
LayerCount: 2
Fore
SplineSet
434 148 m 0,0,1
 434 96 434 96 408 61 c 128,-1,2
 382 26 382 26 334 8 c 128,-1,3
 286 -10 286 -10 220 -10 c 0,4,5
 164 -10 164 -10 123.5 -1 c 128,-1,6
 83 8 83 8 52 24 c 1,7,-1
 52 104 l 1,8,9
 84 88 84 88 129.5 74.5 c 128,-1,10
 175 61 175 61 222 61 c 0,11,12
 289 61 289 61 319 82.5 c 128,-1,13
 349 104 349 104 349 140 c 0,14,15
 349 160 349 160 338 176 c 128,-1,16
 327 192 327 192 298.5 208 c 128,-1,17
 270 224 270 224 217 244 c 0,18,19
 165 264 165 264 128 284 c 128,-1,20
 91 304 91 304 71 332 c 128,-1,21
 51 360 51 360 51 404 c 0,22,23
 51 472 51 472 106.5 509 c 128,-1,24
 162 546 162 546 252 546 c 0,25,26
 301 546 301 546 343.5 536.5 c 128,-1,27
 386 527 386 527 423 510 c 1,28,-1
 393 440 l 1,29,30
 359 454 359 454 322 464 c 128,-1,31
 285 474 285 474 246 474 c 0,32,33
 192 474 192 474 163.5 456.5 c 128,-1,34
 135 439 135 439 135 409 c 0,35,36
 135 387 135 387 148 371.5 c 128,-1,37
 161 356 161 356 191.5 341.5 c 128,-1,38
 222 327 222 327 273 307 c 0,39,40
 324 288 324 288 360 268 c 128,-1,41
 396 248 396 248 415 219.5 c 128,-1,42
 434 191 434 191 434 148 c 0,0,1
194 606 m 1,43,44
 181 629 181 629 159 655.5 c 128,-1,45
 137 682 137 682 113 708 c 128,-1,46
 89 734 89 734 71 753 c 1,47,-1
 71 766 l 1,48,-1
 131 766 l 1,49,50
 157 749 157 749 185 725 c 128,-1,51
 213 701 213 701 238 674 c 1,52,53
 265 701 265 701 293 725 c 128,-1,54
 321 749 321 749 347 766 c 1,55,-1
 409 766 l 1,56,-1
 409 753 l 1,57,58
 390 734 390 734 365.5 708 c 128,-1,59
 341 682 341 682 318.5 655.5 c 128,-1,60
 296 629 296 629 284 606 c 1,61,-1
 194 606 l 1,43,44
EndSplineSet
Substitution2: "'c2sc' Capitals to Small Capitals lookup 38 subtable" s.sc
Substitution2: "'aalt' Access All Alternates lookup 0 subtable" s.sc
EndChar

StartChar: T
Encoding: 84 84 54
Width: 448
GlyphClass: 2
Flags: W
AnchorPoint: "Anchor-7" 224 286 basechar 0
AnchorPoint: "Anchor-6" 428 572 basechar 0
AnchorPoint: "Anchor-5" 224 0 basechar 0
AnchorPoint: "Anchor-4" 223 572 basechar 0
LayerCount: 2
Fore
SplineSet
438 572 m 1,0,-1
 438 497 l 1,1,-1
 268 497 l 1,2,-1
 268 0 l 1,3,-1
 181 0 l 1,4,-1
 181 497 l 1,5,-1
 11 497 l 1,6,-1
 11 572 l 1,7,-1
 438 572 l 1,0,-1
EndSplineSet
Substitution2: "'c2sc' Capitals to Small Capitals lookup 38 subtable" t.sc
Substitution2: "'aalt' Access All Alternates lookup 0 subtable" t.sc
EndChar

StartChar: U
Encoding: 85 85 55
Width: 596
GlyphClass: 2
Flags: W
AnchorPoint: "Anchor-7" 298 282 basechar 0
AnchorPoint: "Anchor-6" 576 572 basechar 0
AnchorPoint: "Anchor-5" 298 0 basechar 0
AnchorPoint: "Anchor-4" 299 572 basechar 0
LayerCount: 2
Fore
SplineSet
527 212 m 2,0,1
 527 143 527 143 500 94 c 128,-1,2
 473 45 473 45 421.5 18.5 c 128,-1,3
 370 -8 370 -8 295 -8 c 0,4,5
 186 -8 186 -8 127.5 49.5 c 128,-1,6
 69 107 69 107 69 211 c 2,7,-1
 69 572 l 1,8,-1
 157 572 l 1,9,-1
 157 215 l 2,10,11
 157 142 157 142 193.5 103.5 c 128,-1,12
 230 65 230 65 300 65 c 0,13,14
 368 65 368 65 403.5 103.5 c 128,-1,15
 439 142 439 142 439 213 c 2,16,-1
 439 572 l 1,17,-1
 527 572 l 1,18,-1
 527 212 l 2,0,1
EndSplineSet
Substitution2: "'c2sc' Capitals to Small Capitals lookup 38 subtable" u.sc
Substitution2: "'aalt' Access All Alternates lookup 0 subtable" u.sc
EndChar

StartChar: V
Encoding: 86 86 56
Width: 507
GlyphClass: 2
Flags: W
AnchorPoint: "Anchor-7" 253 286 basechar 0
AnchorPoint: "Anchor-6" 487 572 basechar 0
AnchorPoint: "Anchor-5" 254 0 basechar 0
AnchorPoint: "Anchor-4" 254 572 basechar 0
LayerCount: 2
Fore
SplineSet
205 0 m 1,0,-1
 0 572 l 1,1,-1
 96 572 l 1,2,-1
 220 198 l 2,3,4
 232 163 232 163 239.5 138 c 128,-1,5
 247 113 247 113 253 90 c 1,6,7
 258 113 258 113 267 141 c 128,-1,8
 276 169 276 169 286 198 c 2,9,-1
 410 572 l 1,10,-1
 507 572 l 1,11,-1
 301 0 l 1,12,-1
 205 0 l 1,0,-1
EndSplineSet
Substitution2: "'c2sc' Capitals to Small Capitals lookup 38 subtable" v.sc
Substitution2: "'aalt' Access All Alternates lookup 0 subtable" v.sc
EndChar

StartChar: W
Encoding: 87 87 57
Width: 773
GlyphClass: 2
Flags: W
AnchorPoint: "Anchor-7" 386 286 basechar 0
AnchorPoint: "Anchor-6" 753 572 basechar 0
AnchorPoint: "Anchor-5" 387 0 basechar 0
AnchorPoint: "Anchor-4" 387 572 basechar 0
LayerCount: 2
Fore
SplineSet
409 363 m 2,0,1
 404 384 404 384 399 404.5 c 128,-1,2
 394 425 394 425 390.5 443.5 c 128,-1,3
 387 462 387 462 385 477 c 1,4,5
 383 461 383 461 379.5 442.5 c 128,-1,6
 376 424 376 424 371.5 405 c 128,-1,7
 367 386 367 386 362 367 c 2,8,-1
 264 0 l 1,9,-1
 169 0 l 1,10,-1
 17 572 l 1,11,-1
 103 572 l 1,12,-1
 189 236 l 2,13,14
 195 213 195 213 201 186.5 c 128,-1,15
 207 160 207 160 212 135.5 c 128,-1,16
 217 111 217 111 220 92 c 1,17,18
 224 111 224 111 228.5 132 c 128,-1,19
 233 153 233 153 238.5 177 c 128,-1,20
 244 201 244 201 251 227 c 2,21,-1
 342 572 l 1,22,-1
 427 572 l 1,23,-1
 520 224 l 2,24,25
 526 202 526 202 532 178 c 128,-1,26
 538 154 538 154 543 131.5 c 128,-1,27
 548 109 548 109 551 91 c 1,28,29
 553 107 553 107 558 129 c 128,-1,30
 563 151 563 151 568.5 172 c 128,-1,31
 574 193 574 193 577 206 c 2,32,-1
 670 572 l 1,33,-1
 755 572 l 1,34,-1
 602 0 l 1,35,-1
 507 0 l 1,36,-1
 409 363 l 2,0,1
EndSplineSet
Substitution2: "'c2sc' Capitals to Small Capitals lookup 38 subtable" w.sc
Substitution2: "'aalt' Access All Alternates lookup 0 subtable" w.sc
EndChar

StartChar: X
Encoding: 88 88 58
Width: 497
GlyphClass: 2
Flags: W
AnchorPoint: "Anchor-7" 248 286 basechar 0
AnchorPoint: "Anchor-6" 477 572 basechar 0
AnchorPoint: "Anchor-5" 249 0 basechar 0
AnchorPoint: "Anchor-4" 249 572 basechar 0
LayerCount: 2
Fore
SplineSet
248 231 m 1,0,-1
 99 0 l 1,1,-1
 1 0 l 1,2,-1
 194 295 l 1,3,-1
 17 572 l 1,4,-1
 113 572 l 1,5,-1
 249 354 l 1,6,-1
 385 572 l 1,7,-1
 482 572 l 1,8,-1
 301 292 l 1,9,-1
 496 0 l 1,10,-1
 396 0 l 1,11,-1
 248 231 l 1,0,-1
EndSplineSet
Substitution2: "'c2sc' Capitals to Small Capitals lookup 38 subtable" x.sc
Substitution2: "'aalt' Access All Alternates lookup 0 subtable" x.sc
EndChar

StartChar: Y
Encoding: 89 89 59
Width: 473
GlyphClass: 2
Flags: W
AnchorPoint: "Anchor-7" 236 286 basechar 0
AnchorPoint: "Anchor-6" 453 572 basechar 0
AnchorPoint: "Anchor-5" 237 0 basechar 0
AnchorPoint: "Anchor-4" 237 572 basechar 0
LayerCount: 2
Fore
SplineSet
473 572 m 1,0,-1
 281 222 l 1,1,-1
 281 0 l 1,2,-1
 192 0 l 1,3,-1
 192 218 l 1,4,-1
 0 572 l 1,5,-1
 96 572 l 1,6,-1
 237 299 l 1,7,-1
 379 572 l 1,8,-1
 473 572 l 1,0,-1
EndSplineSet
Substitution2: "'c2sc' Capitals to Small Capitals lookup 38 subtable" y.sc
Substitution2: "'aalt' Access All Alternates lookup 0 subtable" y.sc
EndChar

StartChar: Z
Encoding: 90 90 60
Width: 479
GlyphClass: 2
Flags: W
AnchorPoint: "Anchor-7" 240 286 basechar 0
AnchorPoint: "Anchor-6" 459 572 basechar 0
AnchorPoint: "Anchor-5" 240 0 basechar 0
AnchorPoint: "Anchor-4" 240 773 basechar 0
LayerCount: 2
Fore
SplineSet
29 0 m 1,0,-1
 29 56 l 1,1,-1
 332 499 l 1,2,-1
 40 499 l 1,3,-1
 40 572 l 1,4,-1
 443 572 l 1,5,-1
 443 515 l 1,6,-1
 140 73 l 1,7,-1
 451 73 l 1,8,-1
 451 0 l 1,9,-1
 29 0 l 1,0,-1
245 773 m 0,10,11
 265 773 265 773 280.5 759.5 c 128,-1,12
 296 746 296 746 296 717 c 0,13,14
 296 689 296 689 280.5 675 c 128,-1,15
 265 661 265 661 245 661 c 0,16,17
 223 661 223 661 208 675 c 128,-1,18
 193 689 193 689 193 717 c 0,19,20
 193 746 193 746 208 759.5 c 128,-1,21
 223 773 223 773 245 773 c 0,10,11
EndSplineSet
Substitution2: "'c2sc' Capitals to Small Capitals lookup 38 subtable" z.sc
Substitution2: "'aalt' Access All Alternates lookup 0 subtable" z.sc
EndChar

StartChar: bracketleft
Encoding: 91 91 61
Width: 329
Flags: W
LayerCount: 2
Fore
SplineSet
304 -158 m 1,0,-1
 80 -158 l 1,1,-1
 80 714 l 1,2,-1
 304 714 l 1,3,-1
 304 642 l 1,4,-1
 166 642 l 1,5,-1
 166 -86 l 1,6,-1
 304 -86 l 1,7,-1
 304 -158 l 1,0,-1
EndSplineSet
Substitution2: "'smcp' Lowercase to Small Capitals lookup 39 subtable" bracketleft.sc
Substitution2: "'c2sc' Capitals to Small Capitals lookup 38 subtable" bracketleft.sc
Substitution2: "'aalt' Access All Alternates lookup 0 subtable" bracketleft.sc
EndChar

StartChar: backslash
Encoding: 92 92 62
Width: 372
Flags: W
LayerCount: 2
Fore
SplineSet
96 714 m 1,0,-1
 363 0 l 1,1,-1
 276 0 l 1,2,-1
 10 714 l 1,3,-1
 96 714 l 1,0,-1
EndSplineSet
EndChar

StartChar: bracketright
Encoding: 93 93 63
Width: 329
Flags: W
LayerCount: 2
Fore
SplineSet
25 -86 m 1,0,-1
 163 -86 l 1,1,-1
 163 642 l 1,2,-1
 25 642 l 1,3,-1
 25 714 l 1,4,-1
 249 714 l 1,5,-1
 249 -158 l 1,6,-1
 25 -158 l 1,7,-1
 25 -86 l 1,0,-1
EndSplineSet
Substitution2: "'smcp' Lowercase to Small Capitals lookup 39 subtable" bracketright.sc
Substitution2: "'c2sc' Capitals to Small Capitals lookup 38 subtable" bracketright.sc
Substitution2: "'aalt' Access All Alternates lookup 0 subtable" bracketright.sc
EndChar

StartChar: asciicircum
Encoding: 94 94 64
Width: 572
Flags: W
LayerCount: 2
Fore
SplineSet
38 267 m 1,0,-1
 250 719 l 1,1,-1
 300 719 l 1,2,-1
 534 267 l 1,3,-1
 456 267 l 1,4,-1
 276 626 l 1,5,-1
 116 267 l 1,6,-1
 38 267 l 1,0,-1
EndSplineSet
EndChar

StartChar: underscore
Encoding: 95 95 65
Width: 444
Flags: W
LayerCount: 2
Fore
SplineSet
446 -154 m 1,0,-1
 -2 -154 l 1,1,-1
 -2 -90 l 1,2,-1
 446 -90 l 1,3,-1
 446 -154 l 1,0,-1
EndSplineSet
EndChar

StartChar: grave
Encoding: 96 96 66
Width: 281
Flags: W
LayerCount: 2
Fore
SplineSet
145 766 m 1,0,1
 156 744 156 744 172.5 716.5 c 128,-1,2
 189 689 189 689 207.5 663 c 128,-1,3
 226 637 226 637 241 618 c 1,4,-1
 241 606 l 1,5,-1
 182 606 l 1,6,7
 165 620 165 620 144 639.5 c 128,-1,8
 123 659 123 659 102.5 680.5 c 128,-1,9
 82 702 82 702 65.5 722 c 128,-1,10
 49 742 49 742 40 756 c 1,11,-1
 40 766 l 1,12,-1
 145 766 l 1,0,1
EndSplineSet
EndChar

StartChar: a
Encoding: 97 97 67
Width: 561
GlyphClass: 2
Flags: W
AnchorPoint: "Anchor-7" 263 267 basechar 0
AnchorPoint: "Anchor-6" 511 536 basechar 0
AnchorPoint: "Anchor-5" 281 0 basechar 0
AnchorPoint: "Anchor-4" 281 536 basechar 0
LayerCount: 2
Fore
SplineSet
288 545 m 0,0,1
 386 545 386 545 433 502 c 128,-1,2
 480 459 480 459 480 365 c 2,3,-1
 480 0 l 1,4,-1
 416 0 l 1,5,-1
 399 76 l 1,6,-1
 395 76 l 1,7,8
 372 47 372 47 347.5 27.5 c 128,-1,9
 323 8 323 8 291.5 -1 c 128,-1,10
 260 -10 260 -10 215 -10 c 0,11,12
 167 -10 167 -10 128.5 7 c 128,-1,13
 90 24 90 24 68 59.5 c 128,-1,14
 46 95 46 95 46 149 c 0,15,16
 46 229 46 229 109 272.5 c 128,-1,17
 172 316 172 316 303 320 c 2,18,-1
 394 323 l 1,19,-1
 394 355 l 2,20,21
 394 422 394 422 365 448 c 128,-1,22
 336 474 336 474 283 474 c 0,23,24
 241 474 241 474 203 461.5 c 128,-1,25
 165 449 165 449 132 433 c 1,26,-1
 105 499 l 1,27,28
 140 518 140 518 188 531.5 c 128,-1,29
 236 545 236 545 288 545 c 0,0,1
314 259 m 2,30,31
 214 255 214 255 175.5 227 c 128,-1,32
 137 199 137 199 137 148 c 0,33,34
 137 103 137 103 164.5 82 c 128,-1,35
 192 61 192 61 235 61 c 0,36,37
 303 61 303 61 348 98.5 c 128,-1,38
 393 136 393 136 393 214 c 2,39,-1
 393 262 l 1,40,-1
 314 259 l 2,30,31
EndSplineSet
Substitution2: "'smcp' Lowercase to Small Capitals lookup 39 subtable" a.sc
Substitution2: "Single Substitution lookup 33 subtable" ordfeminine
AlternateSubs2: "'aalt' Access All Alternates lookup 1 subtable" ordfeminine a.sc
EndChar

StartChar: b
Encoding: 98 98 68
Width: 615
GlyphClass: 2
Flags: W
AnchorPoint: "Anchor-7" 322 375 basechar 0
AnchorPoint: "Anchor-6" 515 760 basechar 0
AnchorPoint: "Anchor-5" 322 0 basechar 0
AnchorPoint: "Anchor-4" 338 760 basechar 0
LayerCount: 2
Fore
SplineSet
173 575 m 2,0,1
 173 541 173 541 171.5 511.5 c 128,-1,2
 170 482 170 482 168 465 c 1,3,-1
 173 465 l 1,4,5
 196 499 196 499 236 522 c 128,-1,6
 276 545 276 545 339 545 c 0,7,8
 439 545 439 545 499.5 475.5 c 128,-1,9
 560 406 560 406 560 268 c 0,10,11
 560 176 560 176 532.5 114 c 128,-1,12
 505 52 505 52 455 21 c 128,-1,13
 405 -10 405 -10 339 -10 c 0,14,15
 276 -10 276 -10 236 13 c 128,-1,16
 196 36 196 36 173 68 c 1,17,-1
 166 68 l 1,18,-1
 148 0 l 1,19,-1
 85 0 l 1,20,-1
 85 760 l 1,21,-1
 173 760 l 1,22,-1
 173 575 l 2,0,1
324 472 m 0,23,24
 267 472 267 472 234 450.5 c 128,-1,25
 201 429 201 429 187 384.5 c 128,-1,26
 173 340 173 340 173 271 c 2,27,-1
 173 267 l 2,28,29
 173 168 173 168 205.5 115.5 c 128,-1,30
 238 63 238 63 326 63 c 0,31,32
 398 63 398 63 433.5 116 c 128,-1,33
 469 169 469 169 469 269 c 0,34,35
 469 370 469 370 433.5 421 c 128,-1,36
 398 472 398 472 324 472 c 0,23,24
EndSplineSet
Substitution2: "'smcp' Lowercase to Small Capitals lookup 39 subtable" b.sc
Substitution2: "'aalt' Access All Alternates lookup 0 subtable" b.sc
EndChar

StartChar: c
Encoding: 99 99 69
Width: 490
GlyphClass: 2
Flags: W
AnchorPoint: "Anchor-1" 245 536 basechar 0
AnchorPoint: "Anchor-0" 245 0 basechar 0
LayerCount: 2
Fore
SplineSet
301 -10 m 0,0,1
 183 -10 183 -10 118 57 c 128,-1,2
 53 124 53 124 53 245 c 0,3,4
 53 325 53 325 82 380.5 c 128,-1,5
 111 436 111 436 165 465 c 1,6,-1
 32 465 l 1,7,-1
 32 537 l 1,8,-1
 458 537 l 1,9,-1
 458 465 l 1,10,-1
 345 465 l 2,11,12
 251 465 251 465 197.5 411.5 c 128,-1,13
 144 358 144 358 144 252 c 0,14,15
 144 165 144 165 187 114.5 c 128,-1,16
 230 64 230 64 310 64 c 0,17,18
 347 64 347 64 381 73.5 c 128,-1,19
 415 83 415 83 447 99 c 1,20,-1
 447 21 l 1,21,22
 418 5 418 5 383 -2.5 c 128,-1,23
 348 -10 348 -10 301 -10 c 0,0,1
EndSplineSet
Substitution2: "'smcp' Lowercase to Small Capitals lookup 39 subtable" c.sc
Substitution2: "'aalt' Access All Alternates lookup 0 subtable" c.sc
EndChar

StartChar: d
Encoding: 100 100 70
Width: 615
GlyphClass: 2
Flags: W
AnchorPoint: "Anchor-7" 308 268 basechar 0
AnchorPoint: "Anchor-6" 553 760 basechar 0
AnchorPoint: "Anchor-5" 292 0 basechar 0
AnchorPoint: "Anchor-4" 275 760 basechar 0
LayerCount: 2
Fore
SplineSet
275 -10 m 0,0,1
 175 -10 175 -10 115 59.5 c 128,-1,2
 55 129 55 129 55 267 c 256,3,4
 55 405 55 405 115.5 475.5 c 128,-1,5
 176 546 176 546 276 546 c 0,6,7
 318 546 318 546 349 535.5 c 128,-1,8
 380 525 380 525 403 507 c 128,-1,9
 426 489 426 489 442 467 c 1,10,-1
 448 467 l 1,11,12
 447 480 447 480 444.5 505.5 c 128,-1,13
 442 531 442 531 442 546 c 2,14,-1
 442 760 l 1,15,-1
 530 760 l 1,16,-1
 530 0 l 1,17,-1
 459 0 l 1,18,-1
 446 72 l 1,19,-1
 442 72 l 1,20,21
 426 49 426 49 403 30.5 c 128,-1,22
 380 12 380 12 348.5 1 c 128,-1,23
 317 -10 317 -10 275 -10 c 0,0,1
289 63 m 0,24,25
 374 63 374 63 408.5 109.5 c 128,-1,26
 443 156 443 156 443 250 c 2,27,-1
 443 266 l 2,28,29
 443 366 443 366 410 419.5 c 128,-1,30
 377 473 377 473 288 473 c 0,31,32
 217 473 217 473 181.5 416.5 c 128,-1,33
 146 360 146 360 146 265 c 0,34,35
 146 169 146 169 181.5 116 c 128,-1,36
 217 63 217 63 289 63 c 0,24,25
EndSplineSet
Substitution2: "'smcp' Lowercase to Small Capitals lookup 39 subtable" d.sc
Substitution2: "'aalt' Access All Alternates lookup 0 subtable" d.sc
EndChar

StartChar: e
Encoding: 101 101 71
Width: 564
GlyphClass: 2
Flags: W
AnchorPoint: "Anchor-7" 284 268 basechar 0
AnchorPoint: "Anchor-6" 544 536 basechar 0
AnchorPoint: "Anchor-5" 301 0 basechar 0
AnchorPoint: "Anchor-4" 285 536 basechar 0
LayerCount: 2
Fore
SplineSet
292 546 m 0,0,1
 361 546 361 546 410.5 516 c 128,-1,2
 460 486 460 486 486.5 431.5 c 128,-1,3
 513 377 513 377 513 304 c 2,4,-1
 513 251 l 1,5,-1
 146 251 l 1,6,7
 148 160 148 160 192.5 112.5 c 128,-1,8
 237 65 237 65 317 65 c 0,9,10
 368 65 368 65 407.5 74.5 c 128,-1,11
 447 84 447 84 489 102 c 1,12,-1
 489 25 l 1,13,14
 448 7 448 7 408 -1.5 c 128,-1,15
 368 -10 368 -10 313 -10 c 0,16,17
 237 -10 237 -10 178.5 21 c 128,-1,18
 120 52 120 52 87.5 113.5 c 128,-1,19
 55 175 55 175 55 264 c 0,20,21
 55 352 55 352 84.5 415 c 128,-1,22
 114 478 114 478 167.5 512 c 128,-1,23
 221 546 221 546 292 546 c 0,0,1
291 474 m 0,24,25
 228 474 228 474 191.5 433.5 c 128,-1,26
 155 393 155 393 148 321 c 1,27,-1
 421 321 l 1,28,29
 421 367 421 367 407 401 c 128,-1,30
 393 435 393 435 364.5 454.5 c 128,-1,31
 336 474 336 474 291 474 c 0,24,25
EndSplineSet
Substitution2: "'smcp' Lowercase to Small Capitals lookup 39 subtable" e.sc
Substitution2: "'aalt' Access All Alternates lookup 0 subtable" e.sc
EndChar

StartChar: f
Encoding: 102 102 72
Width: 344
GlyphClass: 2
Flags: W
AnchorPoint: "Anchor-7" 201 382 basechar 0
AnchorPoint: "Anchor-6" 380 765 basechar 0
AnchorPoint: "Anchor-5" 153 0 basechar 0
AnchorPoint: "Anchor-4" 252 765 basechar 0
LayerCount: 2
Fore
SplineSet
332 468 m 1,0,-1
 197 468 l 1,1,-1
 197 0 l 1,2,-1
 109 0 l 1,3,-1
 109 468 l 1,4,-1
 15 468 l 1,5,-1
 15 509 l 1,6,-1
 109 539 l 1,7,-1
 109 570 l 2,8,9
 109 639 109 639 129.5 682 c 128,-1,10
 150 725 150 725 189 745 c 128,-1,11
 228 765 228 765 283 765 c 0,12,13
 315 765 315 765 341.5 759.5 c 128,-1,14
 368 754 368 754 387 747 c 1,15,-1
 364 678 l 1,16,17
 348 683 348 683 327 688 c 128,-1,18
 306 693 306 693 284 693 c 0,19,20
 240 693 240 693 218.5 663.5 c 128,-1,21
 197 634 197 634 197 571 c 2,22,-1
 197 536 l 1,23,-1
 332 536 l 1,24,-1
 332 468 l 1,0,-1
EndSplineSet
Substitution2: "'smcp' Lowercase to Small Capitals lookup 39 subtable" f.sc
Substitution2: "'aalt' Access All Alternates lookup 0 subtable" f.sc
EndChar

StartChar: g
Encoding: 103 103 73
Width: 615
GlyphClass: 2
Flags: W
AnchorPoint: "Anchor-7" 292 153 basechar 0
AnchorPoint: "Anchor-6" 555 536 basechar 0
AnchorPoint: "Anchor-5" 298 -240 basechar 0
AnchorPoint: "Anchor-4" 297 536 basechar 0
LayerCount: 2
Fore
SplineSet
275 546 m 0,0,1
 328 546 328 546 370.5 526 c 128,-1,2
 413 506 413 506 443 465 c 1,3,-1
 448 465 l 1,4,-1
 460 536 l 1,5,-1
 530 536 l 1,6,-1
 530 -9 l 2,7,8
 530 -85 530 -85 504 -136.5 c 128,-1,9
 478 -188 478 -188 425 -214 c 128,-1,10
 372 -240 372 -240 290 -240 c 0,11,12
 232 -240 232 -240 183.5 -231.5 c 128,-1,13
 135 -223 135 -223 97 -206 c 1,14,-1
 97 -125 l 1,15,16
 135 -145 135 -145 186 -156 c 128,-1,17
 237 -167 237 -167 295 -167 c 0,18,19
 364 -167 364 -167 403.5 -126.5 c 128,-1,20
 443 -86 443 -86 443 -16 c 2,21,-1
 443 5 l 2,22,23
 443 17 443 17 444 39.5 c 128,-1,24
 445 62 445 62 446 71 c 1,25,-1
 442 71 l 1,26,27
 414 30 414 30 372.5 10 c 128,-1,28
 331 -10 331 -10 276 -10 c 0,29,30
 172 -10 172 -10 113.5 63 c 128,-1,31
 55 136 55 136 55 267 c 0,32,33
 55 395 55 395 113.5 470.5 c 128,-1,34
 172 546 172 546 275 546 c 0,0,1
287 472 m 0,35,36
 242 472 242 472 210.5 448 c 128,-1,37
 179 424 179 424 162.5 378 c 128,-1,38
 146 332 146 332 146 266 c 0,39,40
 146 167 146 167 182.5 114.5 c 128,-1,41
 219 62 219 62 289 62 c 0,42,43
 330 62 330 62 359 72.5 c 128,-1,44
 388 83 388 83 407 105.5 c 128,-1,45
 426 128 426 128 435 163 c 128,-1,46
 444 198 444 198 444 246 c 2,47,-1
 444 267 l 2,48,49
 444 340 444 340 427.5 385 c 128,-1,50
 411 430 411 430 376 451 c 128,-1,51
 341 472 341 472 287 472 c 0,35,36
EndSplineSet
Substitution2: "'smcp' Lowercase to Small Capitals lookup 39 subtable" g.sc
Substitution2: "'aalt' Access All Alternates lookup 0 subtable" g.sc
EndChar

StartChar: h
Encoding: 104 104 74
Width: 618
GlyphClass: 2
Flags: W
AnchorPoint: "Anchor-7" 309 268 basechar 0
AnchorPoint: "Anchor-6" 535 760 basechar 0
AnchorPoint: "Anchor-5" 310 0 basechar 0
AnchorPoint: "Anchor-4" 130 760 basechar 0
LayerCount: 2
Fore
SplineSet
173 537 m 2,0,1
 173 518 173 518 171.5 498 c 128,-1,2
 170 478 170 478 168 462 c 1,3,-1
 174 462 l 1,4,5
 191 490 191 490 217 508 c 128,-1,6
 243 526 243 526 275 535.5 c 128,-1,7
 307 545 307 545 341 545 c 0,8,9
 406 545 406 545 449.5 524.5 c 128,-1,10
 493 504 493 504 515 461 c 128,-1,11
 537 418 537 418 537 349 c 2,12,-1
 537 0 l 1,13,-1
 450 0 l 1,14,-1
 450 343 l 2,15,16
 450 408 450 408 421 440 c 128,-1,17
 392 472 392 472 330 472 c 0,18,19
 270 472 270 472 236 449.5 c 128,-1,20
 202 427 202 427 187.5 383.5 c 128,-1,21
 173 340 173 340 173 277 c 2,22,-1
 173 0 l 1,23,-1
 85 0 l 1,24,-1
 85 760 l 1,25,-1
 173 760 l 1,26,-1
 173 537 l 2,0,1
EndSplineSet
Substitution2: "'smcp' Lowercase to Small Capitals lookup 39 subtable" h.sc
Substitution2: "'sinf' Scientific Inferiors lookup 24 subtable" uni2095
Substitution2: "'subs' Subscript lookup 23 subtable" uni2095
AlternateSubs2: "'aalt' Access All Alternates lookup 1 subtable" h.sc uni2095
EndChar

StartChar: i
Encoding: 105 105 75
Width: 258
GlyphClass: 2
Flags: W
AnchorPoint: "Anchor-7" 129 368 basechar 0
AnchorPoint: "Anchor-6" 238 737 basechar 0
AnchorPoint: "Anchor-5" 131 0 basechar 0
AnchorPoint: "Anchor-4" 129 737 basechar 0
LayerCount: 2
Fore
SplineSet
173 536 m 1,0,-1
 173 0 l 1,1,-1
 85 0 l 1,2,-1
 85 536 l 1,3,-1
 173 536 l 1,0,-1
130 737 m 0,4,5
 150 737 150 737 165.5 723.5 c 128,-1,6
 181 710 181 710 181 681 c 0,7,8
 181 653 181 653 165.5 639 c 128,-1,9
 150 625 150 625 130 625 c 0,10,11
 108 625 108 625 93 639 c 128,-1,12
 78 653 78 653 78 681 c 0,13,14
 78 710 78 710 93 723.5 c 128,-1,15
 108 737 108 737 130 737 c 0,4,5
EndSplineSet
Substitution2: "'smcp' Lowercase to Small Capitals lookup 39 subtable" i.sc
Substitution2: "Single Substitution lookup 4 subtable" dotlessi
AlternateSubs2: "'aalt' Access All Alternates lookup 1 subtable" dotlessi i.sc
EndChar

StartChar: j
Encoding: 106 106 76
Width: 470
GlyphClass: 2
Flags: W
AnchorPoint: "Anchor-1" 235 536 basechar 0
AnchorPoint: "Anchor-0" 235 0 basechar 0
LayerCount: 2
Fore
SplineSet
424 536 m 1,0,-1
 424 470 l 1,1,-1
 313 313 l 1,2,-1
 414 313 l 1,3,-1
 414 243 l 1,4,-1
 263 243 l 1,5,-1
 140 68 l 1,6,-1
 431 68 l 1,7,-1
 431 0 l 1,8,-1
 39 0 l 1,9,-1
 39 58 l 1,10,-1
 169 243 l 1,11,-1
 57 243 l 1,12,-1
 57 313 l 1,13,-1
 218 313 l 1,14,-1
 327 468 l 1,15,-1
 56 468 l 1,16,-1
 56 536 l 1,17,-1
 424 536 l 1,0,-1
EndSplineSet
Substitution2: "'smcp' Lowercase to Small Capitals lookup 39 subtable" j.sc
Substitution2: "Single Substitution lookup 4 subtable" uni0237
AlternateSubs2: "'aalt' Access All Alternates lookup 1 subtable" uni0237 j.sc
EndChar

StartChar: k
Encoding: 107 107 77
Width: 534
GlyphClass: 2
Flags: W
AnchorPoint: "Anchor-7" 305 380 basechar 0
AnchorPoint: "Anchor-6" 369 840 basechar 0
AnchorPoint: "Anchor-5" 267 0 basechar 0
AnchorPoint: "Anchor-4" 129 760 basechar 0
LayerCount: 2
Fore
SplineSet
172 363 m 2,0,1
 172 347 172 347 170.5 321 c 128,-1,2
 169 295 169 295 168 276 c 1,3,-1
 172 276 l 1,4,5
 178 284 178 284 190 299 c 128,-1,6
 202 314 202 314 214.5 329.5 c 128,-1,7
 227 345 227 345 236 355 c 2,8,-1
 407 536 l 1,9,-1
 510 536 l 1,10,-1
 293 307 l 1,11,-1
 525 0 l 1,12,-1
 419 0 l 1,13,-1
 233 250 l 1,14,-1
 172 197 l 1,15,-1
 172 0 l 1,16,-1
 85 0 l 1,17,-1
 85 760 l 1,18,-1
 172 760 l 1,19,-1
 172 363 l 2,0,1
EndSplineSet
Substitution2: "'smcp' Lowercase to Small Capitals lookup 39 subtable" k.sc
Substitution2: "'sinf' Scientific Inferiors lookup 24 subtable" uni2096
Substitution2: "'subs' Subscript lookup 23 subtable" uni2096
AlternateSubs2: "'aalt' Access All Alternates lookup 1 subtable" k.sc uni2096
EndChar

StartChar: l
Encoding: 108 108 78
Width: 258
GlyphClass: 2
Flags: W
AnchorPoint: "Anchor-7" 129 268 basechar 0
AnchorPoint: "Anchor-6" 202 760 basechar 0
AnchorPoint: "Anchor-5" 129 0 basechar 0
AnchorPoint: "Anchor-4" 129 760 basechar 0
LayerCount: 2
Fore
SplineSet
173 0 m 1,0,-1
 85 0 l 1,1,-1
 85 760 l 1,2,-1
 173 760 l 1,3,-1
 173 0 l 1,0,-1
EndSplineSet
Substitution2: "'smcp' Lowercase to Small Capitals lookup 39 subtable" l.sc
Substitution2: "'sinf' Scientific Inferiors lookup 24 subtable" uni2097
Substitution2: "'subs' Subscript lookup 23 subtable" uni2097
AlternateSubs2: "'aalt' Access All Alternates lookup 1 subtable" l.sc uni2097
EndChar

StartChar: m
Encoding: 109 109 79
Width: 935
GlyphClass: 2
Flags: W
AnchorPoint: "Anchor-7" 469 273 basechar 0
AnchorPoint: "Anchor-6" 885 536 basechar 0
AnchorPoint: "Anchor-5" 471 0 basechar 0
AnchorPoint: "Anchor-4" 479 536 basechar 0
LayerCount: 2
Fore
SplineSet
673 546 m 0,0,1
 764 546 764 546 809 499.5 c 128,-1,2
 854 453 854 453 854 349 c 2,3,-1
 854 0 l 1,4,-1
 767 0 l 1,5,-1
 767 345 l 2,6,7
 767 408 767 408 740.5 440 c 128,-1,8
 714 472 714 472 658 472 c 0,9,10
 580 472 580 472 546.5 427 c 128,-1,11
 513 382 513 382 513 296 c 2,12,-1
 513 0 l 1,13,-1
 426 0 l 1,14,-1
 426 345 l 2,15,16
 426 387 426 387 414 415.5 c 128,-1,17
 402 444 402 444 378 458 c 128,-1,18
 354 472 354 472 316 472 c 0,19,20
 262 472 262 472 231 449.5 c 128,-1,21
 200 427 200 427 186.5 384 c 128,-1,22
 173 341 173 341 173 278 c 2,23,-1
 173 0 l 1,24,-1
 85 0 l 1,25,-1
 85 536 l 1,26,-1
 156 536 l 1,27,-1
 169 463 l 1,28,-1
 174 463 l 1,29,30
 191 491 191 491 215.5 509.5 c 128,-1,31
 240 528 240 528 270 537 c 128,-1,32
 300 546 300 546 332 546 c 0,33,34
 394 546 394 546 435.5 524 c 128,-1,35
 477 502 477 502 496 456 c 1,36,-1
 501 456 l 1,37,38
 528 502 528 502 574.5 524 c 128,-1,39
 621 546 621 546 673 546 c 0,0,1
EndSplineSet
Substitution2: "'smcp' Lowercase to Small Capitals lookup 39 subtable" m.sc
Substitution2: "'sinf' Scientific Inferiors lookup 24 subtable" uni2098
Substitution2: "'subs' Subscript lookup 23 subtable" uni2098
AlternateSubs2: "'aalt' Access All Alternates lookup 1 subtable" m.sc uni2098
EndChar

StartChar: n
Encoding: 110 110 80
Width: 618
GlyphClass: 2
Flags: W
AnchorPoint: "Anchor-7" 311 273 basechar 0
AnchorPoint: "Anchor-6" 562 536 basechar 0
AnchorPoint: "Anchor-5" 309 0 basechar 0
AnchorPoint: "Anchor-4" 309 536 basechar 0
LayerCount: 2
Fore
SplineSet
343 546 m 0,0,1
 439 546 439 546 488 499.5 c 128,-1,2
 537 453 537 453 537 349 c 2,3,-1
 537 0 l 1,4,-1
 450 0 l 1,5,-1
 450 343 l 2,6,7
 450 408 450 408 421 440 c 128,-1,8
 392 472 392 472 330 472 c 0,9,10
 241 472 241 472 207 422 c 128,-1,11
 173 372 173 372 173 278 c 2,12,-1
 173 0 l 1,13,-1
 85 0 l 1,14,-1
 85 536 l 1,15,-1
 156 536 l 1,16,-1
 169 463 l 1,17,-1
 174 463 l 1,18,19
 192 491 192 491 218.5 509.5 c 128,-1,20
 245 528 245 528 277 537 c 128,-1,21
 309 546 309 546 343 546 c 0,0,1
EndSplineSet
Substitution2: "'smcp' Lowercase to Small Capitals lookup 39 subtable" n.sc
Substitution2: "'sups' Superscript lookup 25 subtable" uni207F
Substitution2: "'sinf' Scientific Inferiors lookup 24 subtable" uni2099
Substitution2: "'subs' Subscript lookup 23 subtable" uni2099
AlternateSubs2: "'aalt' Access All Alternates lookup 1 subtable" uni207F n.sc uni2099
EndChar

StartChar: o
Encoding: 111 111 81
Width: 605
GlyphClass: 2
Flags: W
AnchorPoint: "Anchor-7" 303 268 basechar 0
AnchorPoint: "Anchor-6" 575 536 basechar 0
AnchorPoint: "Anchor-5" 301 0 basechar 0
AnchorPoint: "Anchor-4" 303 536 basechar 0
LayerCount: 2
Fore
SplineSet
551 269 m 0,0,1
 551 202 551 202 533.5 150.5 c 128,-1,2
 516 99 516 99 483.5 63 c 128,-1,3
 451 27 451 27 404.5 8.5 c 128,-1,4
 358 -10 358 -10 301 -10 c 0,5,6
 248 -10 248 -10 203 8.5 c 128,-1,7
 158 27 158 27 125 63 c 128,-1,8
 92 99 92 99 73.5 150.5 c 128,-1,9
 55 202 55 202 55 269 c 0,10,11
 55 358 55 358 85 419.5 c 128,-1,12
 115 481 115 481 171 513.5 c 128,-1,13
 227 546 227 546 304 546 c 0,14,15
 377 546 377 546 432.5 513.5 c 128,-1,16
 488 481 488 481 519.5 419.5 c 128,-1,17
 551 358 551 358 551 269 c 0,0,1
146 269 m 0,18,19
 146 206 146 206 162.5 159.5 c 128,-1,20
 179 113 179 113 214 88 c 128,-1,21
 249 63 249 63 303 63 c 256,22,23
 357 63 357 63 392 88 c 128,-1,24
 427 113 427 113 443.5 159.5 c 128,-1,25
 460 206 460 206 460 269 c 0,26,27
 460 333 460 333 443 378 c 128,-1,28
 426 423 426 423 391.5 447.5 c 128,-1,29
 357 472 357 472 302 472 c 0,30,31
 220 472 220 472 183 418 c 128,-1,32
 146 364 146 364 146 269 c 0,18,19
EndSplineSet
Substitution2: "'smcp' Lowercase to Small Capitals lookup 39 subtable" o.sc
Substitution2: "Single Substitution lookup 33 subtable" ordmasculine
AlternateSubs2: "'aalt' Access All Alternates lookup 1 subtable" ordmasculine o.sc
EndChar

StartChar: p
Encoding: 112 112 82
Width: 615
GlyphClass: 2
Flags: W
AnchorPoint: "Anchor-7" 322 153 basechar 0
AnchorPoint: "Anchor-6" 585 536 basechar 0
AnchorPoint: "Anchor-5" 129 -240 basechar 0
AnchorPoint: "Anchor-4" 332 536 basechar 0
LayerCount: 2
Fore
SplineSet
340 546 m 0,0,1
 439 546 439 546 499.5 477 c 128,-1,2
 560 408 560 408 560 269 c 0,3,4
 560 178 560 178 532.5 115.5 c 128,-1,5
 505 53 505 53 455.5 21.5 c 128,-1,6
 406 -10 406 -10 339 -10 c 0,7,8
 298 -10 298 -10 266 1 c 128,-1,9
 234 12 234 12 211.5 29.5 c 128,-1,10
 189 47 189 47 173 68 c 1,11,-1
 167 68 l 1,12,13
 169 51 169 51 171 25 c 128,-1,14
 173 -1 173 -1 173 -20 c 2,15,-1
 173 -240 l 1,16,-1
 85 -240 l 1,17,-1
 85 536 l 1,18,-1
 157 536 l 1,19,-1
 169 463 l 1,20,-1
 173 463 l 1,21,22
 189 486 189 486 211.5 505 c 128,-1,23
 234 524 234 524 265.5 535 c 128,-1,24
 297 546 297 546 340 546 c 0,0,1
324 472 m 0,25,26
 270 472 270 472 237 451.5 c 128,-1,27
 204 431 204 431 189 390 c 128,-1,28
 174 349 174 349 173 286 c 2,29,-1
 173 269 l 2,30,31
 173 203 173 203 187 157 c 128,-1,32
 201 111 201 111 234.5 87 c 128,-1,33
 268 63 268 63 326 63 c 0,34,35
 375 63 375 63 406.5 90 c 128,-1,36
 438 117 438 117 453.5 163.5 c 128,-1,37
 469 210 469 210 469 270 c 0,38,39
 469 362 469 362 433.5 417 c 128,-1,40
 398 472 398 472 324 472 c 0,25,26
EndSplineSet
Substitution2: "'smcp' Lowercase to Small Capitals lookup 39 subtable" p.sc
Substitution2: "'sinf' Scientific Inferiors lookup 24 subtable" uni209A
Substitution2: "'subs' Subscript lookup 23 subtable" uni209A
AlternateSubs2: "'aalt' Access All Alternates lookup 1 subtable" p.sc uni209A
EndChar

StartChar: q
Encoding: 113 113 83
Width: 534
GlyphClass: 2
Flags: W
AnchorPoint: "Anchor-1" 267 765 basechar 0
AnchorPoint: "Anchor-0" 267 0 basechar 0
LayerCount: 2
Fore
SplineSet
206 765 m 0,0,1
 225 765 225 765 243 761 c 128,-1,2
 261 757 261 757 271 752 c 1,3,-1
 271 679 l 1,4,5
 264 682 264 682 250 685.5 c 128,-1,6
 236 689 236 689 219 689 c 0,7,8
 197 689 197 689 184.5 676 c 128,-1,9
 172 663 172 663 172 631 c 2,10,-1
 172 363 l 2,11,12
 172 347 172 347 171 321 c 128,-1,13
 170 295 170 295 168 276 c 1,14,-1
 172 276 l 1,15,16
 178 285 178 285 190 299.5 c 128,-1,17
 202 314 202 314 214.5 329.5 c 128,-1,18
 227 345 227 345 236 355 c 2,19,-1
 407 536 l 1,20,-1
 510 536 l 1,21,-1
 293 307 l 1,22,-1
 525 0 l 1,23,-1
 419 0 l 1,24,-1
 233 250 l 1,25,-1
 172 197 l 1,26,-1
 172 0 l 1,27,-1
 85 0 l 1,28,-1
 85 625 l 2,29,30
 85 765 85 765 206 765 c 0,0,1
EndSplineSet
Substitution2: "'smcp' Lowercase to Small Capitals lookup 39 subtable" q.sc
Substitution2: "'aalt' Access All Alternates lookup 0 subtable" q.sc
EndChar

StartChar: r
Encoding: 114 114 84
Width: 413
GlyphClass: 2
Flags: W
AnchorPoint: "Anchor-7" 241 273 basechar 0
AnchorPoint: "Anchor-6" 393 536 basechar 0
AnchorPoint: "Anchor-5" 126 0 basechar 0
AnchorPoint: "Anchor-4" 240 536 basechar 0
LayerCount: 2
Fore
SplineSet
335 546 m 0,0,1
 350 546 350 546 367.5 544.5 c 128,-1,2
 385 543 385 543 398 540 c 1,3,-1
 387 459 l 1,4,5
 374 462 374 462 358.5 464 c 128,-1,6
 343 466 343 466 329 466 c 0,7,8
 298 466 298 466 270 453 c 128,-1,9
 242 440 242 440 220 416.5 c 128,-1,10
 198 393 198 393 185.5 360 c 128,-1,11
 173 327 173 327 173 286 c 2,12,-1
 173 0 l 1,13,-1
 85 0 l 1,14,-1
 85 536 l 1,15,-1
 157 536 l 1,16,-1
 167 438 l 1,17,-1
 171 438 l 1,18,19
 188 468 188 468 212 492.5 c 128,-1,20
 236 517 236 517 267 531.5 c 128,-1,21
 298 546 298 546 335 546 c 0,0,1
EndSplineSet
Substitution2: "'smcp' Lowercase to Small Capitals lookup 39 subtable" r.sc
Substitution2: "'aalt' Access All Alternates lookup 0 subtable" r.sc
EndChar

StartChar: s
Encoding: 115 115 85
Width: 479
GlyphClass: 2
Flags: W
AnchorPoint: "Anchor-7" 242 268 basechar 0
AnchorPoint: "Anchor-6" 439 536 basechar 0
AnchorPoint: "Anchor-5" 240 0 basechar 0
AnchorPoint: "Anchor-4" 240 536 basechar 0
LayerCount: 2
Fore
SplineSet
434 148 m 0,0,1
 434 96 434 96 408 61 c 128,-1,2
 382 26 382 26 334 8 c 128,-1,3
 286 -10 286 -10 220 -10 c 0,4,5
 164 -10 164 -10 123.5 -1 c 128,-1,6
 83 8 83 8 52 24 c 1,7,-1
 52 104 l 1,8,9
 84 88 84 88 129.5 74.5 c 128,-1,10
 175 61 175 61 222 61 c 0,11,12
 289 61 289 61 319 82.5 c 128,-1,13
 349 104 349 104 349 140 c 0,14,15
 349 160 349 160 338 176 c 128,-1,16
 327 192 327 192 298.5 208 c 128,-1,17
 270 224 270 224 217 244 c 0,18,19
 165 264 165 264 128 284 c 128,-1,20
 91 304 91 304 71 332 c 128,-1,21
 51 360 51 360 51 404 c 0,22,23
 51 472 51 472 106.5 509 c 128,-1,24
 162 546 162 546 252 546 c 0,25,26
 301 546 301 546 343.5 536.5 c 128,-1,27
 386 527 386 527 423 510 c 1,28,-1
 393 440 l 1,29,30
 359 454 359 454 322 464 c 128,-1,31
 285 474 285 474 246 474 c 0,32,33
 192 474 192 474 163.5 456.5 c 128,-1,34
 135 439 135 439 135 409 c 0,35,36
 135 387 135 387 148 371.5 c 128,-1,37
 161 356 161 356 191.5 341.5 c 128,-1,38
 222 327 222 327 273 307 c 0,39,40
 324 288 324 288 360 268 c 128,-1,41
 396 248 396 248 415 219.5 c 128,-1,42
 434 191 434 191 434 148 c 0,0,1
EndSplineSet
Substitution2: "'smcp' Lowercase to Small Capitals lookup 39 subtable" s.sc
Substitution2: "'sinf' Scientific Inferiors lookup 24 subtable" uni209B
Substitution2: "'subs' Subscript lookup 23 subtable" uni209B
AlternateSubs2: "'aalt' Access All Alternates lookup 1 subtable" s.sc uni209B
EndChar

StartChar: t
Encoding: 116 116 86
Width: 361
GlyphClass: 2
Flags: W
AnchorPoint: "Anchor-7" 181 268 basechar 0
AnchorPoint: "Anchor-6" 225 840 basechar 0
AnchorPoint: "Anchor-5" 214 0 basechar 0
AnchorPoint: "Anchor-4" 154 659 basechar 0
LayerCount: 2
Fore
SplineSet
264 62 m 0,0,1
 284 62 284 62 305 65.5 c 128,-1,2
 326 69 326 69 339 73 c 1,3,-1
 339 6 l 1,4,5
 325 -1 325 -1 299 -5.5 c 128,-1,6
 273 -10 273 -10 249 -10 c 0,7,8
 207 -10 207 -10 171.5 4.5 c 128,-1,9
 136 19 136 19 114 55 c 128,-1,10
 92 91 92 91 92 156 c 2,11,-1
 92 468 l 1,12,-1
 16 468 l 1,13,-1
 16 510 l 1,14,-1
 93 545 l 1,15,-1
 128 659 l 1,16,-1
 180 659 l 1,17,-1
 180 536 l 1,18,-1
 335 536 l 1,19,-1
 335 468 l 1,20,-1
 180 468 l 1,21,-1
 180 158 l 2,22,23
 180 109 180 109 203.5 85.5 c 128,-1,24
 227 62 227 62 264 62 c 0,0,1
EndSplineSet
Substitution2: "'smcp' Lowercase to Small Capitals lookup 39 subtable" t.sc
Substitution2: "'sinf' Scientific Inferiors lookup 24 subtable" uni209C
Substitution2: "'subs' Subscript lookup 23 subtable" uni209C
AlternateSubs2: "'aalt' Access All Alternates lookup 1 subtable" t.sc uni209C
EndChar

StartChar: u
Encoding: 117 117 87
Width: 618
GlyphClass: 2
Flags: W
AnchorPoint: "Anchor-7" 306 263 basechar 0
AnchorPoint: "Anchor-6" 562 536 basechar 0
AnchorPoint: "Anchor-5" 294 0 basechar 0
AnchorPoint: "Anchor-4" 309 536 basechar 0
LayerCount: 2
Fore
SplineSet
533 536 m 1,0,-1
 533 0 l 1,1,-1
 461 0 l 1,2,-1
 448 71 l 1,3,-1
 444 71 l 1,4,5
 427 43 427 43 400 25 c 128,-1,6
 373 7 373 7 341 -1.5 c 128,-1,7
 309 -10 309 -10 274 -10 c 0,8,9
 210 -10 210 -10 166.5 10.5 c 128,-1,10
 123 31 123 31 101 74 c 128,-1,11
 79 117 79 117 79 185 c 2,12,-1
 79 536 l 1,13,-1
 168 536 l 1,14,-1
 168 191 l 2,15,16
 168 127 168 127 197 95 c 128,-1,17
 226 63 226 63 287 63 c 0,18,19
 347 63 347 63 381.5 85.5 c 128,-1,20
 416 108 416 108 430.5 151.5 c 128,-1,21
 445 195 445 195 445 257 c 2,22,-1
 445 536 l 1,23,-1
 533 536 l 1,0,-1
EndSplineSet
Substitution2: "'smcp' Lowercase to Small Capitals lookup 39 subtable" u.sc
Substitution2: "'aalt' Access All Alternates lookup 0 subtable" u.sc
EndChar

StartChar: v
Encoding: 118 118 88
Width: 508
GlyphClass: 2
Flags: W
AnchorPoint: "Anchor-7" 254 268 basechar 0
AnchorPoint: "Anchor-6" 488 536 basechar 0
AnchorPoint: "Anchor-5" 252 0 basechar 0
AnchorPoint: "Anchor-4" 252 536 basechar 0
LayerCount: 2
Fore
SplineSet
203 0 m 1,0,-1
 0 536 l 1,1,-1
 94 536 l 1,2,-1
 208 220 l 2,3,4
 216 198 216 198 225 171 c 128,-1,5
 234 144 234 144 241 119.5 c 128,-1,6
 248 95 248 95 251 78 c 1,7,-1
 255 78 l 1,8,9
 259 95 259 95 266.5 120 c 128,-1,10
 274 145 274 145 283.5 172 c 128,-1,11
 293 199 293 199 300 220 c 2,12,-1
 414 536 l 1,13,-1
 508 536 l 1,14,-1
 304 0 l 1,15,-1
 203 0 l 1,0,-1
EndSplineSet
Substitution2: "'smcp' Lowercase to Small Capitals lookup 39 subtable" v.sc
Substitution2: "'aalt' Access All Alternates lookup 0 subtable" v.sc
EndChar

StartChar: w
Encoding: 119 119 89
Width: 516
GlyphClass: 2
Flags: W
AnchorPoint: "Anchor-1" 259 536 basechar 0
AnchorPoint: "Anchor-0" 258 0 basechar 0
LayerCount: 2
Fore
SplineSet
259 682 m 4,0,1
 279 682 279 682 294.5 668.5 c 132,-1,2
 310 655 310 655 310 626 c 4,3,4
 310 598 310 598 294.5 584 c 132,-1,5
 279 570 279 570 259 570 c 4,6,7
 237 570 237 570 222 584 c 132,-1,8
 207 598 207 598 207 626 c 4,9,10
 207 655 207 655 222 668.5 c 132,-1,11
 237 682 237 682 259 682 c 4,0,1
496 541 m 0,12,13
 508 541 508 541 518 539 c 128,-1,14
 528 537 528 537 537 535 c 1,15,-1
 537 467 l 1,16,17
 524 472 524 472 503 472 c 0,18,19
 481 472 481 472 467 452 c 128,-1,20
 453 432 453 432 439 390 c 2,21,-1
 316 0 l 1,22,-1
 199 0 l 1,23,-1
 0 536 l 1,24,-1
 92 536 l 1,25,-1
 219 181 l 2,26,27
 234 139 234 139 244 107.5 c 128,-1,28
 254 76 254 76 256 62 c 1,29,-1
 260 62 l 1,30,31
 264 83 264 83 272 119 c 128,-1,32
 280 155 280 155 291 189 c 2,33,-1
 361 407 l 2,34,35
 378 459 378 459 394.5 488 c 128,-1,36
 411 517 411 517 434.5 529 c 128,-1,37
 458 541 458 541 496 541 c 0,12,13
EndSplineSet
Substitution2: "'smcp' Lowercase to Small Capitals lookup 39 subtable" w.sc
Substitution2: "'aalt' Access All Alternates lookup 0 subtable" w.sc
EndChar

StartChar: x
Encoding: 120 120 90
Width: 529
GlyphClass: 2
Flags: W
AnchorPoint: "Anchor-7" 264 268 basechar 0
AnchorPoint: "Anchor-6" 509 536 basechar 0
AnchorPoint: "Anchor-5" 265 0 basechar 0
AnchorPoint: "Anchor-4" 263 536 basechar 0
LayerCount: 2
Fore
SplineSet
212 274 m 1,0,-1
 27 536 l 1,1,-1
 127 536 l 1,2,-1
 265 334 l 1,3,-1
 402 536 l 1,4,-1
 501 536 l 1,5,-1
 316 274 l 1,6,-1
 511 0 l 1,7,-1
 411 0 l 1,8,-1
 265 214 l 1,9,-1
 117 0 l 1,10,-1
 18 0 l 1,11,-1
 212 274 l 1,0,-1
EndSplineSet
Substitution2: "'smcp' Lowercase to Small Capitals lookup 39 subtable" x.sc
Substitution2: "'aalt' Access All Alternates lookup 0 subtable" x.sc
EndChar

StartChar: y
Encoding: 121 121 91
Width: 510
GlyphClass: 2
Flags: W
AnchorPoint: "Anchor-7" 255 148 basechar 0
AnchorPoint: "Anchor-6" 490 536 basechar 0
AnchorPoint: "Anchor-5" 94 -240 basechar 0
AnchorPoint: "Anchor-4" 255 536 basechar 0
LayerCount: 2
Fore
SplineSet
1 536 m 1,0,-1
 95 536 l 1,1,-1
 211 231 l 2,2,3
 221 204 221 204 229.5 179 c 128,-1,4
 238 154 238 154 245 130.5 c 128,-1,5
 252 107 252 107 256 85 c 1,6,-1
 260 85 l 1,7,8
 266 110 266 110 279 150.5 c 128,-1,9
 292 191 292 191 306 232 c 2,10,-1
 415 536 l 1,11,-1
 510 536 l 1,12,-1
 279 -74 l 2,13,14
 260 -124 260 -124 234.5 -161.5 c 128,-1,15
 209 -199 209 -199 172.5 -219.5 c 128,-1,16
 136 -240 136 -240 84 -240 c 0,17,18
 60 -240 60 -240 42 -237.5 c 128,-1,19
 24 -235 24 -235 11 -232 c 1,20,-1
 11 -162 l 1,21,22
 22 -164 22 -164 37.5 -166 c 128,-1,23
 53 -168 53 -168 70 -168 c 0,24,25
 101 -168 101 -168 123.5 -156.5 c 128,-1,26
 146 -145 146 -145 162 -123.5 c 128,-1,27
 178 -102 178 -102 189 -73 c 2,28,-1
 217 -2 l 1,29,-1
 1 536 l 1,0,-1
EndSplineSet
Substitution2: "'smcp' Lowercase to Small Capitals lookup 39 subtable" y.sc
Substitution2: "'aalt' Access All Alternates lookup 0 subtable" y.sc
EndChar

StartChar: z
Encoding: 122 122 92
Width: 470
GlyphClass: 2
Flags: W
AnchorPoint: "Anchor-7" 235 268 basechar 0
AnchorPoint: "Anchor-6" 430 536 basechar 0
AnchorPoint: "Anchor-5" 242 0 basechar 0
AnchorPoint: "Anchor-4" 235 536 basechar 0
LayerCount: 2
Fore
SplineSet
431 0 m 1,0,-1
 39 0 l 1,1,-1
 39 58 l 1,2,-1
 327 468 l 1,3,-1
 56 468 l 1,4,-1
 56 536 l 1,5,-1
 424 536 l 1,6,-1
 424 470 l 1,7,-1
 140 68 l 1,8,-1
 431 68 l 1,9,-1
 431 0 l 1,0,-1
EndSplineSet
Substitution2: "'smcp' Lowercase to Small Capitals lookup 39 subtable" z.sc
Substitution2: "'aalt' Access All Alternates lookup 0 subtable" z.sc
EndChar

StartChar: braceleft
Encoding: 123 123 93
Width: 380
Flags: W
LayerCount: 2
Fore
SplineSet
348 -158 m 1,0,1
 287 -157 287 -157 242.5 -140 c 128,-1,2
 198 -123 198 -123 174 -87.5 c 128,-1,3
 150 -52 150 -52 150 1 c 2,4,-1
 150 148 l 2,5,6
 150 182 150 182 136 202.5 c 128,-1,7
 122 223 122 223 95 232.5 c 128,-1,8
 68 242 68 242 28 242 c 1,9,-1
 28 315 l 1,10,11
 68 316 68 316 95 325 c 128,-1,12
 122 334 122 334 136 354.5 c 128,-1,13
 150 375 150 375 150 408 c 2,14,-1
 150 556 l 2,15,16
 150 609 150 609 175 644 c 128,-1,17
 200 679 200 679 245 696.5 c 128,-1,18
 290 714 290 714 348 714 c 1,19,-1
 348 642 l 1,20,21
 314 641 314 641 289 631 c 128,-1,22
 264 621 264 621 250.5 601 c 128,-1,23
 237 581 237 581 237 548 c 2,24,-1
 237 404 l 2,25,26
 237 353 237 353 210 322.5 c 128,-1,27
 183 292 183 292 128 282 c 1,28,-1
 128 276 l 1,29,30
 184 266 184 266 210.5 235.5 c 128,-1,31
 237 205 237 205 237 154 c 2,32,-1
 237 7 l 2,33,34
 237 -25 237 -25 250 -45.5 c 128,-1,35
 263 -66 263 -66 288 -75.5 c 128,-1,36
 313 -85 313 -85 348 -86 c 1,37,-1
 348 -158 l 1,0,1
EndSplineSet
Substitution2: "'smcp' Lowercase to Small Capitals lookup 39 subtable" braceleft.sc
Substitution2: "'c2sc' Capitals to Small Capitals lookup 38 subtable" braceleft.sc
Substitution2: "'aalt' Access All Alternates lookup 0 subtable" braceleft.sc
EndChar

StartChar: bar
Encoding: 124 124 94
Width: 551
Flags: W
LayerCount: 2
Fore
SplineSet
239 760 m 1,0,-1
 312 760 l 1,1,-1
 312 -241 l 1,2,-1
 239 -241 l 1,3,-1
 239 760 l 1,0,-1
EndSplineSet
EndChar

StartChar: braceright
Encoding: 125 125 95
Width: 380
Flags: W
LayerCount: 2
Fore
SplineSet
32 -86 m 1,0,1
 67 -85 67 -85 91.5 -75 c 128,-1,2
 116 -65 116 -65 129.5 -44.5 c 128,-1,3
 143 -24 143 -24 143 8 c 2,4,-1
 143 153 l 2,5,6
 143 204 143 204 170 234.5 c 128,-1,7
 197 265 197 265 252 275 c 1,8,-1
 252 281 l 1,9,10
 197 291 197 291 170 321.5 c 128,-1,11
 143 352 143 352 143 403 c 2,12,-1
 143 549 l 2,13,14
 143 582 143 582 130 602 c 128,-1,15
 117 622 117 622 92.5 632 c 128,-1,16
 68 642 68 642 32 642 c 1,17,-1
 32 714 l 1,18,19
 94 714 94 714 138 696.5 c 128,-1,20
 182 679 182 679 206 644 c 128,-1,21
 230 609 230 609 230 555 c 2,22,-1
 230 409 l 2,23,24
 230 375 230 375 244 354.5 c 128,-1,25
 258 334 258 334 285.5 324.5 c 128,-1,26
 313 315 313 315 352 315 c 1,27,-1
 352 242 l 1,28,29
 313 242 313 242 285.5 232.5 c 128,-1,30
 258 223 258 223 244 203 c 128,-1,31
 230 183 230 183 230 149 c 2,32,-1
 230 0 l 2,33,34
 230 -53 230 -53 205 -88 c 128,-1,35
 180 -123 180 -123 135.5 -140.5 c 128,-1,36
 91 -158 91 -158 32 -158 c 1,37,-1
 32 -86 l 1,0,1
EndSplineSet
Substitution2: "'smcp' Lowercase to Small Capitals lookup 39 subtable" braceright.sc
Substitution2: "'c2sc' Capitals to Small Capitals lookup 38 subtable" braceright.sc
Substitution2: "'aalt' Access All Alternates lookup 0 subtable" braceright.sc
EndChar

StartChar: asciitilde
Encoding: 126 126 96
Width: 572
Flags: W
LayerCount: 2
Fore
SplineSet
269 319 m 0,0,1
 233 335 233 335 209.5 340.5 c 128,-1,2
 186 346 186 346 164 346 c 0,3,4
 136 346 136 346 105 329 c 128,-1,5
 74 312 74 312 50 287 c 1,6,-1
 50 365 l 1,7,8
 74 391 74 391 104 404.5 c 128,-1,9
 134 418 134 418 170 418 c 0,10,11
 199 418 199 418 227.5 412 c 128,-1,12
 256 406 256 406 302 386 c 0,13,14
 338 370 338 370 361.5 364.5 c 128,-1,15
 385 359 385 359 406 359 c 0,16,17
 435 359 435 359 466 376 c 128,-1,18
 497 393 497 393 521 418 c 1,19,-1
 521 341 l 1,20,21
 497 315 497 315 467 301 c 128,-1,22
 437 287 437 287 401 287 c 0,23,24
 373 287 373 287 343.5 293.5 c 128,-1,25
 314 300 314 300 269 319 c 0,0,1
EndSplineSet
EndChar

StartChar: cent
Encoding: 162 162 98
Width: 561
Flags: W
AnchorPoint: "Anchor-7" 263 267 basechar 0
AnchorPoint: "Anchor-6" 511 536 basechar 0
AnchorPoint: "Anchor-5" 281 0 basechar 0
AnchorPoint: "Anchor-4" 281 536 basechar 0
LayerCount: 2
Fore
SplineSet
288 545 m 0,0,1
 386 545 386 545 433 502 c 128,-1,2
 480 459 480 459 480 365 c 2,3,-1
 480 0 l 1,4,-1
 416 0 l 1,5,-1
 399 76 l 1,6,-1
 395 76 l 1,7,8
 372 47 372 47 347.5 27.5 c 128,-1,9
 323 8 323 8 291.5 -1 c 128,-1,10
 260 -10 260 -10 215 -10 c 0,11,12
 167 -10 167 -10 128.5 7 c 128,-1,13
 90 24 90 24 68 59.5 c 128,-1,14
 46 95 46 95 46 149 c 0,15,16
 46 229 46 229 109 272.5 c 128,-1,17
 172 316 172 316 303 320 c 2,18,-1
 394 323 l 1,19,-1
 394 355 l 2,20,21
 394 422 394 422 365 448 c 128,-1,22
 336 474 336 474 283 474 c 0,23,24
 241 474 241 474 203 461.5 c 128,-1,25
 165 449 165 449 132 433 c 1,26,-1
 105 499 l 1,27,28
 140 518 140 518 188 531.5 c 128,-1,29
 236 545 236 545 288 545 c 0,0,1
314 259 m 2,30,31
 214 255 214 255 175.5 227 c 128,-1,32
 137 199 137 199 137 148 c 0,33,34
 137 103 137 103 164.5 82 c 128,-1,35
 192 61 192 61 235 61 c 0,36,37
 303 61 303 61 348 98.5 c 128,-1,38
 393 136 393 136 393 214 c 2,39,-1
 393 262 l 1,40,-1
 314 259 l 2,30,31
EndSplineSet
EndChar

StartChar: onehalf
Encoding: 189 189 99
Width: 564
Flags: W
AnchorPoint: "Anchor-7" 284 268 basechar 0
AnchorPoint: "Anchor-6" 544 536 basechar 0
AnchorPoint: "Anchor-5" 301 0 basechar 0
AnchorPoint: "Anchor-4" 285 536 basechar 0
LayerCount: 2
Fore
SplineSet
292 546 m 0,0,1
 361 546 361 546 410.5 516 c 128,-1,2
 460 486 460 486 486.5 431.5 c 128,-1,3
 513 377 513 377 513 304 c 2,4,-1
 513 251 l 1,5,-1
 146 251 l 1,6,7
 148 160 148 160 192.5 112.5 c 128,-1,8
 237 65 237 65 317 65 c 0,9,10
 368 65 368 65 407.5 74.5 c 128,-1,11
 447 84 447 84 489 102 c 1,12,-1
 489 25 l 1,13,14
 448 7 448 7 408 -1.5 c 128,-1,15
 368 -10 368 -10 313 -10 c 0,16,17
 237 -10 237 -10 178.5 21 c 128,-1,18
 120 52 120 52 87.5 113.5 c 128,-1,19
 55 175 55 175 55 264 c 0,20,21
 55 352 55 352 84.5 415 c 128,-1,22
 114 478 114 478 167.5 512 c 128,-1,23
 221 546 221 546 292 546 c 0,0,1
291 474 m 0,24,25
 228 474 228 474 191.5 433.5 c 128,-1,26
 155 393 155 393 148 321 c 1,27,-1
 421 321 l 1,28,29
 421 367 421 367 407 401 c 128,-1,30
 393 435 393 435 364.5 454.5 c 128,-1,31
 336 474 336 474 291 474 c 0,24,25
EndSplineSet
EndChar

StartChar: oacute
Encoding: 243 243 100
Width: 258
GlyphClass: 2
Flags: W
AnchorPoint: "Anchor-7" 129 368 basechar 0
AnchorPoint: "Anchor-6" 238 737 basechar 0
AnchorPoint: "Anchor-5" 131 0 basechar 0
AnchorPoint: "Anchor-4" 129 737 basechar 0
LayerCount: 2
Fore
SplineSet
173 536 m 1,0,-1
 173 0 l 1,1,-1
 85 0 l 1,2,-1
 85 536 l 1,3,-1
 173 536 l 1,0,-1
130 737 m 0,4,5
 150 737 150 737 165.5 723.5 c 128,-1,6
 181 710 181 710 181 681 c 0,7,8
 181 653 181 653 165.5 639 c 128,-1,9
 150 625 150 625 130 625 c 0,10,11
 108 625 108 625 93 639 c 128,-1,12
 78 653 78 653 78 681 c 0,13,14
 78 710 78 710 93 723.5 c 128,-1,15
 108 737 108 737 130 737 c 0,4,5
EndSplineSet
Substitution2: "'smcp' Lowercase to Small Capitals lookup 39 subtable" oacute.sc
Substitution2: "'aalt' Access All Alternates lookup 0 subtable" oacute.sc
EndChar

StartChar: dcroat
Encoding: 273 273 101
Width: 605
GlyphClass: 2
Flags: W
AnchorPoint: "Anchor-7" 303 268 basechar 0
AnchorPoint: "Anchor-6" 575 536 basechar 0
AnchorPoint: "Anchor-5" 301 0 basechar 0
AnchorPoint: "Anchor-4" 303 766 basechar 0
LayerCount: 2
Fore
SplineSet
451 756 m 5,0,1
 442 742 442 742 425 722 c 132,-1,2
 408 702 408 702 387.5 680.5 c 132,-1,3
 367 659 367 659 346.5 639.5 c 132,-1,4
 326 620 326 620 308 606 c 5,5,-1
 250 606 l 5,6,-1
 250 618 l 5,7,8
 265 637 265 637 282.5 663 c 132,-1,9
 300 689 300 689 317 716.5 c 132,-1,10
 334 744 334 744 345 766 c 5,11,-1
 451 766 l 5,12,-1
 451 756 l 5,0,1
551 269 m 0,13,14
 551 202 551 202 533.5 150.5 c 128,-1,15
 516 99 516 99 483.5 63 c 128,-1,16
 451 27 451 27 404.5 8.5 c 128,-1,17
 358 -10 358 -10 301 -10 c 0,18,19
 248 -10 248 -10 203 8.5 c 128,-1,20
 158 27 158 27 125 63 c 128,-1,21
 92 99 92 99 73.5 150.5 c 128,-1,22
 55 202 55 202 55 269 c 0,23,24
 55 358 55 358 85 419.5 c 128,-1,25
 115 481 115 481 171 513.5 c 128,-1,26
 227 546 227 546 304 546 c 0,27,28
 377 546 377 546 432.5 513.5 c 128,-1,29
 488 481 488 481 519.5 419.5 c 128,-1,30
 551 358 551 358 551 269 c 0,13,14
146 269 m 0,31,32
 146 206 146 206 162.5 159.5 c 128,-1,33
 179 113 179 113 214 88 c 128,-1,34
 249 63 249 63 303 63 c 256,35,36
 357 63 357 63 392 88 c 128,-1,37
 427 113 427 113 443.5 159.5 c 128,-1,38
 460 206 460 206 460 269 c 0,39,40
 460 333 460 333 443 378 c 128,-1,41
 426 423 426 423 391.5 447.5 c 128,-1,42
 357 472 357 472 302 472 c 0,43,44
 220 472 220 472 183 418 c 128,-1,45
 146 364 146 364 146 269 c 0,31,32
EndSplineSet
Substitution2: "'smcp' Lowercase to Small Capitals lookup 39 subtable" dcroat.sc
Substitution2: "'aalt' Access All Alternates lookup 0 subtable" dcroat.sc
EndChar

StartChar: eogonek
Encoding: 281 281 102
Width: 561
GlyphClass: 2
Flags: W
AnchorPoint: "Anchor-1" 281 730 basechar 0
LayerCount: 2
Fore
SplineSet
141 681 m 4,0,1
 141 707 141 707 155 718.5 c 132,-1,2
 169 730 169 730 188 730 c 260,3,4
 207 730 207 730 221 718.5 c 132,-1,5
 235 707 235 707 235 681 c 4,6,7
 235 656 235 656 221 643.5 c 132,-1,8
 207 631 207 631 188 631 c 260,9,10
 169 631 169 631 155 643.5 c 132,-1,11
 141 656 141 656 141 681 c 4,0,1
329 681 m 4,12,13
 329 707 329 707 342.5 718.5 c 132,-1,14
 356 730 356 730 375 730 c 260,15,16
 394 730 394 730 408 718.5 c 132,-1,17
 422 707 422 707 422 681 c 4,18,19
 422 656 422 656 408 643.5 c 132,-1,20
 394 631 394 631 375 631 c 260,21,22
 356 631 356 631 342.5 643.5 c 132,-1,23
 329 656 329 656 329 681 c 4,12,13
551 269 m 0,24,25
 551 202 551 202 533.5 150.5 c 128,-1,26
 516 99 516 99 483.5 63 c 128,-1,27
 451 27 451 27 404.5 8.5 c 128,-1,28
 358 -10 358 -10 301 -10 c 0,29,30
 248 -10 248 -10 203 8.5 c 128,-1,31
 158 27 158 27 125 63 c 128,-1,32
 92 99 92 99 73.5 150.5 c 128,-1,33
 55 202 55 202 55 269 c 0,34,35
 55 358 55 358 85 419.5 c 128,-1,36
 115 481 115 481 171 513.5 c 128,-1,37
 227 546 227 546 304 546 c 0,38,39
 377 546 377 546 432.5 513.5 c 128,-1,40
 488 481 488 481 519.5 419.5 c 128,-1,41
 551 358 551 358 551 269 c 0,24,25
146 269 m 0,42,43
 146 206 146 206 162.5 159.5 c 128,-1,44
 179 113 179 113 214 88 c 128,-1,45
 249 63 249 63 303 63 c 256,46,47
 357 63 357 63 392 88 c 128,-1,48
 427 113 427 113 443.5 159.5 c 128,-1,49
 460 206 460 206 460 269 c 0,50,51
 460 333 460 333 443 378 c 128,-1,52
 426 423 426 423 391.5 447.5 c 128,-1,53
 357 472 357 472 302 472 c 0,54,55
 220 472 220 472 183 418 c 128,-1,56
 146 364 146 364 146 269 c 0,42,43
EndSplineSet
LCarets2: 1 0
Substitution2: "'smcp' Lowercase to Small Capitals lookup 39 subtable" eogonek.sc
Substitution2: "'locl' Localized Forms in Latin lookup 8 subtable" eogonek.loclNAV
Ligature2: "'ccmp' Glyph Composition/Decomposition lookup 5 subtable" e uni0328
AlternateSubs2: "'aalt' Access All Alternates lookup 1 subtable" eogonek.loclNAV eogonek.sc
EndChar

StartChar: itilde
Encoding: 297 297 103
Width: 618
GlyphClass: 2
Flags: W
AnchorPoint: "Anchor-7" 309 268 basechar 0
AnchorPoint: "Anchor-6" 535 760 basechar 0
AnchorPoint: "Anchor-5" 310 0 basechar 0
AnchorPoint: "Anchor-4" 130 760 basechar 0
LayerCount: 2
Fore
SplineSet
173 537 m 2,0,1
 173 518 173 518 171.5 498 c 128,-1,2
 170 478 170 478 168 462 c 1,3,-1
 174 462 l 1,4,5
 191 490 191 490 217 508 c 128,-1,6
 243 526 243 526 275 535.5 c 128,-1,7
 307 545 307 545 341 545 c 0,8,9
 406 545 406 545 449.5 524.5 c 128,-1,10
 493 504 493 504 515 461 c 128,-1,11
 537 418 537 418 537 349 c 2,12,-1
 537 0 l 1,13,-1
 450 0 l 1,14,-1
 450 343 l 2,15,16
 450 408 450 408 421 440 c 128,-1,17
 392 472 392 472 330 472 c 0,18,19
 270 472 270 472 236 449.5 c 128,-1,20
 202 427 202 427 187.5 383.5 c 128,-1,21
 173 340 173 340 173 277 c 2,22,-1
 173 0 l 1,23,-1
 85 0 l 1,24,-1
 85 760 l 1,25,-1
 173 760 l 1,26,-1
 173 537 l 2,0,1
EndSplineSet
Substitution2: "'smcp' Lowercase to Small Capitals lookup 39 subtable" itilde.sc
Substitution2: "'aalt' Access All Alternates lookup 0 subtable" itilde.sc
EndChar

StartChar: nacute
Encoding: 324 324 104
Width: 490
GlyphClass: 2
Flags: W
AnchorPoint: "Anchor-1" 245 536 basechar 0
AnchorPoint: "Anchor-0" 245 0 basechar 0
LayerCount: 2
Fore
SplineSet
301 -10 m 0,0,1
 183 -10 183 -10 118 57 c 128,-1,2
 53 124 53 124 53 245 c 0,3,4
 53 325 53 325 82 380.5 c 128,-1,5
 111 436 111 436 165 465 c 1,6,-1
 32 465 l 1,7,-1
 32 537 l 1,8,-1
 458 537 l 1,9,-1
 458 465 l 1,10,-1
 345 465 l 2,11,12
 251 465 251 465 197.5 411.5 c 128,-1,13
 144 358 144 358 144 252 c 0,14,15
 144 165 144 165 187 114.5 c 128,-1,16
 230 64 230 64 310 64 c 0,17,18
 347 64 347 64 381 73.5 c 128,-1,19
 415 83 415 83 447 99 c 1,20,-1
 447 21 l 1,21,22
 418 5 418 5 383 -2.5 c 128,-1,23
 348 -10 348 -10 301 -10 c 0,0,1
EndSplineSet
Substitution2: "'smcp' Lowercase to Small Capitals lookup 39 subtable" nacute.sc
Substitution2: "'aalt' Access All Alternates lookup 0 subtable" nacute.sc
EndChar

StartChar: zacute
Encoding: 378 378 105
Width: 599
GlyphClass: 2
Flags: W
AnchorPoint: "Anchor-7" 300 286 basechar 0
AnchorPoint: "Anchor-6" 579 572 basechar 0
AnchorPoint: "Anchor-5" 300 0 basechar 0
AnchorPoint: "Anchor-4" 300 572 basechar 0
LayerCount: 2
Fore
SplineSet
524 572 m 1,0,-1
 524 0 l 1,1,-1
 437 0 l 1,2,-1
 437 261 l 1,3,-1
 161 261 l 1,4,-1
 161 0 l 1,5,-1
 74 0 l 1,6,-1
 74 572 l 5,7,-1
 161 572 l 1,8,-1
 161 334 l 1,9,-1
 437 334 l 1,10,-1
 437 572 l 1,11,-1
 524 572 l 1,0,-1
EndSplineSet
Substitution2: "'smcp' Lowercase to Small Capitals lookup 39 subtable" zacute.sc
Substitution2: "'aalt' Access All Alternates lookup 0 subtable" zacute.sc
EndChar

StartChar: uni032A
Encoding: 810 810 106
Width: 615
GlyphClass: 4
Flags: W
AnchorPoint: "Anchor-7" 322 375 basechar 0
AnchorPoint: "Anchor-6" 515 760 basechar 0
AnchorPoint: "Anchor-5" 322 0 basechar 0
AnchorPoint: "Anchor-4" 338 760 basechar 0
LayerCount: 2
Fore
SplineSet
173 575 m 2,0,1
 173 541 173 541 171.5 511.5 c 128,-1,2
 170 482 170 482 168 465 c 1,3,-1
 173 465 l 1,4,5
 196 499 196 499 236 522 c 128,-1,6
 276 545 276 545 339 545 c 0,7,8
 439 545 439 545 499.5 475.5 c 128,-1,9
 560 406 560 406 560 268 c 0,10,11
 560 176 560 176 532.5 114 c 128,-1,12
 505 52 505 52 455 21 c 128,-1,13
 405 -10 405 -10 339 -10 c 0,14,15
 276 -10 276 -10 236 13 c 128,-1,16
 196 36 196 36 173 68 c 1,17,-1
 166 68 l 1,18,-1
 148 0 l 1,19,-1
 85 0 l 1,20,-1
 85 760 l 1,21,-1
 173 760 l 1,22,-1
 173 575 l 2,0,1
324 472 m 0,23,24
 267 472 267 472 234 450.5 c 128,-1,25
 201 429 201 429 187 384.5 c 128,-1,26
 173 340 173 340 173 271 c 2,27,-1
 173 267 l 2,28,29
 173 168 173 168 205.5 115.5 c 128,-1,30
 238 63 238 63 326 63 c 0,31,32
 398 63 398 63 433.5 116 c 128,-1,33
 469 169 469 169 469 269 c 0,34,35
 469 370 469 370 433.5 421 c 128,-1,36
 398 472 398 472 324 472 c 0,23,24
EndSplineSet
EndChar

StartChar: uni0349
Encoding: 841 841 107
Width: 479
GlyphClass: 4
Flags: W
AnchorPoint: "Anchor-7" 242 268 basechar 0
AnchorPoint: "Anchor-6" 439 536 basechar 0
AnchorPoint: "Anchor-5" 240 0 basechar 0
AnchorPoint: "Anchor-4" 240 766 basechar 0
LayerCount: 2
Fore
SplineSet
434 148 m 0,0,1
 434 96 434 96 408 61 c 128,-1,2
 382 26 382 26 334 8 c 128,-1,3
 286 -10 286 -10 220 -10 c 0,4,5
 164 -10 164 -10 123.5 -1 c 128,-1,6
 83 8 83 8 52 24 c 1,7,-1
 52 104 l 1,8,9
 84 88 84 88 129.5 74.5 c 128,-1,10
 175 61 175 61 222 61 c 0,11,12
 289 61 289 61 319 82.5 c 128,-1,13
 349 104 349 104 349 140 c 0,14,15
 349 160 349 160 338 176 c 128,-1,16
 327 192 327 192 298.5 208 c 128,-1,17
 270 224 270 224 217 244 c 0,18,19
 165 264 165 264 128 284 c 128,-1,20
 91 304 91 304 71 332 c 128,-1,21
 51 360 51 360 51 404 c 0,22,23
 51 472 51 472 106.5 509 c 128,-1,24
 162 546 162 546 252 546 c 0,25,26
 301 546 301 546 343.5 536.5 c 128,-1,27
 386 527 386 527 423 510 c 1,28,-1
 393 440 l 1,29,30
 359 454 359 454 322 464 c 128,-1,31
 285 474 285 474 246 474 c 0,32,33
 192 474 192 474 163.5 456.5 c 128,-1,34
 135 439 135 439 135 409 c 0,35,36
 135 387 135 387 148 371.5 c 128,-1,37
 161 356 161 356 191.5 341.5 c 128,-1,38
 222 327 222 327 273 307 c 0,39,40
 324 288 324 288 360 268 c 128,-1,41
 396 248 396 248 415 219.5 c 128,-1,42
 434 191 434 191 434 148 c 0,0,1
194 606 m 1,43,44
 181 629 181 629 159 655.5 c 128,-1,45
 137 682 137 682 113 708 c 128,-1,46
 89 734 89 734 71 753 c 1,47,-1
 71 766 l 1,48,-1
 131 766 l 1,49,50
 157 749 157 749 185 725 c 128,-1,51
 213 701 213 701 238 674 c 1,52,53
 265 701 265 701 293 725 c 128,-1,54
 321 749 321 749 347 766 c 1,55,-1
 409 766 l 1,56,-1
 409 753 l 1,57,58
 390 734 390 734 365.5 708 c 128,-1,59
 341 682 341 682 318.5 655.5 c 128,-1,60
 296 629 296 629 284 606 c 1,61,-1
 194 606 l 1,43,44
EndSplineSet
EndChar

StartChar: uni0360
Encoding: 864 864 108
Width: 529
GlyphClass: 4
Flags: W
AnchorPoint: "Anchor-7" 264 268 basechar 0
AnchorPoint: "Anchor-6" 509 536 basechar 0
AnchorPoint: "Anchor-5" 265 0 basechar 0
AnchorPoint: "Anchor-4" 263 536 basechar 0
LayerCount: 2
Fore
SplineSet
212 274 m 1,0,-1
 27 536 l 1,1,-1
 127 536 l 1,2,-1
 265 334 l 1,3,-1
 402 536 l 1,4,-1
 501 536 l 1,5,-1
 316 274 l 1,6,-1
 511 0 l 1,7,-1
 411 0 l 1,8,-1
 265 214 l 1,9,-1
 117 0 l 1,10,-1
 18 0 l 1,11,-1
 212 274 l 1,0,-1
EndSplineSet
EndChar

StartChar: uni0361
Encoding: 865 865 109
Width: 529
GlyphClass: 4
Flags: W
AnchorPoint: "Anchor-7" 264 268 basechar 0
AnchorPoint: "Anchor-5" 265 0 basechar 0
AnchorPoint: "Anchor-4" 265 536 basechar 0
LayerCount: 2
Fore
SplineSet
56 310 m 1,0,-1
 187 310 l 1,1,-1
 27 536 l 1,2,-1
 127 536 l 1,3,-1
 265 334 l 1,4,-1
 402 536 l 1,5,-1
 501 536 l 1,6,-1
 340 310 l 1,7,-1
 474 310 l 1,8,-1
 474 242 l 1,9,-1
 338 242 l 1,10,-1
 511 0 l 1,11,-1
 411 0 l 1,12,-1
 265 214 l 1,13,-1
 117 0 l 1,14,-1
 18 0 l 1,15,-1
 190 242 l 1,16,-1
 56 242 l 1,17,-1
 56 310 l 1,0,-1
EndSplineSet
EndChar

StartChar: uni0345
Encoding: 837 837 110
Width: 479
GlyphClass: 4
Flags: W
AnchorPoint: "Anchor-7" 242 268 basechar 0
AnchorPoint: "Anchor-6" 439 536 basechar 0
AnchorPoint: "Anchor-5" 240 0 basechar 0
AnchorPoint: "Anchor-4" 240 536 basechar 0
LayerCount: 2
Fore
SplineSet
434 148 m 0,0,1
 434 96 434 96 408 61 c 128,-1,2
 382 26 382 26 334 8 c 128,-1,3
 286 -10 286 -10 220 -10 c 0,4,5
 164 -10 164 -10 123.5 -1 c 128,-1,6
 83 8 83 8 52 24 c 1,7,-1
 52 104 l 1,8,9
 84 88 84 88 129.5 74.5 c 128,-1,10
 175 61 175 61 222 61 c 0,11,12
 289 61 289 61 319 82.5 c 128,-1,13
 349 104 349 104 349 140 c 0,14,15
 349 160 349 160 338 176 c 128,-1,16
 327 192 327 192 298.5 208 c 128,-1,17
 270 224 270 224 217 244 c 0,18,19
 165 264 165 264 128 284 c 128,-1,20
 91 304 91 304 71 332 c 128,-1,21
 51 360 51 360 51 404 c 0,22,23
 51 472 51 472 106.5 509 c 128,-1,24
 162 546 162 546 252 546 c 0,25,26
 301 546 301 546 343.5 536.5 c 128,-1,27
 386 527 386 527 423 510 c 1,28,-1
 393 440 l 1,29,30
 359 454 359 454 322 464 c 128,-1,31
 285 474 285 474 246 474 c 0,32,33
 192 474 192 474 163.5 456.5 c 128,-1,34
 135 439 135 439 135 409 c 0,35,36
 135 387 135 387 148 371.5 c 128,-1,37
 161 356 161 356 191.5 341.5 c 128,-1,38
 222 327 222 327 273 307 c 0,39,40
 324 288 324 288 360 268 c 128,-1,41
 396 248 396 248 415 219.5 c 128,-1,42
 434 191 434 191 434 148 c 0,0,1
EndSplineSet
EndChar

StartChar: uni0365
Encoding: 869 869 111
Width: 572
GlyphClass: 4
Flags: W
LayerCount: 2
Fore
SplineSet
456 574 m 1,0,-1
 506 523 l 1,1,-1
 336 353 l 1,2,-1
 505 183 l 1,3,-1
 455 132 l 1,4,-1
 284 301 l 1,5,-1
 117 132 l 1,6,-1
 65 183 l 1,7,-1
 234 353 l 1,8,-1
 64 522 l 1,9,-1
 116 574 l 1,10,-1
 285 403 l 1,11,-1
 456 574 l 1,0,-1
EndSplineSet
EndChar

StartChar: uni03F7
Encoding: 1015 1015 112
Width: 678
GlyphClass: 2
Flags: W
LayerCount: 2
Fore
SplineSet
0 551 m 1,0,-1
 0 622 l 1,1,-1
 693 622 l 1,2,-1
 693 551 l 1,3,-1
 589 551 l 1,4,-1
 589 0 l 1,5,-1
 508 0 l 1,6,-1
 508 377 l 1,7,-1
 552 341 l 2,8,9
 535 351 535 351 520.5 353.5 c 128,-1,10
 506 356 506 356 494 356 c 0,11,12
 470 356 470 356 445 344 c 128,-1,13
 420 332 420 332 397 300.5 c 128,-1,14
 374 269 374 269 356 208 c 1,15,-1
 279 232 l 1,16,17
 304 327 304 327 361.5 376.5 c 128,-1,18
 419 426 419 426 499 426 c 0,19,20
 516 426 516 426 533 423 c 128,-1,21
 550 420 550 420 562 416 c 1,22,-1
 565 394 l 1,23,-1
 508 413 l 1,24,-1
 508 551 l 1,25,-1
 0 551 l 1,0,-1
337 292 m 1,26,27
 306 318 306 318 276.5 335.5 c 128,-1,28
 247 353 247 353 209 353 c 0,29,30
 169 353 169 353 147.5 330 c 128,-1,31
 126 307 126 307 126 271 c 0,32,33
 126 233 126 233 147.5 198.5 c 128,-1,34
 169 164 169 164 210 126.5 c 128,-1,35
 251 89 251 89 309 40 c 1,36,-1
 255 -12 l 1,37,38
 197 38 197 38 149 83.5 c 128,-1,39
 101 129 101 129 73 175.5 c 128,-1,40
 45 222 45 222 45 275 c 0,41,42
 45 315 45 315 59.5 343.5 c 128,-1,43
 74 372 74 372 97.5 390.5 c 128,-1,44
 121 409 121 409 149 417.5 c 128,-1,45
 177 426 177 426 204 426 c 0,46,47
 237 426 237 426 265 418 c 128,-1,48
 293 410 293 410 319 394.5 c 128,-1,49
 345 379 345 379 369 357 c 1,50,-1
 337 292 l 1,26,27
EndSplineSet
EndChar

StartChar: uni03F9
Encoding: 1017 1017 113
Width: 555
GlyphClass: 2
Flags: W
LayerCount: 2
Fore
SplineSet
0 622 m 1,0,-1
 569 622 l 1,1,-1
 569 551 l 1,2,-1
 466 551 l 1,3,-1
 466 0 l 1,4,-1
 385 0 l 1,5,-1
 385 298 l 1,6,-1
 204 298 l 1,7,-1
 204 244 l 2,8,9
 204 216 204 216 190 202 c 128,-1,10
 176 188 176 188 153 188 c 0,11,12
 135 188 135 188 114.5 200 c 128,-1,13
 94 212 94 212 76.5 232 c 128,-1,14
 59 252 59 252 48 274.5 c 128,-1,15
 37 297 37 297 37 318 c 0,16,17
 37 341 37 341 50.5 355 c 128,-1,18
 64 369 64 369 98 369 c 2,19,-1
 385 369 l 1,20,-1
 385 551 l 1,21,-1
 0 551 l 1,22,-1
 0 622 l 1,0,-1
EndSplineSet
EndChar

StartChar: uni03FA
Encoding: 1018 1018 114
Width: 605
GlyphClass: 2
Flags: W
LayerCount: 2
Fore
SplineSet
551 269 m 0,0,1
 551 202 551 202 533.5 150.5 c 128,-1,2
 516 99 516 99 483.5 63 c 128,-1,3
 451 27 451 27 404.5 8.5 c 128,-1,4
 358 -10 358 -10 301 -10 c 0,5,6
 248 -10 248 -10 203 8.5 c 128,-1,7
 158 27 158 27 125 63 c 128,-1,8
 92 99 92 99 73.5 150.5 c 128,-1,9
 55 202 55 202 55 269 c 0,10,11
 55 358 55 358 85 419.5 c 128,-1,12
 115 481 115 481 171 513.5 c 128,-1,13
 227 546 227 546 304 546 c 0,14,15
 377 546 377 546 432.5 513.5 c 128,-1,16
 488 481 488 481 519.5 419.5 c 128,-1,17
 551 358 551 358 551 269 c 0,0,1
146 269 m 0,18,19
 146 206 146 206 162.5 159.5 c 128,-1,20
 179 113 179 113 214 88 c 128,-1,21
 249 63 249 63 303 63 c 256,22,23
 357 63 357 63 392 88 c 128,-1,24
 427 113 427 113 443.5 159.5 c 128,-1,25
 460 206 460 206 460 269 c 0,26,27
 460 333 460 333 443 378 c 128,-1,28
 426 423 426 423 391.5 447.5 c 128,-1,29
 357 472 357 472 302 472 c 0,30,31
 220 472 220 472 183 418 c 128,-1,32
 146 364 146 364 146 269 c 0,18,19
EndSplineSet
EndChar

StartChar: uni037B
Encoding: 891 891 115
Width: 799
GlyphClass: 2
Flags: W
AnchorPoint: "Anchor-7" 400 263 basechar 0
AnchorPoint: "Anchor-5" 400 0 basechar 0
AnchorPoint: "Anchor-4" 400 536 basechar 0
LayerCount: 2
Fore
SplineSet
256 -10 m 0,0,1
 194 -10 194 -10 151.5 24 c 128,-1,2
 109 58 109 58 87 119 c 128,-1,3
 65 180 65 180 65 260 c 0,4,5
 65 355 65 355 91 424 c 128,-1,6
 117 493 117 493 154 536 c 1,7,-1
 244 536 l 1,8,9
 219 507 219 507 198.5 467.5 c 128,-1,10
 178 428 178 428 165.5 376 c 128,-1,11
 153 324 153 324 153 259 c 0,12,13
 153 162 153 162 183 112.5 c 128,-1,14
 213 63 213 63 262 63 c 0,15,16
 295 63 295 63 316.5 80 c 128,-1,17
 338 97 338 97 348 126.5 c 128,-1,18
 358 156 358 156 358 193 c 2,19,-1
 358 354 l 1,20,-1
 442 354 l 1,21,-1
 442 193 l 2,22,23
 442 152 442 152 453.5 122.5 c 128,-1,24
 465 93 465 93 486 78 c 128,-1,25
 507 63 507 63 537 63 c 0,26,27
 571 63 571 63 595.5 85 c 128,-1,28
 620 107 620 107 633.5 151 c 128,-1,29
 647 195 647 195 647 259 c 0,30,31
 647 322 647 322 636 372.5 c 128,-1,32
 625 423 625 423 604.5 463.5 c 128,-1,33
 584 504 584 504 556 536 c 1,34,-1
 646 536 l 1,35,36
 673 505 673 505 693 464.5 c 128,-1,37
 713 424 713 424 724 373 c 128,-1,38
 735 322 735 322 735 260 c 0,39,40
 735 180 735 180 713 119 c 128,-1,41
 691 58 691 58 648.5 24 c 128,-1,42
 606 -10 606 -10 544 -10 c 0,43,44
 489 -10 489 -10 454 15.5 c 128,-1,45
 419 41 419 41 402 100 c 1,46,-1
 397 100 l 1,47,48
 387 61 387 61 368 36.5 c 128,-1,49
 349 12 349 12 321 1 c 128,-1,50
 293 -10 293 -10 256 -10 c 0,0,1
EndSplineSet
EndChar

StartChar: uni037C
Encoding: 892 892 116
Width: 858
GlyphClass: 2
Flags: W
AnchorPoint: "Anchor-7" 429 263 basechar 0
LayerCount: 2
Fore
SplineSet
285 -10 m 0,0,1
 223 -10 223 -10 180.5 24 c 128,-1,2
 138 58 138 58 116 119 c 128,-1,3
 94 180 94 180 94 260 c 0,4,5
 94 322 94 322 105.5 372.5 c 128,-1,6
 117 423 117 423 136 463 c 1,7,-1
 22 463 l 1,8,-1
 22 536 l 1,9,-1
 836 536 l 1,10,-1
 836 463 l 1,11,-1
 722 463 l 1,12,13
 742 423 742 423 753 372.5 c 128,-1,14
 764 322 764 322 764 260 c 0,15,16
 764 180 764 180 742 119 c 128,-1,17
 720 58 720 58 677.5 24 c 128,-1,18
 635 -10 635 -10 573 -10 c 0,19,20
 518 -10 518 -10 483 15.5 c 128,-1,21
 448 41 448 41 431 100 c 1,22,-1
 426 100 l 1,23,24
 416 61 416 61 397 36.5 c 128,-1,25
 378 12 378 12 350 1 c 128,-1,26
 322 -10 322 -10 285 -10 c 0,0,1
291 63 m 0,27,28
 324 63 324 63 345.5 80 c 128,-1,29
 367 97 367 97 377 126.5 c 128,-1,30
 387 156 387 156 387 193 c 2,31,-1
 387 344 l 1,32,-1
 471 344 l 1,33,-1
 471 193 l 2,34,35
 471 152 471 152 482.5 122.5 c 128,-1,36
 494 93 494 93 515 78 c 128,-1,37
 536 63 536 63 566 63 c 0,38,39
 600 63 600 63 624.5 85 c 128,-1,40
 649 107 649 107 662.5 151 c 128,-1,41
 676 195 676 195 676 259 c 0,42,43
 676 322 676 322 665 372.5 c 128,-1,44
 654 423 654 423 634 463 c 1,45,-1
 225 463 l 1,46,47
 206 423 206 423 194 372.5 c 128,-1,48
 182 322 182 322 182 259 c 0,49,50
 182 162 182 162 212 112.5 c 128,-1,51
 242 63 242 63 291 63 c 0,27,28
EndSplineSet
EndChar

StartChar: uni03F5
Encoding: 1013 1013 117
Width: 470
Flags: W
AnchorPoint: "Anchor-1" 235 536 basechar 0
AnchorPoint: "Anchor-0" 235 0 basechar 0
LayerCount: 2
Fore
SplineSet
424 536 m 1,0,-1
 424 470 l 1,1,-1
 313 313 l 1,2,-1
 414 313 l 1,3,-1
 414 243 l 1,4,-1
 263 243 l 1,5,-1
 140 68 l 1,6,-1
 431 68 l 1,7,-1
 431 0 l 1,8,-1
 39 0 l 1,9,-1
 39 58 l 1,10,-1
 169 243 l 1,11,-1
 57 243 l 1,12,-1
 57 313 l 1,13,-1
 218 313 l 1,14,-1
 327 468 l 1,15,-1
 56 468 l 1,16,-1
 56 536 l 1,17,-1
 424 536 l 1,0,-1
EndSplineSet
EndChar

StartChar: uni03F8
Encoding: 1016 1016 118
Width: 598
GlyphClass: 2
Flags: W
LayerCount: 2
Fore
SplineSet
509 551 m 1,0,-1
 509 0 l 1,1,-1
 428 0 l 1,2,-1
 428 250 l 1,3,-1
 207 250 l 1,4,-1
 207 213 l 2,5,6
 207 180 207 180 192.5 165.5 c 128,-1,7
 178 151 178 151 159 151 c 256,8,9
 140 151 140 151 119 163.5 c 128,-1,10
 98 176 98 176 80 195.5 c 128,-1,11
 62 215 62 215 50.5 237 c 128,-1,12
 39 259 39 259 39 278 c 0,13,14
 39 296 39 296 52.5 308.5 c 128,-1,15
 66 321 66 321 100 321 c 2,16,-1
 126 321 l 1,17,-1
 126 551 l 1,18,-1
 0 551 l 1,19,-1
 0 622 l 1,20,-1
 612 622 l 1,21,-1
 612 551 l 1,22,-1
 509 551 l 1,0,-1
428 551 m 1,23,-1
 207 551 l 1,24,-1
 207 321 l 1,25,-1
 428 321 l 1,26,-1
 428 551 l 1,23,-1
EndSplineSet
EndChar

StartChar: uni03FB
Encoding: 1019 1019 119
Width: 568
GlyphClass: 2
Flags: W
LayerCount: 2
Fore
SplineSet
479 551 m 1,0,-1
 479 0 l 1,1,-1
 398 0 l 1,2,-1
 398 227 l 1,3,-1
 417 203 l 1,4,5
 396 189 396 189 372 175.5 c 128,-1,6
 348 162 348 162 319.5 154 c 128,-1,7
 291 146 291 146 254 146 c 0,8,9
 214 146 214 146 181.5 159.5 c 128,-1,10
 149 173 149 173 128 194 c 0,11,12
 111 212 111 212 100 233.5 c 128,-1,13
 89 255 89 255 84 285 c 128,-1,14
 79 315 79 315 79 358 c 2,15,-1
 79 551 l 1,16,-1
 0 551 l 1,17,-1
 0 622 l 1,18,-1
 583 622 l 1,19,-1
 583 551 l 1,20,-1
 479 551 l 1,0,-1
398 551 m 1,21,-1
 160 551 l 1,22,-1
 160 369 l 2,23,24
 160 328 160 328 163 304 c 128,-1,25
 166 280 166 280 172.5 265.5 c 128,-1,26
 179 251 179 251 190 240 c 0,27,28
 202 228 202 228 220 222.5 c 128,-1,29
 238 217 238 217 263 217 c 0,30,31
 294 217 294 217 322.5 229 c 128,-1,32
 351 241 351 241 374.5 259.5 c 128,-1,33
 398 278 398 278 414 298 c 1,34,-1
 398 246 l 1,35,-1
 398 551 l 1,21,-1
EndSplineSet
EndChar

StartChar: uni03FC
Encoding: 1020 1020 120
Width: 534
GlyphClass: 2
Flags: W
AnchorPoint: "Anchor-1" 267 765 basechar 0
AnchorPoint: "Anchor-0" 267 0 basechar 0
LayerCount: 2
Fore
SplineSet
206 765 m 0,0,1
 225 765 225 765 243 761 c 128,-1,2
 261 757 261 757 271 752 c 1,3,-1
 271 679 l 1,4,5
 264 682 264 682 250 685.5 c 128,-1,6
 236 689 236 689 219 689 c 0,7,8
 197 689 197 689 184.5 676 c 128,-1,9
 172 663 172 663 172 631 c 2,10,-1
 172 363 l 2,11,12
 172 347 172 347 171 321 c 128,-1,13
 170 295 170 295 168 276 c 1,14,-1
 172 276 l 1,15,16
 178 285 178 285 190 299.5 c 128,-1,17
 202 314 202 314 214.5 329.5 c 128,-1,18
 227 345 227 345 236 355 c 2,19,-1
 407 536 l 1,20,-1
 510 536 l 1,21,-1
 293 307 l 1,22,-1
 525 0 l 1,23,-1
 419 0 l 1,24,-1
 233 250 l 1,25,-1
 172 197 l 1,26,-1
 172 0 l 1,27,-1
 85 0 l 1,28,-1
 85 625 l 2,29,30
 85 765 85 765 206 765 c 0,0,1
EndSplineSet
EndChar

StartChar: uni03F6
Encoding: 1014 1014 121
Width: 762
Flags: W
AnchorPoint: "Anchor-2" 411 0 basechar 0
AnchorPoint: "Anchor-1" 371 0 basechar 0
AnchorPoint: "Anchor-0" 371 622 basechar 0
LayerCount: 2
Fore
SplineSet
777 551 m 1,0,-1
 452 551 l 1,1,-1
 452 336 l 1,2,-1
 448 345 l 1,3,4
 472 371 472 371 503 385 c 128,-1,5
 534 399 534 399 569 399 c 0,6,7
 634 399 634 399 675 357.5 c 128,-1,8
 716 316 716 316 716 239 c 0,9,10
 716 193 716 193 701 141 c 128,-1,11
 686 89 686 89 651 39 c 1,12,-1
 579 80 l 1,13,14
 604 112 604 112 620 154 c 128,-1,15
 636 196 636 196 636 237 c 0,16,17
 636 284 636 284 616.5 307 c 128,-1,18
 597 330 597 330 562 330 c 0,19,20
 535 330 535 330 506 311 c 128,-1,21
 477 292 477 292 447 252 c 1,22,-1
 452 277 l 1,23,-1
 452 0 l 1,24,-1
 371 0 l 1,25,-1
 371 210 l 1,26,-1
 385 186 l 1,27,28
 369 172 369 172 346.5 156 c 128,-1,29
 324 140 324 140 294.5 129 c 128,-1,30
 265 118 265 118 226 118 c 0,31,32
 179 118 179 118 137.5 137 c 128,-1,33
 96 156 96 156 71 194.5 c 128,-1,34
 46 233 46 233 46 290 c 0,35,36
 46 344 46 344 71 383 c 128,-1,37
 96 422 96 422 141 443 c 128,-1,38
 186 464 186 464 244 464 c 0,39,40
 267 464 267 464 295.5 460.5 c 128,-1,41
 324 457 324 457 339 454 c 1,42,-1
 333 381 l 1,43,44
 317 385 317 385 292.5 388 c 128,-1,45
 268 391 268 391 249 391 c 0,46,47
 191 391 191 391 159 365 c 128,-1,48
 127 339 127 339 127 292 c 0,49,50
 127 239 127 239 157.5 213.5 c 128,-1,51
 188 188 188 188 228 188 c 0,52,53
 278 188 278 188 316.5 215 c 128,-1,54
 355 242 355 242 388 278 c 1,55,-1
 371 224 l 1,56,-1
 371 551 l 1,57,-1
 0 551 l 1,58,-1
 0 622 l 1,59,-1
 777 622 l 1,60,-1
 777 551 l 1,0,-1
EndSplineSet
EndChar

StartChar: uni03E7
Encoding: 999 999 122
Width: 429
Flags: W
LayerCount: 2
Fore
SplineSet
42 832 m 1,0,-1
 124 832 l 1,1,-1
 387 -166 l 1,2,-1
 305 -166 l 1,3,-1
 42 832 l 1,0,-1
EndSplineSet
EndChar

StartChar: uni03E8
Encoding: 1000 1000 123
Width: 356
Flags: W
LayerCount: 2
Fore
SplineSet
54 -96 m 1,0,-1
 167 -96 l 1,1,-1
 167 762 l 1,2,-1
 54 762 l 1,3,-1
 54 832 l 1,4,-1
 248 832 l 1,5,-1
 248 -166 l 1,6,-1
 54 -166 l 1,7,-1
 54 -96 l 1,0,-1
EndSplineSet
EndChar

StartChar: uni03EA
Encoding: 1002 1002 124
Width: 411
Flags: W
LayerCount: 2
Fore
SplineSet
-2 -90 m 1,0,-1
 413 -90 l 1,1,-1
 413 -158 l 1,2,-1
 -2 -158 l 1,3,-1
 -2 -90 l 1,0,-1
EndSplineSet
EndChar

StartChar: uni03EB
Encoding: 1003 1003 125
Width: 281
Flags: W
LayerCount: 2
Fore
SplineSet
145 766 m 5,0,1
 156 744 156 744 172.5 716.5 c 132,-1,2
 189 689 189 689 207.5 663 c 132,-1,3
 226 637 226 637 241 618 c 5,4,-1
 241 606 l 5,5,-1
 182 606 l 5,6,7
 165 620 165 620 144 639.5 c 132,-1,8
 123 659 123 659 102.5 680.5 c 132,-1,9
 82 702 82 702 65.5 722 c 132,-1,10
 49 742 49 742 40 756 c 5,11,-1
 40 766 l 5,12,-1
 145 766 l 5,0,1
EndSplineSet
EndChar

StartChar: threequarters
Encoding: 190 190 126
Width: 564
Flags: W
AnchorPoint: "Anchor-7" 284 268 basechar 0
AnchorPoint: "Anchor-6" 544 536 basechar 0
AnchorPoint: "Anchor-5" 301 0 basechar 0
AnchorPoint: "Anchor-4" 285 737 basechar 0
LayerCount: 2
Fore
SplineSet
292 546 m 0,0,1
 361 546 361 546 410.5 516 c 128,-1,2
 460 486 460 486 486.5 431.5 c 128,-1,3
 513 377 513 377 513 304 c 2,4,-1
 513 251 l 1,5,-1
 146 251 l 1,6,7
 148 160 148 160 192.5 112.5 c 128,-1,8
 237 65 237 65 317 65 c 0,9,10
 368 65 368 65 407.5 74.5 c 128,-1,11
 447 84 447 84 489 102 c 1,12,-1
 489 25 l 1,13,14
 448 7 448 7 408 -1.5 c 128,-1,15
 368 -10 368 -10 313 -10 c 0,16,17
 237 -10 237 -10 178.5 21 c 128,-1,18
 120 52 120 52 87.5 113.5 c 128,-1,19
 55 175 55 175 55 264 c 0,20,21
 55 352 55 352 84.5 415 c 128,-1,22
 114 478 114 478 167.5 512 c 128,-1,23
 221 546 221 546 292 546 c 0,0,1
291 474 m 0,24,25
 228 474 228 474 191.5 433.5 c 128,-1,26
 155 393 155 393 148 321 c 1,27,-1
 421 321 l 1,28,29
 421 367 421 367 407 401 c 128,-1,30
 393 435 393 435 364.5 454.5 c 128,-1,31
 336 474 336 474 291 474 c 0,24,25
286 737 m 0,32,33
 306 737 306 737 321.5 723.5 c 128,-1,34
 337 710 337 710 337 681 c 0,35,36
 337 653 337 653 321.5 639 c 128,-1,37
 306 625 306 625 286 625 c 0,38,39
 264 625 264 625 249 639 c 128,-1,40
 234 653 234 653 234 681 c 0,41,42
 234 710 234 710 249 723.5 c 128,-1,43
 264 737 264 737 286 737 c 0,32,33
EndSplineSet
EndChar

StartChar: Agrave
Encoding: 192 192 128
Width: 564
Flags: W
AnchorPoint: "Anchor-7" 284 268 basechar 0
AnchorPoint: "Anchor-6" 544 536 basechar 0
AnchorPoint: "Anchor-5" 301 0 basechar 0
AnchorPoint: "Anchor-4" 285 766 basechar 0
LayerCount: 2
Fore
SplineSet
433 756 m 1,0,1
 424 742 424 742 407 722 c 0,2,3
 390 702 390 702 369.5 680.5 c 0,4,5
 349 659 349 659 328.5 639.5 c 0,6,7
 308 620 308 620 290 606 c 1,8,-1
 232 606 l 1,9,-1
 232 618 l 1,10,11
 247 637 247 637 264.5 663 c 0,12,13
 282 689 282 689 299 716.5 c 0,14,15
 316 744 316 744 327 766 c 1,16,-1
 433 766 l 1,17,-1
 433 756 l 1,0,1
EndSplineSet
Refer: 71 101 N 1 0 0 1 0 0 3
EndChar

StartChar: Aacute
Encoding: 193 193 129
Width: 564
Flags: W
AnchorPoint: "Anchor-7" 284 268 basechar 0
AnchorPoint: "Anchor-6" 544 536 basechar 0
AnchorPoint: "Anchor-5" 301 -220 basechar 0
AnchorPoint: "Anchor-4" 285 536 basechar 0
LayerCount: 2
Fore
SplineSet
389 -116 m 0,0,1
 389 -138 389 -138 401 -149.5 c 128,-1,2
 413 -161 413 -161 434 -161 c 0,3,4
 451 -161 451 -161 462.5 -158.5 c 128,-1,5
 474 -156 474 -156 482 -155 c 1,6,-1
 482 -211 l 1,7,8
 468 -215 468 -215 454 -217.5 c 128,-1,9
 440 -220 440 -220 420 -220 c 0,10,11
 367 -220 367 -220 342 -195 c 128,-1,12
 317 -170 317 -170 317 -126 c 0,13,14
 317 -97 317 -97 331.5 -70 c 128,-1,15
 346 -43 346 -43 367.5 -21 c 128,-1,16
 389 1 389 1 409 15 c 1,17,-1
 489 25 l 1,18,19
 449 -7 449 -7 427 -31 c 128,-1,20
 405 -55 405 -55 397 -75 c 128,-1,21
 389 -95 389 -95 389 -116 c 0,0,1
292 546 m 0,22,23
 361 546 361 546 410.5 516 c 128,-1,24
 460 486 460 486 486.5 431.5 c 128,-1,25
 513 377 513 377 513 304 c 2,26,-1
 513 251 l 1,27,-1
 146 251 l 1,28,29
 148 160 148 160 192.5 112.5 c 128,-1,30
 237 65 237 65 317 65 c 0,31,32
 368 65 368 65 407.5 74.5 c 128,-1,33
 447 84 447 84 489 102 c 1,34,-1
 489 25 l 1,35,36
 448 7 448 7 408 -1.5 c 128,-1,37
 368 -10 368 -10 313 -10 c 0,38,39
 237 -10 237 -10 178.5 21 c 128,-1,40
 120 52 120 52 87.5 113.5 c 128,-1,41
 55 175 55 175 55 264 c 0,42,43
 55 352 55 352 84.5 415 c 128,-1,44
 114 478 114 478 167.5 512 c 128,-1,45
 221 546 221 546 292 546 c 0,22,23
291 474 m 0,46,47
 228 474 228 474 191.5 433.5 c 128,-1,48
 155 393 155 393 148 321 c 1,49,-1
 421 321 l 1,50,51
 421 367 421 367 407 401 c 128,-1,52
 393 435 393 435 364.5 454.5 c 128,-1,53
 336 474 336 474 291 474 c 0,46,47
EndSplineSet
EndChar

StartChar: Acircumflex
Encoding: 194 194 130
Width: 483
Flags: W
AnchorPoint: "Anchor-7" 246 268 basechar 0
AnchorPoint: "Anchor-5" 242 0 basechar 0
AnchorPoint: "Anchor-4" 268 536 basechar 0
LayerCount: 2
Fore
SplineSet
355 315 m 1,0,-1
 355 243 l 1,1,-1
 282 243 l 2,2,3
 231 243 231 243 197.5 232.5 c 128,-1,4
 164 222 164 222 147.5 202 c 128,-1,5
 131 182 131 182 131 151 c 0,6,7
 131 118 131 118 150 98.5 c 128,-1,8
 169 79 169 79 201 70.5 c 128,-1,9
 233 62 233 62 273 62 c 0,10,11
 329 62 329 62 371.5 75 c 128,-1,12
 414 88 414 88 447 104 c 1,13,-1
 447 27 l 1,14,15
 416 11 416 11 373 0.5 c 128,-1,16
 330 -10 330 -10 268 -10 c 0,17,18
 153 -10 153 -10 98 34.5 c 128,-1,19
 43 79 43 79 43 146 c 0,20,21
 43 186 43 186 59.5 211.5 c 128,-1,22
 76 237 76 237 103 252.5 c 128,-1,23
 130 268 130 268 162 277 c 1,24,-1
 162 282 l 1,25,26
 117 296 117 296 89.5 325.5 c 128,-1,27
 62 355 62 355 62 404 c 0,28,29
 62 449 62 449 88.5 481 c 128,-1,30
 115 513 115 513 161.5 529.5 c 128,-1,31
 208 546 208 546 268 546 c 0,32,33
 326 546 326 546 367.5 536 c 128,-1,34
 409 526 409 526 449 508 c 1,35,-1
 416 438 l 1,36,37
 383 453 383 453 348.5 463 c 128,-1,38
 314 473 314 473 267 473 c 0,39,40
 207 473 207 473 176.5 454 c 128,-1,41
 146 435 146 435 146 397 c 0,42,43
 146 353 146 353 187.5 334 c 128,-1,44
 229 315 229 315 299 315 c 2,45,-1
 355 315 l 1,0,-1
EndSplineSet
EndChar

StartChar: Atilde
Encoding: 195 195 131
Width: 493
Flags: W
AnchorPoint: "Anchor-7" 250 268 basechar 0
AnchorPoint: "Anchor-5" 240 0 basechar 0
AnchorPoint: "Anchor-4" 240 536 basechar 0
LayerCount: 2
Fore
SplineSet
303 -10 m 0,0,1
 183 -10 183 -10 115.5 60 c 128,-1,2
 48 130 48 130 48 263 c 0,3,4
 48 352 48 352 79 415.5 c 128,-1,5
 110 479 110 479 167.5 513 c 128,-1,6
 225 547 225 547 306 547 c 0,7,8
 345 547 345 547 384 539 c 128,-1,9
 423 531 423 531 452 515 c 1,10,-1
 425 446 l 1,11,12
 394 460 394 460 367 466.5 c 128,-1,13
 340 473 340 473 306 473 c 0,14,15
 224 473 224 473 181 419 c 128,-1,16
 138 365 138 365 138 264 c 0,17,18
 138 164 138 164 181 114 c 128,-1,19
 224 64 224 64 312 64 c 0,20,21
 342 64 342 64 375 70 c 128,-1,22
 408 76 408 76 439 88 c 1,23,-1
 439 14 l 1,24,25
 414 3 414 3 378 -3.5 c 128,-1,26
 342 -10 342 -10 303 -10 c 0,0,1
97 240 m 1,27,-1
 97 312 l 1,28,-1
 400 312 l 1,29,-1
 400 240 l 1,30,-1
 97 240 l 1,27,-1
EndSplineSet
EndChar

StartChar: Adieresis
Encoding: 196 196 132
Width: 564
Flags: W
AnchorPoint: "Anchor-7" 284 268 basechar 0
AnchorPoint: "Anchor-6" 544 536 basechar 0
AnchorPoint: "Anchor-5" 301 0 basechar 0
AnchorPoint: "Anchor-4" 285 766 basechar 0
LayerCount: 2
Fore
SplineSet
292 546 m 0,0,1
 361 546 361 546 410.5 516 c 128,-1,2
 460 486 460 486 486.5 431.5 c 128,-1,3
 513 377 513 377 513 304 c 2,4,-1
 513 251 l 1,5,-1
 146 251 l 1,6,7
 148 160 148 160 192.5 112.5 c 128,-1,8
 237 65 237 65 317 65 c 0,9,10
 368 65 368 65 407.5 74.5 c 128,-1,11
 447 84 447 84 489 102 c 1,12,-1
 489 25 l 1,13,14
 448 7 448 7 408 -1.5 c 128,-1,15
 368 -10 368 -10 313 -10 c 0,16,17
 237 -10 237 -10 178.5 21 c 128,-1,18
 120 52 120 52 87.5 113.5 c 128,-1,19
 55 175 55 175 55 264 c 0,20,21
 55 352 55 352 84.5 415 c 128,-1,22
 114 478 114 478 167.5 512 c 128,-1,23
 221 546 221 546 292 546 c 0,0,1
291 474 m 0,24,25
 228 474 228 474 191.5 433.5 c 128,-1,26
 155 393 155 393 148 321 c 1,27,-1
 421 321 l 1,28,29
 421 367 421 367 407 401 c 128,-1,30
 393 435 393 435 364.5 454.5 c 128,-1,31
 336 474 336 474 291 474 c 0,24,25
239 606 m 1,32,33
 226 629 226 629 204 655.5 c 128,-1,34
 182 682 182 682 158 708 c 128,-1,35
 134 734 134 734 116 753 c 1,36,-1
 116 766 l 1,37,-1
 176 766 l 1,38,39
 202 749 202 749 230 725 c 128,-1,40
 258 701 258 701 283 674 c 1,41,42
 310 701 310 701 338 725 c 128,-1,43
 366 749 366 749 392 766 c 1,44,-1
 454 766 l 1,45,-1
 454 753 l 1,46,47
 435 734 435 734 410.5 708 c 128,-1,48
 386 682 386 682 363.5 655.5 c 128,-1,49
 341 629 341 629 329 606 c 1,50,-1
 239 606 l 1,32,33
EndSplineSet
EndChar

StartChar: guillemotleft
Encoding: 171 171 133
Width: 561
Flags: W
LayerCount: 2
Fore
SplineSet
436 740 m 1,0,1
 433 700 433 700 413.5 670 c 128,-1,2
 394 640 394 640 360 623 c 128,-1,3
 326 606 326 606 278 606 c 0,4,5
 204 606 204 606 166.5 642.5 c 128,-1,6
 129 679 129 679 125 740 c 1,7,-1
 179 740 l 1,8,9
 182 713 182 713 194.5 699.5 c 128,-1,10
 207 686 207 686 228.5 681.5 c 128,-1,11
 250 677 250 677 280 677 c 0,12,13
 306 677 306 677 327.5 682 c 128,-1,14
 349 687 349 687 363.5 700.5 c 128,-1,15
 378 714 378 714 381 740 c 1,16,-1
 436 740 l 1,0,1
288 545 m 0,17,18
 386 545 386 545 433 502 c 128,-1,19
 480 459 480 459 480 365 c 2,20,-1
 480 0 l 1,21,-1
 416 0 l 1,22,-1
 399 76 l 1,23,-1
 395 76 l 1,24,25
 372 47 372 47 347.5 27.5 c 128,-1,26
 323 8 323 8 291.5 -1 c 128,-1,27
 260 -10 260 -10 215 -10 c 0,28,29
 167 -10 167 -10 128.5 7 c 128,-1,30
 90 24 90 24 68 59.5 c 128,-1,31
 46 95 46 95 46 149 c 0,32,33
 46 229 46 229 109 272.5 c 128,-1,34
 172 316 172 316 303 320 c 2,35,-1
 394 323 l 1,36,-1
 394 355 l 2,37,38
 394 422 394 422 365 448 c 128,-1,39
 336 474 336 474 283 474 c 0,40,41
 241 474 241 474 203 461.5 c 128,-1,42
 165 449 165 449 132 433 c 1,43,-1
 105 499 l 1,44,45
 140 518 140 518 188 531.5 c 128,-1,46
 236 545 236 545 288 545 c 0,17,18
314 259 m 2,47,48
 214 255 214 255 175.5 227 c 128,-1,49
 137 199 137 199 137 148 c 0,50,51
 137 103 137 103 164.5 82 c 128,-1,52
 192 61 192 61 235 61 c 0,53,54
 303 61 303 61 348 98.5 c 128,-1,55
 393 136 393 136 393 214 c 2,56,-1
 393 262 l 1,57,-1
 314 259 l 2,47,48
EndSplineSet
EndChar

StartChar: uni0080
Encoding: 128 128 134
Width: 528
Flags: W
AnchorPoint: "Anchor-7" 264 287 basechar 0
AnchorPoint: "Anchor-6" 508 572 basechar 0
AnchorPoint: "Anchor-5" 264 0 basechar 0
AnchorPoint: "Anchor-4" 266 572 basechar 0
LayerCount: 2
Fore
SplineSet
0 0 m 1,0,-1
 216 574 l 1,1,-1
 315 574 l 1,2,-1
 528 0 l 1,3,-1
 432 0 l 1,4,-1
 375 163 l 1,5,-1
 156 163 l 1,6,-1
 96 0 l 1,7,-1
 0 0 l 1,0,-1
294 396 m 2,8,9
 289 410 289 410 283.5 425.5 c 128,-1,10
 278 441 278 441 273.5 457 c 128,-1,11
 269 473 269 473 265 489 c 1,12,13
 261 473 261 473 256.5 457.5 c 128,-1,14
 252 442 252 442 247 426.5 c 128,-1,15
 242 411 242 411 236 395 c 2,16,-1
 180 236 l 1,17,-1
 349 236 l 1,18,-1
 294 396 l 2,8,9
EndSplineSet
EndChar

StartChar: uni0081
Encoding: 129 129 135
Width: 525
Flags: W
AnchorPoint: "Anchor-7" 277 286 basechar 0
AnchorPoint: "Anchor-6" 505 572 basechar 0
AnchorPoint: "Anchor-5" 263 0 basechar 0
AnchorPoint: "Anchor-4" 263 572 basechar 0
LayerCount: 2
Fore
SplineSet
250 572 m 2,0,1
 327 572 327 572 375 555.5 c 128,-1,2
 423 539 423 539 446 507 c 128,-1,3
 469 475 469 475 469 427 c 0,4,5
 469 393 469 393 455.5 367 c 128,-1,6
 442 341 442 341 417.5 324.5 c 128,-1,7
 393 308 393 308 360 302 c 1,8,-1
 360 299 l 1,9,10
 397 293 397 293 424 277.5 c 128,-1,11
 451 262 451 262 466 234.5 c 128,-1,12
 481 207 481 207 481 165 c 0,13,14
 481 83 481 83 423.5 41.5 c 128,-1,15
 366 0 366 0 271 0 c 2,16,-1
 74 0 l 1,17,-1
 74 572 l 1,18,-1
 250 572 l 2,0,1
258 328 m 2,19,20
 323 328 323 328 351 350.5 c 128,-1,21
 379 373 379 373 379 417 c 256,22,23
 379 461 379 461 347 482 c 128,-1,24
 315 503 315 503 250 503 c 2,25,-1
 161 503 l 1,26,-1
 161 328 l 1,27,-1
 258 328 l 2,19,20
267 69 m 2,28,29
 331 69 331 69 361.5 95 c 128,-1,30
 392 121 392 121 392 170 c 0,31,32
 392 214 392 214 360 239 c 128,-1,33
 328 264 328 264 260 264 c 2,34,-1
 161 264 l 1,35,-1
 161 69 l 1,36,-1
 267 69 l 2,28,29
EndSplineSet
EndChar

StartChar: uni0082
Encoding: 130 130 136
Width: 582
Flags: W
AnchorPoint: "Anchor-7" 291 286 basechar 0
AnchorPoint: "Anchor-6" 562 572 basechar 0
AnchorPoint: "Anchor-5" 291 0 basechar 0
AnchorPoint: "Anchor-4" 291 572 basechar 0
LayerCount: 2
Fore
SplineSet
535 293 m 0,0,1
 535 196 535 196 499.5 131 c 128,-1,2
 464 66 464 66 396.5 33 c 128,-1,3
 329 0 329 0 233 0 c 2,4,-1
 74 0 l 1,5,-1
 74 572 l 1,6,-1
 248 572 l 2,7,8
 388 572 388 572 461.5 500.5 c 128,-1,9
 535 429 535 429 535 293 c 0,0,1
444 290 m 0,10,11
 444 394 444 394 393 446.5 c 128,-1,12
 342 499 342 499 244 499 c 2,13,-1
 161 499 l 1,14,-1
 161 73 l 1,15,-1
 233 73 l 2,16,17
 340 73 340 73 392 127 c 128,-1,18
 444 181 444 181 444 290 c 0,10,11
EndSplineSet
EndChar

StartChar: uni0083
Encoding: 131 131 137
Width: 447
Flags: W
AnchorPoint: "Anchor-7" 238 286 basechar 0
AnchorPoint: "Anchor-6" 427 572 basechar 0
AnchorPoint: "Anchor-5" 246 0 basechar 0
AnchorPoint: "Anchor-4" 241 572 basechar 0
LayerCount: 2
Fore
SplineSet
74 572 m 1,0,-1
 402 572 l 1,1,-1
 402 501 l 1,2,-1
 161 501 l 1,3,-1
 161 332 l 1,4,-1
 387 332 l 1,5,-1
 387 262 l 1,6,-1
 161 262 l 1,7,-1
 161 71 l 1,8,-1
 402 71 l 1,9,-1
 402 0 l 1,10,-1
 74 0 l 1,11,-1
 74 572 l 1,0,-1
EndSplineSet
EndChar

StartChar: uni0084
Encoding: 132 132 138
Width: 420
Flags: W
AnchorPoint: "Anchor-7" 237 286 basechar 0
AnchorPoint: "Anchor-6" 400 572 basechar 0
AnchorPoint: "Anchor-5" 210 0 basechar 0
AnchorPoint: "Anchor-4" 236 572 basechar 0
LayerCount: 2
Fore
SplineSet
74 572 m 1,0,-1
 401 572 l 1,1,-1
 401 501 l 1,2,-1
 161 501 l 1,3,-1
 161 309 l 1,4,-1
 386 309 l 1,5,-1
 386 238 l 1,6,-1
 161 238 l 1,7,-1
 161 0 l 1,8,-1
 74 0 l 1,9,-1
 74 572 l 1,0,-1
EndSplineSet
EndChar

StartChar: uni0085
Encoding: 133 133 139
Width: 592
Flags: W
AnchorPoint: "Anchor-7" 289 285 basechar 0
AnchorPoint: "Anchor-6" 572 572 basechar 0
AnchorPoint: "Anchor-5" 327 0 basechar 0
AnchorPoint: "Anchor-4" 321 572 basechar 0
LayerCount: 2
Fore
SplineSet
532 27 m 1,0,1
 489 11 489 11 437.5 1.5 c 128,-1,2
 386 -8 386 -8 329 -8 c 0,3,4
 240 -8 240 -8 177 25.5 c 128,-1,5
 114 59 114 59 80.5 124.5 c 128,-1,6
 47 190 47 190 47 285 c 0,7,8
 47 371 47 371 81 437 c 128,-1,9
 115 503 115 503 182 541 c 128,-1,10
 249 579 249 579 346 579 c 0,11,12
 396 579 396 579 441 570 c 128,-1,13
 486 561 486 561 523 544 c 1,14,-1
 493 473 l 1,15,16
 458 490 458 490 421.5 498 c 128,-1,17
 385 506 385 506 345 506 c 0,18,19
 278 506 278 506 231.5 478 c 128,-1,20
 185 450 185 450 161.5 400.5 c 128,-1,21
 138 351 138 351 138 286 c 0,22,23
 138 177 138 177 190 121 c 128,-1,24
 242 65 242 65 342 65 c 0,25,26
 371 65 371 65 399 69.5 c 128,-1,27
 427 74 427 74 448 81 c 1,28,-1
 448 235 l 1,29,-1
 304 235 l 1,30,-1
 304 306 l 1,31,-1
 532 306 l 1,32,-1
 532 27 l 1,0,1
EndSplineSet
EndChar

StartChar: uni0086
Encoding: 134 134 140
Width: 599
Flags: W
AnchorPoint: "Anchor-7" 300 286 basechar 0
AnchorPoint: "Anchor-6" 579 572 basechar 0
AnchorPoint: "Anchor-5" 300 0 basechar 0
AnchorPoint: "Anchor-4" 300 572 basechar 0
LayerCount: 2
Fore
SplineSet
524 572 m 1,0,-1
 524 0 l 1,1,-1
 437 0 l 1,2,-1
 437 261 l 1,3,-1
 161 261 l 1,4,-1
 161 0 l 1,5,-1
 74 0 l 1,6,-1
 74 572 l 1,7,-1
 161 572 l 1,8,-1
 161 334 l 1,9,-1
 437 334 l 1,10,-1
 437 572 l 1,11,-1
 524 572 l 1,0,-1
EndSplineSet
EndChar

StartChar: uni0087
Encoding: 135 135 141
Width: 291
Flags: W
AnchorPoint: "Anchor-7" 146 286 basechar 0
AnchorPoint: "Anchor-6" 271 572 basechar 0
AnchorPoint: "Anchor-5" 146 0 basechar 0
AnchorPoint: "Anchor-4" 146 572 basechar 0
LayerCount: 2
Fore
SplineSet
37 0 m 1,0,-1
 37 50 l 1,1,-1
 102 66 l 1,2,-1
 102 505 l 1,3,-1
 37 520 l 1,4,-1
 37 572 l 1,5,-1
 255 572 l 1,6,-1
 255 520 l 1,7,-1
 190 505 l 1,8,-1
 190 66 l 1,9,-1
 255 50 l 1,10,-1
 255 0 l 1,11,-1
 37 0 l 1,0,-1
EndSplineSet
EndChar

StartChar: uni0088
Encoding: 136 136 142
Width: 506
Flags: W
AnchorPoint: "Anchor-7" 290 286 basechar 0
AnchorPoint: "Anchor-6" 486 572 basechar 0
AnchorPoint: "Anchor-5" 266 0 basechar 0
AnchorPoint: "Anchor-4" 273 572 basechar 0
LayerCount: 2
Fore
SplineSet
74 572 m 1,0,-1
 162 572 l 1,1,-1
 162 294 l 1,2,3
 171 305 171 305 180.5 316 c 128,-1,4
 190 327 190 327 200 338.5 c 128,-1,5
 210 350 210 350 219 361 c 2,6,-1
 404 572 l 1,7,-1
 504 572 l 1,8,-1
 289 324 l 1,9,-1
 506 0 l 1,10,-1
 405 0 l 1,11,-1
 226 268 l 1,12,-1
 162 217 l 1,13,-1
 162 0 l 1,14,-1
 74 0 l 1,15,-1
 74 572 l 1,0,-1
EndSplineSet
EndChar

StartChar: uni0089
Encoding: 137 137 143
Width: 439
Flags: W
AnchorPoint: "Anchor-7" 220 286 basechar 0
AnchorPoint: "Anchor-6" 235 572 basechar 0
AnchorPoint: "Anchor-5" 243 0 basechar 0
AnchorPoint: "Anchor-4" 118 572 basechar 0
LayerCount: 2
Fore
SplineSet
161 572 m 1,0,-1
 161 73 l 1,1,-1
 416 73 l 1,2,-1
 416 0 l 1,3,-1
 74 0 l 1,4,-1
 74 572 l 1,5,-1
 161 572 l 1,0,-1
EndSplineSet
EndChar

StartChar: uni008A
Encoding: 138 138 144
Width: 736
Flags: W
AnchorPoint: "Anchor-7" 367 286 basechar 0
AnchorPoint: "Anchor-6" 716 572 basechar 0
AnchorPoint: "Anchor-5" 368 0 basechar 0
AnchorPoint: "Anchor-4" 368 572 basechar 0
LayerCount: 2
Fore
SplineSet
661 572 m 1,0,-1
 661 0 l 1,1,-1
 579 0 l 1,2,-1
 579 359 l 2,3,4
 579 379 579 379 579.5 403.5 c 128,-1,5
 580 428 580 428 581 449 c 128,-1,6
 582 470 582 470 583 480 c 1,7,-1
 580 480 l 1,8,-1
 404 0 l 1,9,-1
 328 0 l 1,10,-1
 152 481 l 1,11,-1
 149 481 l 1,12,13
 149 471 149 471 150 449.5 c 128,-1,14
 151 428 151 428 152 403 c 128,-1,15
 153 378 153 378 153 355 c 2,16,-1
 153 0 l 1,17,-1
 74 0 l 1,18,-1
 74 572 l 1,19,-1
 195 572 l 1,20,-1
 367 108 l 1,21,-1
 369 108 l 1,22,-1
 540 572 l 1,23,-1
 661 572 l 1,0,-1
EndSplineSet
EndChar

StartChar: uni008B
Encoding: 139 139 145
Width: 623
Flags: W
AnchorPoint: "Anchor-7" 311 286 basechar 0
AnchorPoint: "Anchor-6" 603 572 basechar 0
AnchorPoint: "Anchor-5" 312 0 basechar 0
AnchorPoint: "Anchor-4" 312 572 basechar 0
LayerCount: 2
Fore
SplineSet
548 572 m 1,0,-1
 548 0 l 1,1,-1
 441 0 l 1,2,-1
 151 464 l 1,3,-1
 147 464 l 1,4,5
 148 451 148 451 149 433 c 128,-1,6
 150 415 150 415 151 396 c 128,-1,7
 152 377 152 377 152.5 358.5 c 128,-1,8
 153 340 153 340 153 324 c 2,9,-1
 153 0 l 1,10,-1
 74 0 l 1,11,-1
 74 572 l 1,12,-1
 181 572 l 1,13,-1
 470 110 l 1,14,-1
 473 110 l 1,15,16
 472 121 472 121 471 136.5 c 128,-1,17
 470 152 470 152 469.5 170 c 128,-1,18
 469 188 469 188 469 207 c 128,-1,19
 469 226 469 226 469 244 c 2,20,-1
 469 572 l 1,21,-1
 548 572 l 1,0,-1
EndSplineSet
EndChar

StartChar: uni008C
Encoding: 140 140 146
Width: 632
Flags: W
AnchorPoint: "Anchor-7" 316 286 basechar 0
AnchorPoint: "Anchor-6" 612 572 basechar 0
AnchorPoint: "Anchor-5" 316 0 basechar 0
AnchorPoint: "Anchor-4" 316 572 basechar 0
LayerCount: 2
Fore
SplineSet
584 287 m 0,0,1
 584 199 584 199 555 132.5 c 128,-1,2
 526 66 526 66 467 29 c 128,-1,3
 408 -8 408 -8 317 -8 c 0,4,5
 227 -8 227 -8 167 29 c 128,-1,6
 107 66 107 66 77.5 133 c 128,-1,7
 48 200 48 200 48 288 c 0,8,9
 48 375 48 375 77.5 441 c 128,-1,10
 107 507 107 507 167 544 c 128,-1,11
 227 581 227 581 317 581 c 0,12,13
 408 581 408 581 467 544 c 128,-1,14
 526 507 526 507 555 440.5 c 128,-1,15
 584 374 584 374 584 287 c 0,0,1
140 287 m 0,16,17
 140 221 140 221 158.5 171.5 c 128,-1,18
 177 122 177 122 216 94.5 c 128,-1,19
 255 67 255 67 316 67 c 0,20,21
 378 67 378 67 416.5 94 c 128,-1,22
 455 121 455 121 473.5 170.5 c 128,-1,23
 492 220 492 220 492 287 c 0,24,25
 492 391 492 391 448 448.5 c 128,-1,26
 404 506 404 506 316 506 c 0,27,28
 256 506 256 506 217 479 c 128,-1,29
 178 452 178 452 159 403 c 128,-1,30
 140 354 140 354 140 287 c 0,16,17
EndSplineSet
EndChar

StartChar: uni008D
Encoding: 141 141 147
Width: 491
Flags: W
AnchorPoint: "Anchor-7" 263 286 basechar 0
AnchorPoint: "Anchor-6" 471 572 basechar 0
AnchorPoint: "Anchor-5" 246 0 basechar 0
AnchorPoint: "Anchor-4" 246 572 basechar 0
LayerCount: 2
Fore
SplineSet
239 572 m 2,0,1
 346 572 346 572 399 528 c 128,-1,2
 452 484 452 484 452 400 c 0,3,4
 452 358 452 358 438 324 c 128,-1,5
 424 290 424 290 396 266 c 128,-1,6
 368 242 368 242 327 229.5 c 128,-1,7
 286 217 286 217 232 217 c 2,8,-1
 161 217 l 1,9,-1
 161 0 l 1,10,-1
 74 0 l 1,11,-1
 74 572 l 1,12,-1
 239 572 l 2,0,1
223 288 m 2,13,14
 288 288 288 288 325.5 311 c 128,-1,15
 363 334 363 334 363 395 c 0,16,17
 363 448 363 448 332 474.5 c 128,-1,18
 301 501 301 501 236 501 c 2,19,-1
 161 501 l 1,20,-1
 161 288 l 1,21,-1
 223 288 l 2,13,14
EndSplineSet
EndChar

StartChar: uni008E
Encoding: 142 142 148
Width: 510
Flags: W
AnchorPoint: "Anchor-7" 287 286 basechar 0
AnchorPoint: "Anchor-6" 490 572 basechar 0
AnchorPoint: "Anchor-5" 255 0 basechar 0
AnchorPoint: "Anchor-4" 255 572 basechar 0
LayerCount: 2
Fore
SplineSet
233 572 m 2,0,1
 345 572 345 572 399.5 530.5 c 128,-1,2
 454 489 454 489 454 409 c 0,3,4
 454 354 454 354 427 314 c 128,-1,5
 400 274 400 274 341 254 c 1,6,-1
 500 0 l 1,7,-1
 401 0 l 1,8,-1
 264 232 l 1,9,-1
 161 232 l 1,10,-1
 161 0 l 1,11,-1
 74 0 l 1,12,-1
 74 572 l 1,13,-1
 233 572 l 2,0,1
240 302 m 2,14,15
 299 302 299 302 332 326 c 128,-1,16
 365 350 365 350 365 402 c 0,17,18
 365 457 365 457 331 479.5 c 128,-1,19
 297 502 297 502 232 502 c 2,20,-1
 161 502 l 1,21,-1
 161 302 l 1,22,-1
 240 302 l 2,14,15
EndSplineSet
EndChar

StartChar: uni008F
Encoding: 143 143 149
Width: 448
Flags: W
AnchorPoint: "Anchor-7" 224 286 basechar 0
AnchorPoint: "Anchor-6" 428 572 basechar 0
AnchorPoint: "Anchor-5" 224 0 basechar 0
AnchorPoint: "Anchor-4" 223 572 basechar 0
LayerCount: 2
Fore
SplineSet
438 572 m 1,0,-1
 438 497 l 1,1,-1
 268 497 l 1,2,-1
 268 0 l 1,3,-1
 181 0 l 1,4,-1
 181 497 l 1,5,-1
 11 497 l 1,6,-1
 11 572 l 1,7,-1
 438 572 l 1,0,-1
EndSplineSet
EndChar

StartChar: uni0090
Encoding: 144 144 150
Width: 596
Flags: W
AnchorPoint: "Anchor-7" 298 282 basechar 0
AnchorPoint: "Anchor-6" 576 572 basechar 0
AnchorPoint: "Anchor-5" 298 0 basechar 0
AnchorPoint: "Anchor-4" 299 572 basechar 0
LayerCount: 2
Fore
SplineSet
527 212 m 2,0,1
 527 143 527 143 500 94 c 128,-1,2
 473 45 473 45 421.5 18.5 c 128,-1,3
 370 -8 370 -8 295 -8 c 0,4,5
 186 -8 186 -8 127.5 49.5 c 128,-1,6
 69 107 69 107 69 211 c 2,7,-1
 69 572 l 1,8,-1
 157 572 l 1,9,-1
 157 215 l 2,10,11
 157 142 157 142 193.5 103.5 c 128,-1,12
 230 65 230 65 300 65 c 0,13,14
 368 65 368 65 403.5 103.5 c 128,-1,15
 439 142 439 142 439 213 c 2,16,-1
 439 572 l 1,17,-1
 527 572 l 1,18,-1
 527 212 l 2,0,1
EndSplineSet
EndChar

StartChar: uni0091
Encoding: 145 145 151
Width: 507
Flags: W
AnchorPoint: "Anchor-7" 253 286 basechar 0
AnchorPoint: "Anchor-6" 487 572 basechar 0
AnchorPoint: "Anchor-5" 254 0 basechar 0
AnchorPoint: "Anchor-4" 254 572 basechar 0
LayerCount: 2
Fore
SplineSet
205 0 m 1,0,-1
 0 572 l 1,1,-1
 96 572 l 1,2,-1
 220 198 l 2,3,4
 232 163 232 163 239.5 138 c 128,-1,5
 247 113 247 113 253 90 c 1,6,7
 258 113 258 113 267 141 c 128,-1,8
 276 169 276 169 286 198 c 2,9,-1
 410 572 l 1,10,-1
 507 572 l 1,11,-1
 301 0 l 1,12,-1
 205 0 l 1,0,-1
EndSplineSet
EndChar

StartChar: uni0092
Encoding: 146 146 152
Width: 773
Flags: W
AnchorPoint: "Anchor-7" 386 286 basechar 0
AnchorPoint: "Anchor-6" 753 572 basechar 0
AnchorPoint: "Anchor-5" 387 0 basechar 0
AnchorPoint: "Anchor-4" 387 572 basechar 0
LayerCount: 2
Fore
SplineSet
409 363 m 2,0,1
 404 384 404 384 399 404.5 c 128,-1,2
 394 425 394 425 390.5 443.5 c 128,-1,3
 387 462 387 462 385 477 c 1,4,5
 383 461 383 461 379.5 442.5 c 128,-1,6
 376 424 376 424 371.5 405 c 128,-1,7
 367 386 367 386 362 367 c 2,8,-1
 264 0 l 1,9,-1
 169 0 l 1,10,-1
 17 572 l 1,11,-1
 103 572 l 1,12,-1
 189 236 l 2,13,14
 195 213 195 213 201 186.5 c 128,-1,15
 207 160 207 160 212 135.5 c 128,-1,16
 217 111 217 111 220 92 c 1,17,18
 224 111 224 111 228.5 132 c 128,-1,19
 233 153 233 153 238.5 177 c 128,-1,20
 244 201 244 201 251 227 c 2,21,-1
 342 572 l 1,22,-1
 427 572 l 1,23,-1
 520 224 l 2,24,25
 526 202 526 202 532 178 c 128,-1,26
 538 154 538 154 543 131.5 c 128,-1,27
 548 109 548 109 551 91 c 1,28,29
 553 107 553 107 558 129 c 128,-1,30
 563 151 563 151 568.5 172 c 128,-1,31
 574 193 574 193 577 206 c 2,32,-1
 670 572 l 1,33,-1
 755 572 l 1,34,-1
 602 0 l 1,35,-1
 507 0 l 1,36,-1
 409 363 l 2,0,1
EndSplineSet
EndChar

StartChar: uni0093
Encoding: 147 147 153
Width: 497
Flags: W
AnchorPoint: "Anchor-7" 248 286 basechar 0
AnchorPoint: "Anchor-6" 477 572 basechar 0
AnchorPoint: "Anchor-5" 249 0 basechar 0
AnchorPoint: "Anchor-4" 249 572 basechar 0
LayerCount: 2
Fore
SplineSet
248 231 m 1,0,-1
 99 0 l 1,1,-1
 1 0 l 1,2,-1
 194 295 l 1,3,-1
 17 572 l 1,4,-1
 113 572 l 1,5,-1
 249 354 l 1,6,-1
 385 572 l 1,7,-1
 482 572 l 1,8,-1
 301 292 l 1,9,-1
 496 0 l 1,10,-1
 396 0 l 1,11,-1
 248 231 l 1,0,-1
EndSplineSet
EndChar

StartChar: uni0094
Encoding: 148 148 154
Width: 473
Flags: W
AnchorPoint: "Anchor-7" 236 286 basechar 0
AnchorPoint: "Anchor-6" 453 572 basechar 0
AnchorPoint: "Anchor-5" 237 0 basechar 0
AnchorPoint: "Anchor-4" 237 572 basechar 0
LayerCount: 2
Fore
SplineSet
473 572 m 1,0,-1
 281 222 l 1,1,-1
 281 0 l 1,2,-1
 192 0 l 1,3,-1
 192 218 l 1,4,-1
 0 572 l 1,5,-1
 96 572 l 1,6,-1
 237 299 l 1,7,-1
 379 572 l 1,8,-1
 473 572 l 1,0,-1
EndSplineSet
EndChar

StartChar: uni0095
Encoding: 149 149 155
Width: 479
Flags: W
AnchorPoint: "Anchor-7" 240 286 basechar 0
AnchorPoint: "Anchor-6" 459 572 basechar 0
AnchorPoint: "Anchor-5" 240 0 basechar 0
AnchorPoint: "Anchor-4" 240 773 basechar 0
LayerCount: 2
Fore
SplineSet
29 0 m 1,0,-1
 29 56 l 1,1,-1
 332 499 l 1,2,-1
 40 499 l 1,3,-1
 40 572 l 1,4,-1
 443 572 l 1,5,-1
 443 515 l 1,6,-1
 140 73 l 1,7,-1
 451 73 l 1,8,-1
 451 0 l 1,9,-1
 29 0 l 1,0,-1
245 773 m 0,10,11
 265 773 265 773 280.5 759.5 c 128,-1,12
 296 746 296 746 296 717 c 0,13,14
 296 689 296 689 280.5 675 c 128,-1,15
 265 661 265 661 245 661 c 0,16,17
 223 661 223 661 208 675 c 128,-1,18
 193 689 193 689 193 717 c 0,19,20
 193 746 193 746 208 759.5 c 128,-1,21
 223 773 223 773 245 773 c 0,10,11
EndSplineSet
EndChar

StartChar: uni0096
Encoding: 150 150 156
Width: 413
Flags: W
AnchorPoint: "Anchor-7" 175 351 basechar 0
AnchorPoint: "Anchor-6" 393 714 basechar 0
AnchorPoint: "Anchor-5" 176 0 basechar 0
AnchorPoint: "Anchor-4" 277 714 basechar 0
LayerCount: 2
Fore
SplineSet
136 -11 m 0,0,1
 101 -11 101 -11 74.5 -4 c 128,-1,2
 48 3 48 3 28 14 c 1,3,-1
 28 90 l 1,4,5
 51 80 51 80 77.5 74 c 128,-1,6
 104 68 104 68 134 68 c 0,7,8
 159 68 159 68 181.5 78 c 128,-1,9
 204 88 204 88 218 113 c 128,-1,10
 232 138 232 138 232 183 c 2,11,-1
 232 714 l 1,12,-1
 322 714 l 1,13,-1
 322 190 l 2,14,15
 322 121 322 121 299 76.5 c 128,-1,16
 276 32 276 32 234 10.5 c 128,-1,17
 192 -11 192 -11 136 -11 c 0,0,1
EndSplineSet
EndChar

StartChar: Dcaron
Encoding: 270 270 157
Width: 605
Flags: W
AnchorPoint: "Anchor-7" 303 268 basechar 0
AnchorPoint: "Anchor-6" 575 536 basechar 0
AnchorPoint: "Anchor-5" 301 0 basechar 0
AnchorPoint: "Anchor-4" 303 536 basechar 0
LayerCount: 2
Fore
SplineSet
551 269 m 0,0,1
 551 202 551 202 533.5 150.5 c 128,-1,2
 516 99 516 99 483.5 63 c 128,-1,3
 451 27 451 27 404.5 8.5 c 128,-1,4
 358 -10 358 -10 301 -10 c 0,5,6
 248 -10 248 -10 203 8.5 c 128,-1,7
 158 27 158 27 125 63 c 128,-1,8
 92 99 92 99 73.5 150.5 c 128,-1,9
 55 202 55 202 55 269 c 0,10,11
 55 358 55 358 85 419.5 c 128,-1,12
 115 481 115 481 171 513.5 c 128,-1,13
 227 546 227 546 304 546 c 0,14,15
 377 546 377 546 432.5 513.5 c 128,-1,16
 488 481 488 481 519.5 419.5 c 128,-1,17
 551 358 551 358 551 269 c 0,0,1
146 269 m 0,18,19
 146 206 146 206 162.5 159.5 c 128,-1,20
 179 113 179 113 214 88 c 128,-1,21
 249 63 249 63 303 63 c 256,22,23
 357 63 357 63 392 88 c 128,-1,24
 427 113 427 113 443.5 159.5 c 128,-1,25
 460 206 460 206 460 269 c 0,26,27
 460 333 460 333 443 378 c 128,-1,28
 426 423 426 423 391.5 447.5 c 128,-1,29
 357 472 357 472 302 472 c 0,30,31
 220 472 220 472 183 418 c 128,-1,32
 146 364 146 364 146 269 c 0,18,19
EndSplineSet
EndChar

StartChar: scedilla
Encoding: 351 351 159
Width: 615
Flags: W
AnchorPoint: "Anchor-7" 292 153 basechar 0
AnchorPoint: "Anchor-6" 555 536 basechar 0
AnchorPoint: "Anchor-5" 298 -240 basechar 0
AnchorPoint: "Anchor-4" 297 536 basechar 0
LayerCount: 2
Fore
SplineSet
275 546 m 0,0,1
 328 546 328 546 370.5 526 c 128,-1,2
 413 506 413 506 443 465 c 1,3,-1
 448 465 l 1,4,-1
 460 536 l 1,5,-1
 530 536 l 1,6,-1
 530 -9 l 2,7,8
 530 -85 530 -85 504 -136.5 c 128,-1,9
 478 -188 478 -188 425 -214 c 128,-1,10
 372 -240 372 -240 290 -240 c 0,11,12
 232 -240 232 -240 183.5 -231.5 c 128,-1,13
 135 -223 135 -223 97 -206 c 1,14,-1
 97 -125 l 1,15,16
 135 -145 135 -145 186 -156 c 128,-1,17
 237 -167 237 -167 295 -167 c 0,18,19
 364 -167 364 -167 403.5 -126.5 c 128,-1,20
 443 -86 443 -86 443 -16 c 2,21,-1
 443 5 l 2,22,23
 443 17 443 17 444 39.5 c 128,-1,24
 445 62 445 62 446 71 c 1,25,-1
 442 71 l 1,26,27
 414 30 414 30 372.5 10 c 128,-1,28
 331 -10 331 -10 276 -10 c 0,29,30
 172 -10 172 -10 113.5 63 c 128,-1,31
 55 136 55 136 55 267 c 0,32,33
 55 395 55 395 113.5 470.5 c 128,-1,34
 172 546 172 546 275 546 c 0,0,1
287 472 m 0,35,36
 242 472 242 472 210.5 448 c 128,-1,37
 179 424 179 424 162.5 378 c 128,-1,38
 146 332 146 332 146 266 c 0,39,40
 146 167 146 167 182.5 114.5 c 128,-1,41
 219 62 219 62 289 62 c 0,42,43
 330 62 330 62 359 72.5 c 128,-1,44
 388 83 388 83 407 105.5 c 128,-1,45
 426 128 426 128 435 163 c 128,-1,46
 444 198 444 198 444 246 c 2,47,-1
 444 267 l 2,48,49
 444 340 444 340 427.5 385 c 128,-1,50
 411 430 411 430 376 451 c 128,-1,51
 341 472 341 472 287 472 c 0,35,36
EndSplineSet
EndChar

StartChar: Umacron
Encoding: 362 362 160
Width: 615
Flags: W
AnchorPoint: "Anchor-7" 292 153 basechar 0
AnchorPoint: "Anchor-6" 555 536 basechar 0
AnchorPoint: "Anchor-5" 298 -240 basechar 0
AnchorPoint: "Anchor-4" 297 766 basechar 0
LayerCount: 2
Fore
SplineSet
275 546 m 0,0,1
 328 546 328 546 370.5 526 c 128,-1,2
 413 506 413 506 443 465 c 1,3,-1
 448 465 l 1,4,-1
 460 536 l 1,5,-1
 530 536 l 1,6,-1
 530 -9 l 2,7,8
 530 -85 530 -85 504 -136.5 c 128,-1,9
 478 -188 478 -188 425 -214 c 128,-1,10
 372 -240 372 -240 290 -240 c 0,11,12
 232 -240 232 -240 183.5 -231.5 c 128,-1,13
 135 -223 135 -223 97 -206 c 1,14,-1
 97 -125 l 1,15,16
 135 -145 135 -145 186 -156 c 128,-1,17
 237 -167 237 -167 295 -167 c 0,18,19
 364 -167 364 -167 403.5 -126.5 c 128,-1,20
 443 -86 443 -86 443 -16 c 2,21,-1
 443 5 l 2,22,23
 443 17 443 17 444 39.5 c 128,-1,24
 445 62 445 62 446 71 c 1,25,-1
 442 71 l 1,26,27
 414 30 414 30 372.5 10 c 128,-1,28
 331 -10 331 -10 276 -10 c 0,29,30
 172 -10 172 -10 113.5 63 c 128,-1,31
 55 136 55 136 55 267 c 0,32,33
 55 395 55 395 113.5 470.5 c 128,-1,34
 172 546 172 546 275 546 c 0,0,1
287 472 m 0,35,36
 242 472 242 472 210.5 448 c 128,-1,37
 179 424 179 424 162.5 378 c 128,-1,38
 146 332 146 332 146 266 c 0,39,40
 146 167 146 167 182.5 114.5 c 128,-1,41
 219 62 219 62 289 62 c 0,42,43
 330 62 330 62 359 72.5 c 128,-1,44
 388 83 388 83 407 105.5 c 128,-1,45
 426 128 426 128 435 163 c 128,-1,46
 444 198 444 198 444 246 c 2,47,-1
 444 267 l 2,48,49
 444 340 444 340 427.5 385 c 128,-1,50
 411 430 411 430 376 451 c 128,-1,51
 341 472 341 472 287 472 c 0,35,36
341 766 m 1,52,53
 353 744 353 744 375.5 716.5 c 128,-1,54
 398 689 398 689 422.5 662.5 c 128,-1,55
 447 636 447 636 466 617 c 1,56,-1
 466 606 l 1,57,-1
 404 606 l 1,58,59
 378 622 378 622 350 645.5 c 128,-1,60
 322 669 322 669 295 696 c 1,61,62
 268 669 268 669 241 646 c 128,-1,63
 214 623 214 623 188 606 c 1,64,-1
 128 606 l 1,65,-1
 128 617 l 1,66,67
 147 637 147 637 170.5 663 c 128,-1,68
 194 689 194 689 216 716.5 c 128,-1,69
 238 744 238 744 251 766 c 1,70,-1
 341 766 l 1,52,53
EndSplineSet
EndChar

StartChar: AE
Encoding: 198 198 161
Width: 447
Flags: W
AnchorPoint: "Anchor-7" 296 357 basechar 0
AnchorPoint: "Anchor-5" 300 0 basechar 0
LayerCount: 2
Fore
SplineSet
74 572 m 1,0,-1
 402 572 l 1,1,-1
 402 501 l 1,2,-1
 161 501 l 1,3,-1
 161 332 l 1,4,-1
 387 332 l 1,5,-1
 387 262 l 1,6,-1
 161 262 l 1,7,-1
 161 71 l 1,8,-1
 402 71 l 1,9,-1
 402 0 l 1,10,-1
 74 0 l 1,11,-1
 74 572 l 1,0,-1
EndSplineSet
EndChar

StartChar: Ecircumflex
Encoding: 202 202 162
Width: 553
Flags: W
LayerCount: 2
Fore
SplineSet
444 580 m 5,0,1
 428 652 428 652 408 678 c 132,-1,2
 388 704 388 704 350 704 c 4,3,4
 337 704 337 704 324 703 c 132,-1,5
 311 702 311 702 298 702 c 4,6,7
 263 702 263 702 234.5 713 c 132,-1,8
 206 724 206 724 182.5 753.5 c 132,-1,9
 159 783 159 783 139 838 c 5,10,-1
 205 861 l 5,11,12
 222 817 222 817 240.5 795 c 132,-1,13
 259 773 259 773 302 773 c 4,14,15
 316 773 316 773 332 775 c 132,-1,16
 348 777 348 777 366 777 c 4,17,18
 403 777 403 777 431 760 c 132,-1,19
 459 743 459 743 480.5 700 c 132,-1,20
 502 657 502 657 520 580 c 5,21,-1
 444 580 l 5,0,1
292 546 m 0,22,23
 361 546 361 546 410.5 516 c 128,-1,24
 460 486 460 486 486.5 431.5 c 128,-1,25
 513 377 513 377 513 304 c 2,26,-1
 513 251 l 1,27,-1
 146 251 l 1,28,29
 148 160 148 160 192.5 112.5 c 128,-1,30
 237 65 237 65 317 65 c 0,31,32
 368 65 368 65 407.5 74.5 c 128,-1,33
 447 84 447 84 489 102 c 1,34,-1
 489 25 l 1,35,36
 448 7 448 7 408 -1.5 c 128,-1,37
 368 -10 368 -10 313 -10 c 0,38,39
 237 -10 237 -10 178.5 21 c 128,-1,40
 120 52 120 52 87.5 113.5 c 128,-1,41
 55 175 55 175 55 264 c 0,42,43
 55 352 55 352 84.5 415 c 128,-1,44
 114 478 114 478 167.5 512 c 128,-1,45
 221 546 221 546 292 546 c 0,22,23
291 474 m 0,46,47
 228 474 228 474 191.5 433.5 c 128,-1,48
 155 393 155 393 148 321 c 1,49,-1
 421 321 l 1,50,51
 421 367 421 367 407 401 c 128,-1,52
 393 435 393 435 364.5 454.5 c 128,-1,53
 336 474 336 474 291 474 c 0,46,47
EndSplineSet
EndChar

StartChar: Oslash
Encoding: 216 216 163
Width: 618
Flags: W
AnchorPoint: "Anchor-7" 306 263 basechar 0
AnchorPoint: "Anchor-6" 562 536 basechar 0
AnchorPoint: "Anchor-5" 294 0 basechar 0
AnchorPoint: "Anchor-4" 309 536 basechar 0
LayerCount: 2
Fore
SplineSet
533 536 m 1,0,-1
 533 0 l 1,1,-1
 461 0 l 1,2,-1
 448 71 l 1,3,-1
 444 71 l 1,4,5
 427 43 427 43 400 25 c 128,-1,6
 373 7 373 7 341 -1.5 c 128,-1,7
 309 -10 309 -10 274 -10 c 0,8,9
 210 -10 210 -10 166.5 10.5 c 128,-1,10
 123 31 123 31 101 74 c 128,-1,11
 79 117 79 117 79 185 c 2,12,-1
 79 536 l 1,13,-1
 168 536 l 1,14,-1
 168 191 l 2,15,16
 168 127 168 127 197 95 c 128,-1,17
 226 63 226 63 287 63 c 0,18,19
 347 63 347 63 381.5 85.5 c 128,-1,20
 416 108 416 108 430.5 151.5 c 128,-1,21
 445 195 445 195 445 257 c 2,22,-1
 445 536 l 1,23,-1
 533 536 l 1,0,-1
EndSplineSet
EndChar

StartChar: uni0195
Encoding: 405 405 164
Width: 510
Flags: W
AnchorPoint: "Anchor-7" 255 148 basechar 0
AnchorPoint: "Anchor-6" 490 536 basechar 0
AnchorPoint: "Anchor-5" 94 -240 basechar 0
AnchorPoint: "Anchor-4" 255 536 basechar 0
LayerCount: 2
Fore
SplineSet
1 536 m 1,0,-1
 95 536 l 1,1,-1
 211 231 l 2,2,3
 221 204 221 204 229.5 179 c 128,-1,4
 238 154 238 154 245 130.5 c 128,-1,5
 252 107 252 107 256 85 c 1,6,-1
 260 85 l 1,7,8
 266 110 266 110 279 150.5 c 128,-1,9
 292 191 292 191 306 232 c 2,10,-1
 415 536 l 1,11,-1
 510 536 l 1,12,-1
 279 -74 l 2,13,14
 260 -124 260 -124 234.5 -161.5 c 128,-1,15
 209 -199 209 -199 172.5 -219.5 c 128,-1,16
 136 -240 136 -240 84 -240 c 0,17,18
 60 -240 60 -240 42 -237.5 c 128,-1,19
 24 -235 24 -235 11 -232 c 1,20,-1
 11 -162 l 1,21,22
 22 -164 22 -164 37.5 -166 c 128,-1,23
 53 -168 53 -168 70 -168 c 0,24,25
 101 -168 101 -168 123.5 -156.5 c 128,-1,26
 146 -145 146 -145 162 -123.5 c 128,-1,27
 178 -102 178 -102 189 -73 c 2,28,-1
 217 -2 l 1,29,-1
 1 536 l 1,0,-1
EndSplineSet
EndChar

StartChar: uhorn
Encoding: 432 432 165
Width: 413
Flags: W
AnchorPoint: "Anchor-7" 241 273 basechar 0
AnchorPoint: "Anchor-6" 393 536 basechar 0
AnchorPoint: "Anchor-5" 126 0 basechar 0
AnchorPoint: "Anchor-4" 240 536 basechar 0
LayerCount: 2
Fore
SplineSet
335 546 m 0,0,1
 350 546 350 546 367.5 544.5 c 128,-1,2
 385 543 385 543 398 540 c 1,3,-1
 387 459 l 1,4,5
 374 462 374 462 358.5 464 c 128,-1,6
 343 466 343 466 329 466 c 0,7,8
 298 466 298 466 270 453 c 128,-1,9
 242 440 242 440 220 416.5 c 128,-1,10
 198 393 198 393 185.5 360 c 128,-1,11
 173 327 173 327 173 286 c 2,12,-1
 173 0 l 1,13,-1
 85 0 l 1,14,-1
 85 536 l 1,15,-1
 157 536 l 1,16,-1
 167 438 l 1,17,-1
 171 438 l 1,18,19
 188 468 188 468 212 492.5 c 128,-1,20
 236 517 236 517 267 531.5 c 128,-1,21
 298 546 298 546 335 546 c 0,0,1
EndSplineSet
EndChar

StartChar: uni01CB
Encoding: 459 459 166
Width: 258
Flags: W
AnchorPoint: "Anchor-7" 129 268 basechar 0
AnchorPoint: "Anchor-6" 202 760 basechar 0
AnchorPoint: "Anchor-5" 129 0 basechar 0
AnchorPoint: "Anchor-4" 129 760 basechar 0
LayerCount: 2
Fore
SplineSet
173 0 m 1,0,-1
 85 0 l 1,1,-1
 85 760 l 1,2,-1
 173 760 l 1,3,-1
 173 0 l 1,0,-1
EndSplineSet
EndChar

StartChar: Gcaron
Encoding: 486 486 167
Width: 507
Flags: W
AnchorPoint: "Anchor-7" 253 286 basechar 0
AnchorPoint: "Anchor-6" 487 572 basechar 0
AnchorPoint: "Anchor-5" 254 0 basechar 0
AnchorPoint: "Anchor-4" 254 572 basechar 0
LayerCount: 2
Fore
SplineSet
205 0 m 1,0,-1
 0 572 l 1,1,-1
 96 572 l 1,2,-1
 220 198 l 2,3,4
 232 163 232 163 239.5 138 c 128,-1,5
 247 113 247 113 253 90 c 1,6,7
 258 113 258 113 267 141 c 128,-1,8
 276 169 276 169 286 198 c 2,9,-1
 410 572 l 1,10,-1
 507 572 l 1,11,-1
 301 0 l 1,12,-1
 205 0 l 1,0,-1
EndSplineSet
EndChar

StartChar: uni0201
Encoding: 513 513 168
Width: 935
Flags: W
AnchorPoint: "Anchor-7" 469 273 basechar 0
AnchorPoint: "Anchor-6" 885 536 basechar 0
AnchorPoint: "Anchor-5" 471 0 basechar 0
AnchorPoint: "Anchor-4" 479 536 basechar 0
LayerCount: 2
Fore
SplineSet
673 546 m 0,0,1
 764 546 764 546 809 499.5 c 128,-1,2
 854 453 854 453 854 349 c 2,3,-1
 854 0 l 1,4,-1
 767 0 l 1,5,-1
 767 345 l 2,6,7
 767 408 767 408 740.5 440 c 128,-1,8
 714 472 714 472 658 472 c 0,9,10
 580 472 580 472 546.5 427 c 128,-1,11
 513 382 513 382 513 296 c 2,12,-1
 513 0 l 1,13,-1
 426 0 l 1,14,-1
 426 345 l 2,15,16
 426 387 426 387 414 415.5 c 128,-1,17
 402 444 402 444 378 458 c 128,-1,18
 354 472 354 472 316 472 c 0,19,20
 262 472 262 472 231 449.5 c 128,-1,21
 200 427 200 427 186.5 384 c 128,-1,22
 173 341 173 341 173 278 c 2,23,-1
 173 0 l 1,24,-1
 85 0 l 1,25,-1
 85 536 l 1,26,-1
 156 536 l 1,27,-1
 169 463 l 1,28,-1
 174 463 l 1,29,30
 191 491 191 491 215.5 509.5 c 128,-1,31
 240 528 240 528 270 537 c 128,-1,32
 300 546 300 546 332 546 c 0,33,34
 394 546 394 546 435.5 524 c 128,-1,35
 477 502 477 502 496 456 c 1,36,-1
 501 456 l 1,37,38
 528 502 528 502 574.5 524 c 128,-1,39
 621 546 621 546 673 546 c 0,0,1
EndSplineSet
EndChar

StartChar: uni021C
Encoding: 540 540 169
Width: 618
Flags: W
AnchorPoint: "Anchor-7" 311 273 basechar 0
AnchorPoint: "Anchor-6" 562 536 basechar 0
AnchorPoint: "Anchor-5" 309 0 basechar 0
AnchorPoint: "Anchor-4" 309 536 basechar 0
LayerCount: 2
Fore
SplineSet
343 546 m 0,0,1
 439 546 439 546 488 499.5 c 128,-1,2
 537 453 537 453 537 349 c 2,3,-1
 537 0 l 1,4,-1
 450 0 l 1,5,-1
 450 343 l 2,6,7
 450 408 450 408 421 440 c 128,-1,8
 392 472 392 472 330 472 c 0,9,10
 241 472 241 472 207 422 c 128,-1,11
 173 372 173 372 173 278 c 2,12,-1
 173 0 l 1,13,-1
 85 0 l 1,14,-1
 85 536 l 1,15,-1
 156 536 l 1,16,-1
 169 463 l 1,17,-1
 174 463 l 1,18,19
 192 491 192 491 218.5 509.5 c 128,-1,20
 245 528 245 528 277 537 c 128,-1,21
 309 546 309 546 343 546 c 0,0,1
EndSplineSet
EndChar

StartChar: uni0237
Encoding: 567 567 170
Width: 344
Flags: W
AnchorPoint: "Anchor-7" 201 382 basechar 0
AnchorPoint: "Anchor-6" 380 765 basechar 0
AnchorPoint: "Anchor-5" 153 0 basechar 0
AnchorPoint: "Anchor-4" 252 765 basechar 0
LayerCount: 2
Fore
SplineSet
332 468 m 1,0,-1
 197 468 l 1,1,-1
 197 0 l 1,2,-1
 109 0 l 1,3,-1
 109 468 l 1,4,-1
 15 468 l 1,5,-1
 15 509 l 1,6,-1
 109 539 l 1,7,-1
 109 570 l 2,8,9
 109 639 109 639 129.5 682 c 128,-1,10
 150 725 150 725 189 745 c 128,-1,11
 228 765 228 765 283 765 c 0,12,13
 315 765 315 765 341.5 759.5 c 128,-1,14
 368 754 368 754 387 747 c 1,15,-1
 364 678 l 1,16,17
 348 683 348 683 327 688 c 128,-1,18
 306 693 306 693 284 693 c 0,19,20
 240 693 240 693 218.5 663.5 c 128,-1,21
 197 634 197 634 197 571 c 2,22,-1
 197 536 l 1,23,-1
 332 536 l 1,24,-1
 332 468 l 1,0,-1
EndSplineSet
EndChar

StartChar: uni0252
Encoding: 594 594 171
Width: 534
Flags: W
AnchorPoint: "Anchor-7" 305 380 basechar 0
AnchorPoint: "Anchor-6" 369 840 basechar 0
AnchorPoint: "Anchor-5" 267 0 basechar 0
AnchorPoint: "Anchor-4" 129 760 basechar 0
LayerCount: 2
Fore
SplineSet
172 363 m 2,0,1
 172 347 172 347 170.5 321 c 128,-1,2
 169 295 169 295 168 276 c 1,3,-1
 172 276 l 1,4,5
 178 284 178 284 190 299 c 128,-1,6
 202 314 202 314 214.5 329.5 c 128,-1,7
 227 345 227 345 236 355 c 2,8,-1
 407 536 l 1,9,-1
 510 536 l 1,10,-1
 293 307 l 1,11,-1
 525 0 l 1,12,-1
 419 0 l 1,13,-1
 233 250 l 1,14,-1
 172 197 l 1,15,-1
 172 0 l 1,16,-1
 85 0 l 1,17,-1
 85 760 l 1,18,-1
 172 760 l 1,19,-1
 172 363 l 2,0,1
EndSplineSet
EndChar

StartChar: uni026D
Encoding: 621 621 172
Width: 470
Flags: W
AnchorPoint: "Anchor-7" 235 268 basechar 0
AnchorPoint: "Anchor-6" 430 536 basechar 0
AnchorPoint: "Anchor-5" 242 0 basechar 0
AnchorPoint: "Anchor-4" 235 536 basechar 0
LayerCount: 2
Fore
SplineSet
431 0 m 1,0,-1
 39 0 l 1,1,-1
 39 58 l 1,2,-1
 327 468 l 1,3,-1
 56 468 l 1,4,-1
 56 536 l 1,5,-1
 424 536 l 1,6,-1
 424 470 l 1,7,-1
 140 68 l 1,8,-1
 431 68 l 1,9,-1
 431 0 l 1,0,-1
EndSplineSet
EndChar

StartChar: uni0288
Encoding: 648 648 173
Width: 361
Flags: W
AnchorPoint: "Anchor-7" 181 268 basechar 0
AnchorPoint: "Anchor-6" 225 840 basechar 0
AnchorPoint: "Anchor-5" 214 0 basechar 0
AnchorPoint: "Anchor-4" 154 659 basechar 0
LayerCount: 2
Fore
SplineSet
264 62 m 0,0,1
 284 62 284 62 305 65.5 c 128,-1,2
 326 69 326 69 339 73 c 1,3,-1
 339 6 l 1,4,5
 325 -1 325 -1 299 -5.5 c 128,-1,6
 273 -10 273 -10 249 -10 c 0,7,8
 207 -10 207 -10 171.5 4.5 c 128,-1,9
 136 19 136 19 114 55 c 128,-1,10
 92 91 92 91 92 156 c 2,11,-1
 92 468 l 1,12,-1
 16 468 l 1,13,-1
 16 510 l 1,14,-1
 93 545 l 1,15,-1
 128 659 l 1,16,-1
 180 659 l 1,17,-1
 180 536 l 1,18,-1
 335 536 l 1,19,-1
 335 468 l 1,20,-1
 180 468 l 1,21,-1
 180 158 l 2,22,23
 180 109 180 109 203.5 85.5 c 128,-1,24
 227 62 227 62 264 62 c 0,0,1
EndSplineSet
EndChar

StartChar: uni02A3
Encoding: 675 675 174
Width: 615
Flags: W
AnchorPoint: "Anchor-7" 308 268 basechar 0
AnchorPoint: "Anchor-6" 553 760 basechar 0
AnchorPoint: "Anchor-5" 292 0 basechar 0
AnchorPoint: "Anchor-4" 275 760 basechar 0
LayerCount: 2
Fore
SplineSet
275 -10 m 0,0,1
 175 -10 175 -10 115 59.5 c 128,-1,2
 55 129 55 129 55 267 c 256,3,4
 55 405 55 405 115.5 475.5 c 128,-1,5
 176 546 176 546 276 546 c 0,6,7
 318 546 318 546 349 535.5 c 128,-1,8
 380 525 380 525 403 507 c 128,-1,9
 426 489 426 489 442 467 c 1,10,-1
 448 467 l 1,11,12
 447 480 447 480 444.5 505.5 c 128,-1,13
 442 531 442 531 442 546 c 2,14,-1
 442 760 l 1,15,-1
 530 760 l 1,16,-1
 530 0 l 1,17,-1
 459 0 l 1,18,-1
 446 72 l 1,19,-1
 442 72 l 1,20,21
 426 49 426 49 403 30.5 c 128,-1,22
 380 12 380 12 348.5 1 c 128,-1,23
 317 -10 317 -10 275 -10 c 0,0,1
289 63 m 0,24,25
 374 63 374 63 408.5 109.5 c 128,-1,26
 443 156 443 156 443 250 c 2,27,-1
 443 266 l 2,28,29
 443 366 443 366 410 419.5 c 128,-1,30
 377 473 377 473 288 473 c 0,31,32
 217 473 217 473 181.5 416.5 c 128,-1,33
 146 360 146 360 146 265 c 0,34,35
 146 169 146 169 181.5 116 c 128,-1,36
 217 63 217 63 289 63 c 0,24,25
EndSplineSet
EndChar

StartChar: dotaccent
Encoding: 729 729 175
Width: 528
Flags: W
AnchorPoint: "Anchor-7" 264 287 basechar 0
AnchorPoint: "Anchor-6" 508 572 basechar 0
AnchorPoint: "Anchor-5" 264 0 basechar 0
AnchorPoint: "Anchor-4" 266 572 basechar 0
LayerCount: 2
Fore
SplineSet
0 0 m 1,0,-1
 216 574 l 1,1,-1
 315 574 l 1,2,-1
 528 0 l 1,3,-1
 432 0 l 1,4,-1
 375 163 l 1,5,-1
 156 163 l 1,6,-1
 96 0 l 1,7,-1
 0 0 l 1,0,-1
294 396 m 2,8,9
 289 410 289 410 283.5 425.5 c 128,-1,10
 278 441 278 441 273.5 457 c 128,-1,11
 269 473 269 473 265 489 c 1,12,13
 261 473 261 473 256.5 457.5 c 128,-1,14
 252 442 252 442 247 426.5 c 128,-1,15
 242 411 242 411 236 395 c 2,16,-1
 180 236 l 1,17,-1
 349 236 l 1,18,-1
 294 396 l 2,8,9
EndSplineSet
EndChar

StartChar: ring
Encoding: 730 730 176
Width: 764
Flags: W
LayerCount: 2
Fore
SplineSet
470 218 m 0,0,1
 470 148 470 148 424.5 114 c 0,2,3
 379 80 379 80 312 80 c 0,4,5
 226 80 226 80 159 144 c 0,6,7
 92 208 92 208 29 356 c 1,8,-1
 100 382 l 1,9,10
 143 276 143 276 193 214.5 c 0,11,12
 243 153 243 153 305 153 c 0,13,14
 343 153 343 153 367 170.5 c 0,15,16
 391 188 391 188 391 227 c 0,17,18
 391 264 391 264 370.5 293 c 0,19,20
 350 322 350 322 318 347 c 1,21,22
 291 342 291 342 260 341 c 1,23,-1
 255 411 l 1,24,25
 323 413 323 413 351.5 435 c 0,26,27
 380 457 380 457 380 494 c 0,28,29
 380 530 380 530 356.5 546 c 0,30,31
 333 562 333 562 302 562 c 0,32,33
 265 562 265 562 235 552 c 0,34,35
 205 542 205 542 171 525 c 1,36,-1
 146 594 l 1,37,38
 172 608 172 608 210.5 620 c 0,39,40
 249 632 249 632 298 632 c 0,41,42
 376 632 376 632 417.5 593 c 0,43,44
 459 554 459 554 459 495 c 0,45,46
 459 417 459 417 392 375 c 1,47,48
 403 365 403 365 412 355 c 1,49,50
 450 350 450 350 486 350 c 0,51,52
 518 350 518 350 543 353 c 0,53,54
 568 356 568 356 594 363 c 1,55,-1
 594 551 l 1,56,-1
 521 551 l 1,57,-1
 521 622 l 1,58,-1
 779 622 l 1,59,-1
 779 551 l 1,60,-1
 675 551 l 1,61,-1
 675 0 l 1,62,-1
 594 0 l 1,63,-1
 594 290 l 1,64,65
 570 284 570 284 547 281.5 c 0,66,67
 524 279 524 279 498 279 c 0,68,69
 481 279 481 279 455 282 c 1,70,71
 470 252 470 252 470 218 c 0,0,1
EndSplineSet
EndChar

StartChar: uni030F
Encoding: 783 783 177
Width: 615
Flags: W
AnchorPoint: "Anchor-7" 322 153 basechar 0
AnchorPoint: "Anchor-6" 585 536 basechar 0
AnchorPoint: "Anchor-5" 129 -240 basechar 0
AnchorPoint: "Anchor-4" 332 536 basechar 0
LayerCount: 2
Fore
SplineSet
340 546 m 0,0,1
 439 546 439 546 499.5 477 c 128,-1,2
 560 408 560 408 560 269 c 0,3,4
 560 178 560 178 532.5 115.5 c 128,-1,5
 505 53 505 53 455.5 21.5 c 128,-1,6
 406 -10 406 -10 339 -10 c 0,7,8
 298 -10 298 -10 266 1 c 128,-1,9
 234 12 234 12 211.5 29.5 c 128,-1,10
 189 47 189 47 173 68 c 1,11,-1
 167 68 l 1,12,13
 169 51 169 51 171 25 c 128,-1,14
 173 -1 173 -1 173 -20 c 2,15,-1
 173 -240 l 1,16,-1
 85 -240 l 1,17,-1
 85 536 l 1,18,-1
 157 536 l 1,19,-1
 169 463 l 1,20,-1
 173 463 l 1,21,22
 189 486 189 486 211.5 505 c 128,-1,23
 234 524 234 524 265.5 535 c 128,-1,24
 297 546 297 546 340 546 c 0,0,1
324 472 m 0,25,26
 270 472 270 472 237 451.5 c 128,-1,27
 204 431 204 431 189 390 c 128,-1,28
 174 349 174 349 173 286 c 2,29,-1
 173 269 l 2,30,31
 173 203 173 203 187 157 c 128,-1,32
 201 111 201 111 234.5 87 c 128,-1,33
 268 63 268 63 326 63 c 0,34,35
 375 63 375 63 406.5 90 c 128,-1,36
 438 117 438 117 453.5 163.5 c 128,-1,37
 469 210 469 210 469 270 c 0,38,39
 469 362 469 362 433.5 417 c 128,-1,40
 398 472 398 472 324 472 c 0,25,26
EndSplineSet
EndChar

StartChar: logicalnot
Encoding: 172 172 178
Width: 561
Flags: W
AnchorPoint: "Anchor-7" 263 267 basechar 0
AnchorPoint: "Anchor-6" 511 536 basechar 0
AnchorPoint: "Anchor-5" 281 0 basechar 0
AnchorPoint: "Anchor-4" 281 766 basechar 0
LayerCount: 2
Fore
SplineSet
288 545 m 0,0,1
 386 545 386 545 433 502 c 128,-1,2
 480 459 480 459 480 365 c 2,3,-1
 480 0 l 1,4,-1
 416 0 l 1,5,-1
 399 76 l 1,6,-1
 395 76 l 1,7,8
 372 47 372 47 347.5 27.5 c 128,-1,9
 323 8 323 8 291.5 -1 c 128,-1,10
 260 -10 260 -10 215 -10 c 0,11,12
 167 -10 167 -10 128.5 7 c 128,-1,13
 90 24 90 24 68 59.5 c 128,-1,14
 46 95 46 95 46 149 c 0,15,16
 46 229 46 229 109 272.5 c 128,-1,17
 172 316 172 316 303 320 c 2,18,-1
 394 323 l 1,19,-1
 394 355 l 2,20,21
 394 422 394 422 365 448 c 128,-1,22
 336 474 336 474 283 474 c 0,23,24
 241 474 241 474 203 461.5 c 128,-1,25
 165 449 165 449 132 433 c 1,26,-1
 105 499 l 1,27,28
 140 518 140 518 188 531.5 c 128,-1,29
 236 545 236 545 288 545 c 0,0,1
314 259 m 2,30,31
 214 255 214 255 175.5 227 c 128,-1,32
 137 199 137 199 137 148 c 0,33,34
 137 103 137 103 164.5 82 c 128,-1,35
 192 61 192 61 235 61 c 0,36,37
 303 61 303 61 348 98.5 c 128,-1,38
 393 136 393 136 393 214 c 2,39,-1
 393 262 l 1,40,-1
 314 259 l 2,30,31
235 606 m 5,41,42
 222 629 222 629 200 655.5 c 132,-1,43
 178 682 178 682 154 708 c 132,-1,44
 130 734 130 734 112 753 c 5,45,-1
 112 766 l 5,46,-1
 172 766 l 5,47,48
 198 749 198 749 226 725 c 132,-1,49
 254 701 254 701 279 674 c 5,50,51
 306 701 306 701 334 725 c 132,-1,52
 362 749 362 749 388 766 c 5,53,-1
 450 766 l 5,54,-1
 450 753 l 5,55,56
 431 734 431 734 406.5 708 c 132,-1,57
 382 682 382 682 359.5 655.5 c 132,-1,58
 337 629 337 629 325 606 c 5,59,-1
 235 606 l 5,41,42
EndSplineSet
EndChar

StartChar: uni00AD
Encoding: 173 173 179
Width: 561
Flags: W
LayerCount: 2
Fore
SplineSet
429 677 m 5,0,-1
 429 606 l 5,1,-1
 132 606 l 5,2,-1
 132 677 l 5,3,-1
 429 677 l 5,0,-1
288 545 m 0,4,5
 386 545 386 545 433 502 c 128,-1,6
 480 459 480 459 480 365 c 2,7,-1
 480 0 l 1,8,-1
 416 0 l 1,9,-1
 399 76 l 1,10,-1
 395 76 l 1,11,12
 372 47 372 47 347.5 27.5 c 128,-1,13
 323 8 323 8 291.5 -1 c 128,-1,14
 260 -10 260 -10 215 -10 c 0,15,16
 167 -10 167 -10 128.5 7 c 128,-1,17
 90 24 90 24 68 59.5 c 128,-1,18
 46 95 46 95 46 149 c 0,19,20
 46 229 46 229 109 272.5 c 128,-1,21
 172 316 172 316 303 320 c 2,22,-1
 394 323 l 1,23,-1
 394 355 l 2,24,25
 394 422 394 422 365 448 c 128,-1,26
 336 474 336 474 283 474 c 0,27,28
 241 474 241 474 203 461.5 c 128,-1,29
 165 449 165 449 132 433 c 1,30,-1
 105 499 l 1,31,32
 140 518 140 518 188 531.5 c 128,-1,33
 236 545 236 545 288 545 c 0,4,5
314 259 m 2,34,35
 214 255 214 255 175.5 227 c 128,-1,36
 137 199 137 199 137 148 c 0,37,38
 137 103 137 103 164.5 82 c 128,-1,39
 192 61 192 61 235 61 c 0,40,41
 303 61 303 61 348 98.5 c 128,-1,42
 393 136 393 136 393 214 c 2,43,-1
 393 262 l 1,44,-1
 314 259 l 2,34,35
EndSplineSet
EndChar

StartChar: registered
Encoding: 174 174 180
Width: 561
Flags: W
LayerCount: 2
Fore
SplineSet
325 766 m 1,0,1
 337 744 337 744 359.5 716.5 c 128,-1,2
 382 689 382 689 406.5 662.5 c 128,-1,3
 431 636 431 636 450 617 c 1,4,-1
 450 606 l 1,5,-1
 388 606 l 1,6,7
 362 622 362 622 334 645.5 c 128,-1,8
 306 669 306 669 279 696 c 1,9,10
 252 669 252 669 225 646 c 128,-1,11
 198 623 198 623 172 606 c 1,12,-1
 112 606 l 1,13,-1
 112 617 l 1,14,15
 131 637 131 637 154.5 663 c 128,-1,16
 178 689 178 689 200 716.5 c 128,-1,17
 222 744 222 744 235 766 c 1,18,-1
 325 766 l 1,0,1
288 545 m 0,19,20
 386 545 386 545 433 502 c 128,-1,21
 480 459 480 459 480 365 c 2,22,-1
 480 0 l 1,23,-1
 416 0 l 1,24,-1
 399 76 l 1,25,-1
 395 76 l 1,26,27
 372 47 372 47 347.5 27.5 c 128,-1,28
 323 8 323 8 291.5 -1 c 128,-1,29
 260 -10 260 -10 215 -10 c 0,30,31
 167 -10 167 -10 128.5 7 c 128,-1,32
 90 24 90 24 68 59.5 c 128,-1,33
 46 95 46 95 46 149 c 0,34,35
 46 229 46 229 109 272.5 c 128,-1,36
 172 316 172 316 303 320 c 2,37,-1
 394 323 l 1,38,-1
 394 355 l 2,39,40
 394 422 394 422 365 448 c 128,-1,41
 336 474 336 474 283 474 c 0,42,43
 241 474 241 474 203 461.5 c 128,-1,44
 165 449 165 449 132 433 c 1,45,-1
 105 499 l 1,46,47
 140 518 140 518 188 531.5 c 128,-1,48
 236 545 236 545 288 545 c 0,19,20
314 259 m 2,49,50
 214 255 214 255 175.5 227 c 128,-1,51
 137 199 137 199 137 148 c 0,52,53
 137 103 137 103 164.5 82 c 128,-1,54
 192 61 192 61 235 61 c 0,55,56
 303 61 303 61 348 98.5 c 128,-1,57
 393 136 393 136 393 214 c 2,58,-1
 393 262 l 1,59,-1
 314 259 l 2,49,50
EndSplineSet
EndChar

StartChar: uni0221
Encoding: 545 545 181
Width: 618
Flags: W
AnchorPoint: "Anchor-7" 311 273 basechar 0
AnchorPoint: "Anchor-6" 562 536 basechar 0
AnchorPoint: "Anchor-5" 309 0 basechar 0
AnchorPoint: "Anchor-4" 309 766 basechar 0
LayerCount: 2
Fore
SplineSet
284 766 m 5,0,1
 295 744 295 744 311.5 716.5 c 132,-1,2
 328 689 328 689 346.5 663 c 132,-1,3
 365 637 365 637 380 618 c 5,4,-1
 380 606 l 5,5,-1
 321 606 l 5,6,7
 304 620 304 620 283 639.5 c 132,-1,8
 262 659 262 659 241.5 680.5 c 132,-1,9
 221 702 221 702 204.5 722 c 132,-1,10
 188 742 188 742 179 756 c 5,11,-1
 179 766 l 5,12,-1
 284 766 l 5,0,1
343 546 m 0,13,14
 439 546 439 546 488 499.5 c 128,-1,15
 537 453 537 453 537 349 c 2,16,-1
 537 0 l 1,17,-1
 450 0 l 1,18,-1
 450 343 l 2,19,20
 450 408 450 408 421 440 c 128,-1,21
 392 472 392 472 330 472 c 0,22,23
 241 472 241 472 207 422 c 128,-1,24
 173 372 173 372 173 278 c 2,25,-1
 173 0 l 1,26,-1
 85 0 l 1,27,-1
 85 536 l 1,28,-1
 156 536 l 1,29,-1
 169 463 l 1,30,-1
 174 463 l 1,31,32
 192 491 192 491 218.5 509.5 c 128,-1,33
 245 528 245 528 277 537 c 128,-1,34
 309 546 309 546 343 546 c 0,13,14
EndSplineSet
EndChar

StartChar: uni0224
Encoding: 548 548 182
Width: 618
Flags: W
AnchorPoint: "Anchor-7" 311 273 basechar 0
AnchorPoint: "Anchor-6" 562 536 basechar 0
AnchorPoint: "Anchor-5" 309 0 basechar 0
AnchorPoint: "Anchor-4" 309 735 basechar 0
LayerCount: 2
Fore
SplineSet
126 606 m 1,0,1
 129 636 129 636 137.5 659.5 c 0,2,3
 146 683 146 683 160 699.5 c 0,4,5
 174 716 174 716 193 725 c 0,6,7
 212 734 212 734 236 734 c 0,8,9
 258 734 258 734 278.5 725.5 c 0,10,11
 299 717 299 717 318 705.5 c 0,12,13
 337 694 337 694 354.5 685.5 c 0,14,15
 372 677 372 677 388 677 c 0,16,17
 411 677 411 677 423.5 691.5 c 0,18,19
 436 706 436 706 443 735 c 1,20,-1
 493 735 l 1,21,22
 487 677 487 677 459 642 c 0,23,24
 431 607 431 607 384 607 c 0,25,26
 363 607 363 607 343 615.5 c 0,27,28
 323 624 323 624 303.5 635.5 c 0,29,30
 284 647 284 647 266.5 655.5 c 0,31,32
 249 664 249 664 232 664 c 0,33,34
 208 664 208 664 196 649.5 c 0,35,36
 184 635 184 635 177 606 c 1,37,-1
 126 606 l 1,0,1
EndSplineSet
Refer: 80 110 N 1 0 0 1 0 0 3
EndChar

StartChar: uni0206
Encoding: 518 518 183
Width: 598
Flags: W
LayerCount: 2
Fore
SplineSet
509 551 m 1,0,-1
 509 0 l 1,1,-1
 428 0 l 1,2,-1
 428 250 l 1,3,-1
 207 250 l 1,4,-1
 207 213 l 2,5,6
 207 180 207 180 192.5 165.5 c 128,-1,7
 178 151 178 151 159 151 c 256,8,9
 140 151 140 151 119 163.5 c 128,-1,10
 98 176 98 176 80 195.5 c 128,-1,11
 62 215 62 215 50.5 237 c 128,-1,12
 39 259 39 259 39 278 c 0,13,14
 39 296 39 296 52.5 308.5 c 128,-1,15
 66 321 66 321 100 321 c 2,16,-1
 126 321 l 1,17,-1
 126 551 l 1,18,-1
 0 551 l 1,19,-1
 0 622 l 1,20,-1
 612 622 l 1,21,-1
 612 551 l 1,22,-1
 509 551 l 1,0,-1
428 551 m 1,23,-1
 207 551 l 1,24,-1
 207 321 l 1,25,-1
 428 321 l 1,26,-1
 428 551 l 1,23,-1
EndSplineSet
EndChar

StartChar: uni01D0
Encoding: 464 464 184
Width: 699
Flags: W
LayerCount: 2
Fore
SplineSet
422 30 m 0,0,1
 422 78 422 78 452.5 114.5 c 128,-1,2
 483 151 483 151 550 170 c 1,3,4
 561 191 561 191 568 215 c 128,-1,5
 575 239 575 239 575 268 c 0,6,7
 575 313 575 313 553 334.5 c 128,-1,8
 531 356 531 356 496 356 c 0,9,10
 471 356 471 356 445.5 344 c 128,-1,11
 420 332 420 332 397 300.5 c 128,-1,12
 374 269 374 269 356 208 c 1,13,-1
 279 232 l 1,14,15
 291 278 291 278 311 313 c 1,16,17
 288 331 288 331 263.5 342 c 128,-1,18
 239 353 239 353 209 353 c 0,19,20
 169 353 169 353 147.5 330 c 128,-1,21
 126 307 126 307 126 271 c 0,22,23
 126 233 126 233 147.5 198.5 c 128,-1,24
 169 164 169 164 210 126.5 c 128,-1,25
 251 89 251 89 309 40 c 1,26,-1
 255 -12 l 1,27,28
 197 38 197 38 149 83.5 c 128,-1,29
 101 129 101 129 73 175.5 c 128,-1,30
 45 222 45 222 45 275 c 256,31,32
 45 328 45 328 69.5 361.5 c 128,-1,33
 94 395 94 395 130.5 410.5 c 128,-1,34
 167 426 167 426 204 426 c 0,35,36
 248 426 248 426 284.5 411.5 c 128,-1,37
 321 397 321 397 354 369 c 1,38,39
 402 414 402 414 470 424 c 1,40,-1
 470 551 l 1,41,-1
 0 551 l 1,42,-1
 0 622 l 1,43,-1
 714 622 l 1,44,-1
 714 551 l 1,45,-1
 550 551 l 1,46,-1
 550 419 l 1,47,48
 590 407 590 407 623 370 c 128,-1,49
 656 333 656 333 656 264 c 0,50,51
 656 223 656 223 644 184.5 c 128,-1,52
 632 146 632 146 615 114 c 1,53,54
 554 104 554 104 525 82 c 128,-1,55
 496 60 496 60 496 24 c 0,56,57
 496 -10 496 -10 521 -25.5 c 128,-1,58
 546 -41 546 -41 577 -41 c 0,59,60
 609 -41 609 -41 632.5 -33 c 128,-1,61
 656 -25 656 -25 690 -8 c 1,62,-1
 715 -77 l 1,63,64
 690 -90 690 -90 656.5 -100.5 c 128,-1,65
 623 -111 623 -111 582 -111 c 0,66,67
 507 -111 507 -111 464.5 -72 c 128,-1,68
 422 -33 422 -33 422 30 c 0,0,1
EndSplineSet
EndChar

StartChar: uni01D1
Encoding: 465 465 185
Width: 678
Flags: W
LayerCount: 2
Fore
SplineSet
144 671 m 5,0,1
 150 730 150 730 178.5 764.5 c 132,-1,2
 207 799 207 799 254 799 c 4,3,4
 284 799 284 799 310.5 784.5 c 132,-1,5
 337 770 337 770 361 756 c 132,-1,6
 385 742 385 742 406 742 c 4,7,8
 429 742 429 742 441.5 756.5 c 132,-1,9
 454 771 454 771 461 800 c 5,10,-1
 511 800 l 5,11,12
 505 742 505 742 477 707 c 132,-1,13
 449 672 449 672 402 672 c 4,14,15
 374 672 374 672 347.5 686 c 132,-1,16
 321 700 321 700 296.5 714.5 c 132,-1,17
 272 729 272 729 250 729 c 4,18,19
 226 729 226 729 214 714.5 c 132,-1,20
 202 700 202 700 195 671 c 5,21,-1
 144 671 l 5,0,1
0 551 m 1,22,-1
 0 622 l 1,23,-1
 693 622 l 1,24,-1
 693 551 l 1,25,-1
 589 551 l 1,26,-1
 589 0 l 1,27,-1
 508 0 l 1,28,-1
 508 355 l 1,29,30
 502 356 502 356 494 356 c 0,31,32
 470 356 470 356 445 344 c 128,-1,33
 420 332 420 332 397 300.5 c 128,-1,34
 374 269 374 269 356 208 c 1,35,-1
 279 232 l 1,36,37
 291 278 291 278 311 313 c 1,38,39
 287 331 287 331 263 342 c 128,-1,40
 239 353 239 353 209 353 c 0,41,42
 169 353 169 353 147.5 330 c 128,-1,43
 126 307 126 307 126 271 c 0,44,45
 126 233 126 233 147.5 198.5 c 128,-1,46
 169 164 169 164 210 126.5 c 128,-1,47
 251 89 251 89 309 40 c 1,48,-1
 255 -12 l 1,49,50
 197 38 197 38 149 83.5 c 128,-1,51
 101 129 101 129 73 175.5 c 128,-1,52
 45 222 45 222 45 275 c 256,53,54
 45 328 45 328 69.5 361.5 c 128,-1,55
 94 395 94 395 131 410.5 c 128,-1,56
 168 426 168 426 204 426 c 0,57,58
 248 426 248 426 284.5 411.5 c 128,-1,59
 321 397 321 397 354 370 c 1,60,61
 412 426 412 426 499 426 c 0,62,63
 504 426 504 426 508 426 c 1,64,-1
 508 551 l 1,65,-1
 0 551 l 1,22,-1
EndSplineSet
EndChar

StartChar: uni01D2
Encoding: 466 466 186
Width: 678
Flags: W
LayerCount: 2
Fore
SplineSet
0 551 m 1,0,-1
 0 622 l 1,1,-1
 693 622 l 1,2,-1
 693 551 l 1,3,-1
 589 551 l 1,4,-1
 589 0 l 1,5,-1
 508 0 l 1,6,-1
 508 377 l 1,7,-1
 552 341 l 2,8,9
 535 351 535 351 520.5 353.5 c 128,-1,10
 506 356 506 356 494 356 c 0,11,12
 470 356 470 356 445 344 c 128,-1,13
 420 332 420 332 397 300.5 c 128,-1,14
 374 269 374 269 356 208 c 1,15,-1
 279 232 l 1,16,17
 304 327 304 327 361.5 376.5 c 128,-1,18
 419 426 419 426 499 426 c 0,19,20
 516 426 516 426 533 423 c 128,-1,21
 550 420 550 420 562 416 c 1,22,-1
 565 394 l 1,23,-1
 508 413 l 1,24,-1
 508 551 l 1,25,-1
 0 551 l 1,0,-1
337 292 m 1,26,27
 306 318 306 318 276.5 335.5 c 128,-1,28
 247 353 247 353 209 353 c 0,29,30
 169 353 169 353 147.5 330 c 128,-1,31
 126 307 126 307 126 271 c 0,32,33
 126 233 126 233 147.5 198.5 c 128,-1,34
 169 164 169 164 210 126.5 c 128,-1,35
 251 89 251 89 309 40 c 1,36,-1
 255 -12 l 1,37,38
 197 38 197 38 149 83.5 c 128,-1,39
 101 129 101 129 73 175.5 c 128,-1,40
 45 222 45 222 45 275 c 0,41,42
 45 315 45 315 59.5 343.5 c 128,-1,43
 74 372 74 372 97.5 390.5 c 128,-1,44
 121 409 121 409 149 417.5 c 128,-1,45
 177 426 177 426 204 426 c 0,46,47
 237 426 237 426 265 418 c 128,-1,48
 293 410 293 410 319 394.5 c 128,-1,49
 345 379 345 379 369 357 c 1,50,-1
 337 292 l 1,26,27
EndSplineSet
EndChar

StartChar: uni0257
Encoding: 599 599 187
Width: 531
Flags: W
AnchorPoint: "Anchor-7" 365 274 basechar 0
AnchorPoint: "Anchor-5" 265 0 basechar 0
AnchorPoint: "Anchor-4" 279 536 basechar 0
LayerCount: 2
Fore
SplineSet
458 299 m 1,0,-1
 262 493 l 1,1,-1
 306 536 l 1,2,-1
 500 343 l 1,3,-1
 458 299 l 1,0,-1
423 0 m 1,4,-1
 240 269 l 1,5,-1
 239 277 l 1,6,-1
 418 536 l 1,7,-1
 510 536 l 1,8,-1
 313 252 l 1,9,-1
 309 314 l 1,10,-1
 523 0 l 1,11,-1
 423 0 l 1,4,-1
85 0 m 1,12,-1
 85 536 l 1,13,-1
 173 536 l 1,14,-1
 173 0 l 1,15,-1
 85 0 l 1,12,-1
167 237 m 1,16,-1
 167 311 l 1,17,-1
 271 311 l 1,18,-1
 271 237 l 1,19,-1
 167 237 l 1,16,-1
EndSplineSet
EndChar

StartChar: uni0318
Encoding: 792 792 188
Width: 615
Flags: W
AnchorPoint: "Anchor-7" 322 153 basechar 0
AnchorPoint: "Anchor-5" 308 -240 basechar 0
AnchorPoint: "Anchor-4" 308 536 basechar 0
LayerCount: 2
Fore
SplineSet
339 -10 m 0,0,1
 298 -10 298 -10 266 1 c 128,-1,2
 234 12 234 12 211.5 29.5 c 128,-1,3
 189 47 189 47 173 68 c 1,4,-1
 167 68 l 1,5,6
 169 48 169 48 171 21 c 128,-1,7
 173 -6 173 -6 173 -20 c 2,8,-1
 173 -240 l 1,9,-1
 85 -240 l 1,10,-1
 85 536 l 1,11,-1
 157 536 l 1,12,-1
 170 463 l 1,13,-1
 174 463 l 1,14,15
 190 486 190 486 212.5 505 c 128,-1,16
 235 524 235 524 266 535 c 128,-1,17
 297 546 297 546 340 546 c 0,18,19
 439 546 439 546 499.5 477 c 128,-1,20
 560 408 560 408 560 269 c 0,21,22
 560 185 560 185 537 126.5 c 128,-1,23
 514 68 514 68 473 34 c 1,24,-1
 528 -41 l 1,25,-1
 476 -82 l 1,26,-1
 413 2 l 1,27,28
 397 -4 397 -4 378 -7 c 128,-1,29
 359 -10 359 -10 339 -10 c 0,0,1
324 472 m 0,30,31
 270 472 270 472 237 451.5 c 128,-1,32
 204 431 204 431 189 390 c 128,-1,33
 174 349 174 349 173 286 c 2,34,-1
 173 269 l 2,35,36
 173 203 173 203 187 157 c 128,-1,37
 201 111 201 111 234.5 87 c 128,-1,38
 268 63 268 63 326 63 c 0,39,40
 337 63 337 63 347 64.5 c 128,-1,41
 357 66 357 66 366 69 c 1,42,-1
 308 144 l 1,43,-1
 363 185 l 1,44,-1
 424 106 l 1,45,46
 447 132 447 132 458 173 c 128,-1,47
 469 214 469 214 469 270 c 0,48,49
 469 371 469 371 433.5 421.5 c 128,-1,50
 398 472 398 472 324 472 c 0,30,31
EndSplineSet
EndChar

StartChar: Uacute
Encoding: 218 218 189
Width: 618
Flags: W
AnchorPoint: "Anchor-7" 306 263 basechar 0
AnchorPoint: "Anchor-6" 562 536 basechar 0
AnchorPoint: "Anchor-5" 294 0 basechar 0
AnchorPoint: "Anchor-4" 309 766 basechar 0
LayerCount: 2
Fore
SplineSet
284 766 m 5,0,1
 295 744 295 744 311.5 716.5 c 132,-1,2
 328 689 328 689 346.5 663 c 132,-1,3
 365 637 365 637 380 618 c 5,4,-1
 380 606 l 5,5,-1
 321 606 l 5,6,7
 304 620 304 620 283 639.5 c 132,-1,8
 262 659 262 659 241.5 680.5 c 132,-1,9
 221 702 221 702 204.5 722 c 132,-1,10
 188 742 188 742 179 756 c 5,11,-1
 179 766 l 5,12,-1
 284 766 l 5,0,1
533 536 m 1,13,-1
 533 0 l 1,14,-1
 461 0 l 1,15,-1
 448 71 l 1,16,-1
 444 71 l 1,17,18
 427 43 427 43 400 25 c 128,-1,19
 373 7 373 7 341 -1.5 c 128,-1,20
 309 -10 309 -10 274 -10 c 0,21,22
 210 -10 210 -10 166.5 10.5 c 128,-1,23
 123 31 123 31 101 74 c 128,-1,24
 79 117 79 117 79 185 c 2,25,-1
 79 536 l 1,26,-1
 168 536 l 1,27,-1
 168 191 l 2,28,29
 168 127 168 127 197 95 c 128,-1,30
 226 63 226 63 287 63 c 0,31,32
 347 63 347 63 381.5 85.5 c 128,-1,33
 416 108 416 108 430.5 151.5 c 128,-1,34
 445 195 445 195 445 257 c 2,35,-1
 445 536 l 1,36,-1
 533 536 l 1,13,-1
EndSplineSet
EndChar

StartChar: Ucircumflex
Encoding: 219 219 190
Width: 618
Flags: W
AnchorPoint: "Anchor-7" 306 263 basechar 0
AnchorPoint: "Anchor-6" 562 536 basechar 0
AnchorPoint: "Anchor-5" 294 0 basechar 0
AnchorPoint: "Anchor-4" 309 766 basechar 0
LayerCount: 2
Fore
SplineSet
457 756 m 5,0,1
 448 742 448 742 431 722 c 132,-1,2
 414 702 414 702 393.5 680.5 c 132,-1,3
 373 659 373 659 352.5 639.5 c 132,-1,4
 332 620 332 620 314 606 c 5,5,-1
 256 606 l 5,6,-1
 256 618 l 5,7,8
 271 637 271 637 288.5 663 c 132,-1,9
 306 689 306 689 323 716.5 c 132,-1,10
 340 744 340 744 351 766 c 5,11,-1
 457 766 l 5,12,-1
 457 756 l 5,0,1
533 536 m 1,13,-1
 533 0 l 1,14,-1
 461 0 l 1,15,-1
 448 71 l 1,16,-1
 444 71 l 1,17,18
 427 43 427 43 400 25 c 128,-1,19
 373 7 373 7 341 -1.5 c 128,-1,20
 309 -10 309 -10 274 -10 c 0,21,22
 210 -10 210 -10 166.5 10.5 c 128,-1,23
 123 31 123 31 101 74 c 128,-1,24
 79 117 79 117 79 185 c 2,25,-1
 79 536 l 1,26,-1
 168 536 l 1,27,-1
 168 191 l 2,28,29
 168 127 168 127 197 95 c 128,-1,30
 226 63 226 63 287 63 c 0,31,32
 347 63 347 63 381.5 85.5 c 128,-1,33
 416 108 416 108 430.5 151.5 c 128,-1,34
 445 195 445 195 445 257 c 2,35,-1
 445 536 l 1,36,-1
 533 536 l 1,13,-1
EndSplineSet
EndChar

StartChar: Uring
Encoding: 366 366 191
Width: 642
Flags: W
AnchorPoint: "Anchor-7" 322 268 basechar 0
AnchorPoint: "Anchor-5" 321 0 basechar 0
AnchorPoint: "Anchor-4" 321 536 basechar 0
LayerCount: 2
Fore
SplineSet
336 285 m 1,0,-1
 589 285 l 1,1,-1
 589 251 l 2,2,3
 589 188 589 188 574 139.5 c 128,-1,4
 559 91 559 91 527.5 57.5 c 128,-1,5
 496 24 496 24 448.5 7 c 128,-1,6
 401 -10 401 -10 335 -10 c 0,7,8
 243 -10 243 -10 180.5 23.5 c 128,-1,9
 118 57 118 57 86.5 119 c 128,-1,10
 55 181 55 181 55 267 c 0,11,12
 55 352 55 352 88.5 414.5 c 128,-1,13
 122 477 122 477 188.5 511.5 c 128,-1,14
 255 546 255 546 354 546 c 0,15,16
 412 546 412 546 458.5 536 c 128,-1,17
 505 526 505 526 545 507 c 1,18,-1
 515 438 l 1,19,20
 483 452 483 452 441 463 c 128,-1,21
 399 474 399 474 352 474 c 0,22,23
 284 474 284 474 238 449 c 128,-1,24
 192 424 192 424 169 377.5 c 128,-1,25
 146 331 146 331 146 267 c 0,26,27
 146 175 146 175 190.5 118.5 c 128,-1,28
 235 62 235 62 335 62 c 0,29,30
 394 62 394 62 430 81 c 128,-1,31
 466 100 466 100 483 133.5 c 128,-1,32
 500 167 500 167 500 212 c 1,33,-1
 336 212 l 1,34,-1
 336 285 l 1,0,-1
EndSplineSet
EndChar

StartChar: uni0185
Encoding: 389 389 192
Width: 580
Flags: W
AnchorPoint: "Anchor-1" 285 798 basechar 0
LayerCount: 2
Fore
SplineSet
239 638 m 5,0,1
 226 661 226 661 204 687.5 c 132,-1,2
 182 714 182 714 158 740 c 132,-1,3
 134 766 134 766 116 785 c 5,4,-1
 116 798 l 5,5,-1
 176 798 l 5,6,7
 202 781 202 781 230 757 c 132,-1,8
 258 733 258 733 283 706 c 5,9,10
 310 733 310 733 338 757 c 132,-1,11
 366 781 366 781 392 798 c 5,12,-1
 454 798 l 5,13,-1
 454 785 l 5,14,15
 435 766 435 766 410.5 740 c 132,-1,16
 386 714 386 714 363.5 687.5 c 132,-1,17
 341 661 341 661 329 638 c 5,18,-1
 239 638 l 5,0,1
595 622 m 1,19,-1
 595 551 l 1,20,-1
 491 551 l 1,21,-1
 491 0 l 1,22,-1
 410 0 l 1,23,-1
 410 216 l 1,24,-1
 426 191 l 1,25,26
 408 177 408 177 382.5 163 c 128,-1,27
 357 149 357 149 324.5 140.5 c 128,-1,28
 292 132 292 132 253 132 c 0,29,30
 193 132 193 132 148 159.5 c 128,-1,31
 103 187 103 187 75.5 237 c 128,-1,32
 48 287 48 287 38 353 c 1,33,34
 100 366 100 366 130 389.5 c 128,-1,35
 160 413 160 413 160 457 c 0,36,37
 160 492 160 492 143.5 520 c 128,-1,38
 127 548 127 548 110 566 c 1,39,-1
 159 551 l 1,40,-1
 0 551 l 1,41,-1
 0 622 l 1,42,-1
 595 622 l 1,19,-1
175 551 m 1,43,-1
 198 572 l 1,44,45
 218 544 218 544 229 510.5 c 128,-1,46
 240 477 240 477 240 445 c 0,47,48
 240 393 240 393 212.5 356 c 128,-1,49
 185 319 185 319 129 301 c 1,50,51
 149 252 149 252 179.5 227.5 c 128,-1,52
 210 203 210 203 259 203 c 0,53,54
 316 203 316 203 357 230.5 c 128,-1,55
 398 258 398 258 425 292 c 1,56,-1
 410 239 l 1,57,-1
 410 551 l 1,58,-1
 175 551 l 1,43,-1
EndSplineSet
EndChar

StartChar: uni03E9
Encoding: 1001 1001 193
Width: 551
Flags: W
LayerCount: 2
Fore
SplineSet
253 719 m 1,0,-1
 303 719 l 1,1,-1
 521 268 l 1,2,-1
 443 268 l 1,3,-1
 278 627 l 1,4,-1
 108 268 l 1,5,-1
 29 268 l 1,6,-1
 253 719 l 1,0,-1
EndSplineSet
EndChar

StartChar: uni03EC
Encoding: 1004 1004 194
Width: 561
Flags: W
LayerCount: 2
Fore
SplineSet
288 545 m 0,0,1
 386 545 386 545 433 502 c 128,-1,2
 480 459 480 459 480 365 c 2,3,-1
 480 0 l 1,4,-1
 416 0 l 1,5,-1
 399 76 l 1,6,-1
 395 76 l 1,7,8
 372 47 372 47 347.5 27.5 c 128,-1,9
 323 8 323 8 291.5 -1 c 128,-1,10
 260 -10 260 -10 215 -10 c 0,11,12
 167 -10 167 -10 128.5 7 c 128,-1,13
 90 24 90 24 68 59.5 c 128,-1,14
 46 95 46 95 46 149 c 0,15,16
 46 229 46 229 109 272.5 c 128,-1,17
 172 316 172 316 303 320 c 2,18,-1
 394 323 l 1,19,-1
 394 355 l 2,20,21
 394 422 394 422 365 448 c 128,-1,22
 336 474 336 474 283 474 c 0,23,24
 241 474 241 474 203 461.5 c 128,-1,25
 165 449 165 449 132 433 c 1,26,-1
 105 499 l 1,27,28
 140 518 140 518 188 531.5 c 128,-1,29
 236 545 236 545 288 545 c 0,0,1
314 259 m 2,30,31
 214 255 214 255 175.5 227 c 128,-1,32
 137 199 137 199 137 148 c 0,33,34
 137 103 137 103 164.5 82 c 128,-1,35
 192 61 192 61 235 61 c 0,36,37
 303 61 303 61 348 98.5 c 128,-1,38
 393 136 393 136 393 214 c 2,39,-1
 393 262 l 1,40,-1
 314 259 l 2,30,31
EndSplineSet
EndChar

StartChar: uni03ED
Encoding: 1005 1005 195
Width: 571
Flags: W
LayerCount: 2
Fore
SplineSet
585 551 m 1,0,-1
 482 551 l 1,1,-1
 482 0 l 1,2,-1
 401 0 l 1,3,-1
 401 201 l 1,4,-1
 416 175 l 1,5,6
 398 162 398 162 373.5 148.5 c 128,-1,7
 349 135 349 135 316.5 126.5 c 128,-1,8
 284 118 284 118 241 118 c 0,9,10
 185 118 185 118 140.5 139 c 128,-1,11
 96 160 96 160 71 197.5 c 128,-1,12
 46 235 46 235 46 286 c 0,13,14
 46 343 46 343 73.5 383 c 128,-1,15
 101 423 101 423 150.5 443.5 c 128,-1,16
 200 464 200 464 265 464 c 0,17,18
 279 464 279 464 299 462.5 c 128,-1,19
 319 461 319 461 338.5 459 c 128,-1,20
 358 457 358 457 369 454 c 1,21,-1
 363 385 l 1,22,23
 343 389 343 389 318 392 c 128,-1,24
 293 395 293 395 268 395 c 0,25,26
 202 395 202 395 164.5 367.5 c 128,-1,27
 127 340 127 340 127 287 c 0,28,29
 127 235 127 235 160.5 209.5 c 128,-1,30
 194 184 194 184 242 184 c 0,31,32
 283 184 283 184 315.5 197 c 128,-1,33
 348 210 348 210 372.5 230 c 128,-1,34
 397 250 397 250 414 271 c 1,35,-1
 401 220 l 1,36,-1
 401 551 l 1,37,-1
 0 551 l 1,38,-1
 0 622 l 1,39,-1
 585 622 l 1,40,-1
 585 551 l 1,0,-1
205 424 m 1,41,-1
 377 209 l 1,42,-1
 331 167 l 1,43,-1
 143 401 l 1,44,-1
 205 424 l 1,41,-1
EndSplineSet
EndChar

StartChar: uni03EE
Encoding: 1006 1006 196
Width: 490
Flags: W
AnchorPoint: "Anchor-1" 245 536 basechar 0
AnchorPoint: "Anchor-0" 245 0 basechar 0
LayerCount: 2
Fore
SplineSet
301 -10 m 0,0,1
 183 -10 183 -10 118 57 c 128,-1,2
 53 124 53 124 53 245 c 0,3,4
 53 325 53 325 82 380.5 c 128,-1,5
 111 436 111 436 165 465 c 1,6,-1
 32 465 l 1,7,-1
 32 537 l 1,8,-1
 458 537 l 1,9,-1
 458 465 l 1,10,-1
 345 465 l 2,11,12
 251 465 251 465 197.5 411.5 c 128,-1,13
 144 358 144 358 144 252 c 0,14,15
 144 165 144 165 187 114.5 c 128,-1,16
 230 64 230 64 310 64 c 0,17,18
 347 64 347 64 381 73.5 c 128,-1,19
 415 83 415 83 447 99 c 1,20,-1
 447 21 l 1,21,22
 418 5 418 5 383 -2.5 c 128,-1,23
 348 -10 348 -10 301 -10 c 0,0,1
EndSplineSet
EndChar

StartChar: uni03EF
Encoding: 1007 1007 197
Width: 577
Flags: W
AnchorPoint: "Anchor-2" 316 0 basechar 0
AnchorPoint: "Anchor-1" 330 0 basechar 0
AnchorPoint: "Anchor-0" 401 622 basechar 0
LayerCount: 2
Fore
SplineSet
358 222 m 0,0,1
 329 222 329 222 300 215 c 128,-1,2
 271 208 271 208 248 197 c 1,3,4
 217 216 217 216 191.5 239 c 128,-1,5
 166 262 166 262 151.5 290 c 128,-1,6
 137 318 137 318 137 352 c 0,7,8
 137 380 137 380 147 400 c 128,-1,9
 157 420 157 420 174 433 c 0,10,11
 189 445 189 445 207.5 452 c 128,-1,12
 226 459 226 459 250.5 462 c 128,-1,13
 275 465 275 465 308 465 c 2,14,-1
 401 465 l 1,15,-1
 401 551 l 1,16,-1
 0 551 l 1,17,-1
 0 622 l 1,18,-1
 592 622 l 1,19,-1
 592 551 l 1,20,-1
 482 551 l 1,21,-1
 482 394 l 1,22,-1
 298 394 l 2,23,24
 267 394 267 394 254 391 c 128,-1,25
 241 388 241 388 232 381 c 0,26,27
 225 375 225 375 221 366.5 c 128,-1,28
 217 358 217 358 217 347 c 0,29,30
 217 323 217 323 231 306.5 c 128,-1,31
 245 290 245 290 261 277 c 1,32,33
 284 285 284 285 310 289.5 c 128,-1,34
 336 294 336 294 362 294 c 0,35,36
 436 294 436 294 485 256.5 c 128,-1,37
 534 219 534 219 534 154 c 0,38,39
 534 109 534 109 512 74.5 c 128,-1,40
 490 40 490 40 446.5 20 c 128,-1,41
 403 0 403 0 337 0 c 0,42,43
 272 0 272 0 215.5 20 c 128,-1,44
 159 40 159 40 112 76 c 128,-1,45
 65 112 65 112 25 158 c 1,46,-1
 86 207 l 1,47,48
 143 139 143 139 202.5 106.5 c 128,-1,49
 262 74 262 74 337 74 c 0,50,51
 396 74 396 74 424.5 94.5 c 128,-1,52
 453 115 453 115 453 152 c 0,53,54
 453 187 453 187 428.5 204.5 c 128,-1,55
 404 222 404 222 358 222 c 0,0,1
EndSplineSet
EndChar

StartChar: uni03F0
Encoding: 1008 1008 198
Width: 564
Flags: W
LayerCount: 2
Fore
SplineSet
292 546 m 0,0,1
 361 546 361 546 410.5 516 c 128,-1,2
 460 486 460 486 486.5 431.5 c 128,-1,3
 513 377 513 377 513 304 c 2,4,-1
 513 251 l 1,5,-1
 146 251 l 1,6,7
 148 160 148 160 192.5 112.5 c 128,-1,8
 237 65 237 65 317 65 c 0,9,10
 368 65 368 65 407.5 74.5 c 128,-1,11
 447 84 447 84 489 102 c 1,12,-1
 489 25 l 1,13,14
 448 7 448 7 408 -1.5 c 128,-1,15
 368 -10 368 -10 313 -10 c 0,16,17
 237 -10 237 -10 178.5 21 c 128,-1,18
 120 52 120 52 87.5 113.5 c 128,-1,19
 55 175 55 175 55 264 c 0,20,21
 55 352 55 352 84.5 415 c 128,-1,22
 114 478 114 478 167.5 512 c 128,-1,23
 221 546 221 546 292 546 c 0,0,1
291 474 m 0,24,25
 228 474 228 474 191.5 433.5 c 128,-1,26
 155 393 155 393 148 321 c 1,27,-1
 421 321 l 1,28,29
 421 367 421 367 407 401 c 128,-1,30
 393 435 393 435 364.5 454.5 c 128,-1,31
 336 474 336 474 291 474 c 0,24,25
EndSplineSet
EndChar

StartChar: uni03F1
Encoding: 1009 1009 199
Width: 771
Flags: W
AnchorPoint: "Anchor-2" 419 0 basechar 0
AnchorPoint: "Anchor-1" 379 0 basechar 0
AnchorPoint: "Anchor-0" 379 622 basechar 0
LayerCount: 2
Fore
SplineSet
460 551 m 1,0,-1
 460 313 l 1,1,-1
 442 330 l 1,2,3
 470 363 470 363 503 381 c 128,-1,4
 536 399 536 399 578 399 c 0,5,6
 643 399 643 399 684 357.5 c 128,-1,7
 725 316 725 316 725 239 c 0,8,9
 725 193 725 193 710 141 c 128,-1,10
 695 89 695 89 660 39 c 1,11,-1
 588 80 l 1,12,13
 613 112 613 112 629 154 c 128,-1,14
 645 196 645 196 645 237 c 0,15,16
 645 284 645 284 625 307 c 128,-1,17
 605 330 605 330 570 330 c 0,18,19
 550 330 550 330 528 318.5 c 128,-1,20
 506 307 506 307 484 284.5 c 128,-1,21
 462 262 462 262 440 230 c 1,22,-1
 460 293 l 1,23,-1
 460 0 l 1,24,-1
 379 0 l 1,25,-1
 379 229 l 1,26,-1
 395 206 l 1,27,28
 370 184 370 184 334.5 165 c 128,-1,29
 299 146 299 146 248 146 c 0,30,31
 208 146 208 146 176 160.5 c 128,-1,32
 144 175 144 175 125 197 c 0,33,34
 109 216 109 216 98.5 238 c 128,-1,35
 88 260 88 260 83.5 288 c 128,-1,36
 79 316 79 316 79 354 c 2,37,-1
 79 551 l 1,38,-1
 0 551 l 1,39,-1
 0 622 l 1,40,-1
 786 622 l 1,41,-1
 786 551 l 1,42,-1
 460 551 l 1,0,-1
160 551 m 1,43,-1
 160 360 l 2,44,45
 160 305 160 305 166 281 c 128,-1,46
 172 257 172 257 188 240 c 0,47,48
 199 228 199 228 214 222.5 c 128,-1,49
 229 217 229 217 248 217 c 0,50,51
 281 217 281 217 307 227.5 c 128,-1,52
 333 238 333 238 355.5 256.5 c 128,-1,53
 378 275 378 275 397 297 c 1,54,-1
 379 243 l 1,55,-1
 379 551 l 1,56,-1
 160 551 l 1,43,-1
EndSplineSet
EndChar

StartChar: uni03F2
Encoding: 1010 1010 200
Width: 615
Flags: W
LayerCount: 2
Fore
SplineSet
275 546 m 0,0,1
 328 546 328 546 370.5 526 c 128,-1,2
 413 506 413 506 443 465 c 1,3,-1
 448 465 l 1,4,-1
 460 536 l 1,5,-1
 530 536 l 1,6,-1
 530 -9 l 2,7,8
 530 -85 530 -85 504 -136.5 c 128,-1,9
 478 -188 478 -188 425 -214 c 128,-1,10
 372 -240 372 -240 290 -240 c 0,11,12
 232 -240 232 -240 183.5 -231.5 c 128,-1,13
 135 -223 135 -223 97 -206 c 1,14,-1
 97 -125 l 1,15,16
 135 -145 135 -145 186 -156 c 128,-1,17
 237 -167 237 -167 295 -167 c 0,18,19
 364 -167 364 -167 403.5 -126.5 c 128,-1,20
 443 -86 443 -86 443 -16 c 2,21,-1
 443 5 l 2,22,23
 443 17 443 17 444 39.5 c 128,-1,24
 445 62 445 62 446 71 c 1,25,-1
 442 71 l 1,26,27
 414 30 414 30 372.5 10 c 128,-1,28
 331 -10 331 -10 276 -10 c 0,29,30
 172 -10 172 -10 113.5 63 c 128,-1,31
 55 136 55 136 55 267 c 0,32,33
 55 395 55 395 113.5 470.5 c 128,-1,34
 172 546 172 546 275 546 c 0,0,1
287 472 m 0,35,36
 242 472 242 472 210.5 448 c 128,-1,37
 179 424 179 424 162.5 378 c 128,-1,38
 146 332 146 332 146 266 c 0,39,40
 146 167 146 167 182.5 114.5 c 128,-1,41
 219 62 219 62 289 62 c 0,42,43
 330 62 330 62 359 72.5 c 128,-1,44
 388 83 388 83 407 105.5 c 128,-1,45
 426 128 426 128 435 163 c 128,-1,46
 444 198 444 198 444 246 c 2,47,-1
 444 267 l 2,48,49
 444 340 444 340 427.5 385 c 128,-1,50
 411 430 411 430 376 451 c 128,-1,51
 341 472 341 472 287 472 c 0,35,36
EndSplineSet
EndChar

StartChar: uni03F3
Encoding: 1011 1011 201
Width: 618
Flags: W
LayerCount: 2
Fore
SplineSet
173 537 m 2,0,1
 173 518 173 518 171.5 498 c 128,-1,2
 170 478 170 478 168 462 c 1,3,-1
 174 462 l 1,4,5
 191 490 191 490 217 508 c 128,-1,6
 243 526 243 526 275 535.5 c 128,-1,7
 307 545 307 545 341 545 c 0,8,9
 406 545 406 545 449.5 524.5 c 128,-1,10
 493 504 493 504 515 461 c 128,-1,11
 537 418 537 418 537 349 c 2,12,-1
 537 0 l 1,13,-1
 450 0 l 1,14,-1
 450 343 l 2,15,16
 450 408 450 408 421 440 c 128,-1,17
 392 472 392 472 330 472 c 0,18,19
 270 472 270 472 236 449.5 c 128,-1,20
 202 427 202 427 187.5 383.5 c 128,-1,21
 173 340 173 340 173 277 c 2,22,-1
 173 0 l 1,23,-1
 85 0 l 1,24,-1
 85 760 l 1,25,-1
 173 760 l 1,26,-1
 173 537 l 2,0,1
EndSplineSet
EndChar

